G04 #@! TF.GenerationSoftware,KiCad,Pcbnew,(5.1.0)-1*
G04 #@! TF.CreationDate,2019-06-01T21:15:29-04:00*
G04 #@! TF.ProjectId,power,706f7765-722e-46b6-9963-61645f706362,rev?*
G04 #@! TF.SameCoordinates,Original*
G04 #@! TF.FileFunction,Soldermask,Top*
G04 #@! TF.FilePolarity,Negative*
%FSLAX46Y46*%
G04 Gerber Fmt 4.6, Leading zero omitted, Abs format (unit mm)*
G04 Created by KiCad (PCBNEW (5.1.0)-1) date 2019-06-01 21:15:29*
%MOMM*%
%LPD*%
G04 APERTURE LIST*
%ADD10C,0.100000*%
G04 APERTURE END LIST*
D10*
G36*
X81793331Y-74784211D02*
G01*
X82121092Y-74919974D01*
X82416070Y-75117072D01*
X82666928Y-75367930D01*
X82864026Y-75662908D01*
X82999789Y-75990669D01*
X83069000Y-76338616D01*
X83069000Y-76693384D01*
X82999789Y-77041331D01*
X82864026Y-77369092D01*
X82666928Y-77664070D01*
X82416070Y-77914928D01*
X82121092Y-78112026D01*
X81793331Y-78247789D01*
X81445384Y-78317000D01*
X81090616Y-78317000D01*
X80742669Y-78247789D01*
X80414908Y-78112026D01*
X80119930Y-77914928D01*
X79869072Y-77664070D01*
X79671974Y-77369092D01*
X79536211Y-77041331D01*
X79467000Y-76693384D01*
X79467000Y-76338616D01*
X79536211Y-75990669D01*
X79671974Y-75662908D01*
X79869072Y-75367930D01*
X80119930Y-75117072D01*
X80414908Y-74919974D01*
X80742669Y-74784211D01*
X81090616Y-74715000D01*
X81445384Y-74715000D01*
X81793331Y-74784211D01*
X81793331Y-74784211D01*
G37*
G36*
X98754635Y-74311654D02*
G01*
X98971600Y-74377470D01*
X98971602Y-74377471D01*
X99171555Y-74484347D01*
X99346818Y-74628182D01*
X99490653Y-74803445D01*
X99597529Y-75003398D01*
X99597530Y-75003400D01*
X99663346Y-75220365D01*
X99680000Y-75389457D01*
X99680000Y-76502543D01*
X99663346Y-76671635D01*
X99656749Y-76693383D01*
X99597529Y-76888602D01*
X99490653Y-77088555D01*
X99411652Y-77184817D01*
X99346818Y-77263818D01*
X99218540Y-77369092D01*
X99171553Y-77407653D01*
X98971601Y-77514529D01*
X98971599Y-77514530D01*
X98754634Y-77580346D01*
X98529000Y-77602569D01*
X98303365Y-77580346D01*
X98086400Y-77514530D01*
X98086398Y-77514529D01*
X97886445Y-77407653D01*
X97790183Y-77328652D01*
X97711182Y-77263818D01*
X97567348Y-77088554D01*
X97542107Y-77041331D01*
X97460471Y-76888601D01*
X97394655Y-76671635D01*
X97394654Y-76671634D01*
X97378000Y-76502542D01*
X97378000Y-75389457D01*
X97394654Y-75220365D01*
X97460470Y-75003400D01*
X97460471Y-75003398D01*
X97567347Y-74803446D01*
X97711183Y-74628182D01*
X97886446Y-74484347D01*
X98086399Y-74377471D01*
X98086401Y-74377470D01*
X98303366Y-74311654D01*
X98529000Y-74289431D01*
X98754635Y-74311654D01*
X98754635Y-74311654D01*
G37*
G36*
X106674635Y-74311654D02*
G01*
X106891600Y-74377470D01*
X106891602Y-74377471D01*
X107091555Y-74484347D01*
X107266818Y-74628182D01*
X107410653Y-74803445D01*
X107517529Y-75003398D01*
X107517530Y-75003400D01*
X107583346Y-75220365D01*
X107600000Y-75389457D01*
X107600000Y-76502543D01*
X107583346Y-76671635D01*
X107576749Y-76693383D01*
X107517529Y-76888602D01*
X107410653Y-77088555D01*
X107331652Y-77184817D01*
X107266818Y-77263818D01*
X107138540Y-77369092D01*
X107091553Y-77407653D01*
X106891601Y-77514529D01*
X106891599Y-77514530D01*
X106674634Y-77580346D01*
X106449000Y-77602569D01*
X106223365Y-77580346D01*
X106006400Y-77514530D01*
X106006398Y-77514529D01*
X105806445Y-77407653D01*
X105710183Y-77328652D01*
X105631182Y-77263818D01*
X105487348Y-77088554D01*
X105462107Y-77041331D01*
X105380471Y-76888601D01*
X105314655Y-76671635D01*
X105314654Y-76671634D01*
X105298000Y-76502542D01*
X105298000Y-75389457D01*
X105314654Y-75220365D01*
X105380470Y-75003400D01*
X105380471Y-75003398D01*
X105487347Y-74803446D01*
X105631183Y-74628182D01*
X105806446Y-74484347D01*
X106006399Y-74377471D01*
X106006401Y-74377470D01*
X106223366Y-74311654D01*
X106449000Y-74289431D01*
X106674635Y-74311654D01*
X106674635Y-74311654D01*
G37*
G36*
X110315757Y-69461298D02*
G01*
X110422080Y-69482447D01*
X110603032Y-69557400D01*
X110704297Y-69599345D01*
X110722543Y-69606903D01*
X110992952Y-69787585D01*
X111222916Y-70017549D01*
X111361954Y-70225634D01*
X111403599Y-70287960D01*
X111528054Y-70588422D01*
X111590053Y-70900107D01*
X111591501Y-70907391D01*
X111591501Y-71232609D01*
X111528054Y-71551579D01*
X111403598Y-71852042D01*
X111222916Y-72122451D01*
X110992952Y-72352415D01*
X110722543Y-72533097D01*
X110422080Y-72657553D01*
X110315757Y-72678702D01*
X110103112Y-72721000D01*
X109777890Y-72721000D01*
X109565245Y-72678702D01*
X109458922Y-72657553D01*
X109158459Y-72533097D01*
X108888050Y-72352415D01*
X108658086Y-72122451D01*
X108477404Y-71852042D01*
X108352948Y-71551579D01*
X108289501Y-71232609D01*
X108289501Y-70907391D01*
X108290950Y-70900107D01*
X108352948Y-70588422D01*
X108477403Y-70287960D01*
X108519048Y-70225634D01*
X108658086Y-70017549D01*
X108888050Y-69787585D01*
X109158459Y-69606903D01*
X109176706Y-69599345D01*
X109277970Y-69557400D01*
X109458922Y-69482447D01*
X109565245Y-69461298D01*
X109777890Y-69419000D01*
X110103112Y-69419000D01*
X110315757Y-69461298D01*
X110315757Y-69461298D01*
G37*
G36*
X89798215Y-69474382D02*
G01*
X89925823Y-69499765D01*
X90064961Y-69557398D01*
X90166228Y-69599344D01*
X90238022Y-69647315D01*
X90382590Y-69743912D01*
X90566589Y-69927911D01*
X90614757Y-70000000D01*
X90711157Y-70144273D01*
X90744858Y-70225635D01*
X90810736Y-70384678D01*
X90836118Y-70512285D01*
X90861501Y-70639891D01*
X90861501Y-70900109D01*
X90849259Y-70961652D01*
X90810736Y-71155322D01*
X90752404Y-71296148D01*
X90711157Y-71395727D01*
X90711156Y-71395728D01*
X90566589Y-71612089D01*
X90382590Y-71796088D01*
X90298851Y-71852040D01*
X90166228Y-71940656D01*
X90066649Y-71981903D01*
X89925823Y-72040235D01*
X89798215Y-72065618D01*
X89670610Y-72091000D01*
X89410392Y-72091000D01*
X89282787Y-72065618D01*
X89155179Y-72040235D01*
X89014353Y-71981903D01*
X88914774Y-71940656D01*
X88782151Y-71852040D01*
X88698412Y-71796088D01*
X88514413Y-71612089D01*
X88369846Y-71395728D01*
X88369845Y-71395727D01*
X88328598Y-71296148D01*
X88270266Y-71155322D01*
X88231743Y-70961652D01*
X88219501Y-70900109D01*
X88219501Y-70639891D01*
X88244884Y-70512285D01*
X88270266Y-70384678D01*
X88336144Y-70225635D01*
X88369845Y-70144273D01*
X88466245Y-70000000D01*
X88514413Y-69927911D01*
X88698412Y-69743912D01*
X88842980Y-69647315D01*
X88914774Y-69599344D01*
X89016041Y-69557398D01*
X89155179Y-69499765D01*
X89282787Y-69474382D01*
X89410392Y-69449000D01*
X89670610Y-69449000D01*
X89798215Y-69474382D01*
X89798215Y-69474382D01*
G37*
G36*
X80679271Y-68860103D02*
G01*
X80735635Y-68865654D01*
X80952600Y-68931470D01*
X80952602Y-68931471D01*
X81152555Y-69038347D01*
X81327818Y-69182182D01*
X81471653Y-69357445D01*
X81538467Y-69482447D01*
X81578530Y-69557400D01*
X81644346Y-69774365D01*
X81666569Y-70000000D01*
X81644346Y-70225635D01*
X81596101Y-70384678D01*
X81578529Y-70442602D01*
X81471653Y-70642555D01*
X81327818Y-70817818D01*
X81152555Y-70961653D01*
X80952602Y-71068529D01*
X80952600Y-71068530D01*
X80735635Y-71134346D01*
X80679271Y-71139897D01*
X80566545Y-71151000D01*
X79453455Y-71151000D01*
X79340729Y-71139897D01*
X79284365Y-71134346D01*
X79067400Y-71068530D01*
X79067398Y-71068529D01*
X78867445Y-70961653D01*
X78692182Y-70817818D01*
X78548347Y-70642555D01*
X78441471Y-70442602D01*
X78423900Y-70384678D01*
X78375654Y-70225635D01*
X78353431Y-70000000D01*
X78375654Y-69774365D01*
X78441470Y-69557400D01*
X78481533Y-69482447D01*
X78548347Y-69357445D01*
X78692182Y-69182182D01*
X78867445Y-69038347D01*
X79067398Y-68931471D01*
X79067400Y-68931470D01*
X79284365Y-68865654D01*
X79340729Y-68860103D01*
X79453455Y-68849000D01*
X80566545Y-68849000D01*
X80679271Y-68860103D01*
X80679271Y-68860103D01*
G37*
G36*
X95798216Y-68224383D02*
G01*
X95925823Y-68249765D01*
X96066649Y-68308097D01*
X96166228Y-68349344D01*
X96166229Y-68349345D01*
X96382590Y-68493912D01*
X96566589Y-68677911D01*
X96663186Y-68822479D01*
X96711157Y-68894273D01*
X96752404Y-68993852D01*
X96810736Y-69134678D01*
X96861501Y-69389893D01*
X96861501Y-69650107D01*
X96810736Y-69905322D01*
X96771519Y-70000000D01*
X96711157Y-70145727D01*
X96711156Y-70145728D01*
X96566589Y-70362089D01*
X96382590Y-70546088D01*
X96319232Y-70588422D01*
X96166228Y-70690656D01*
X96066649Y-70731903D01*
X95925823Y-70790235D01*
X95798215Y-70815618D01*
X95670610Y-70841000D01*
X95410392Y-70841000D01*
X95282787Y-70815618D01*
X95155179Y-70790235D01*
X95014353Y-70731903D01*
X94914774Y-70690656D01*
X94761770Y-70588422D01*
X94698412Y-70546088D01*
X94514413Y-70362089D01*
X94369846Y-70145728D01*
X94369845Y-70145727D01*
X94309483Y-70000000D01*
X94270266Y-69905322D01*
X94219501Y-69650107D01*
X94219501Y-69389893D01*
X94270266Y-69134678D01*
X94328598Y-68993852D01*
X94369845Y-68894273D01*
X94417816Y-68822479D01*
X94514413Y-68677911D01*
X94698412Y-68493912D01*
X94914773Y-68349345D01*
X94914774Y-68349344D01*
X95014353Y-68308097D01*
X95155179Y-68249765D01*
X95282786Y-68224383D01*
X95410392Y-68199000D01*
X95670610Y-68199000D01*
X95798216Y-68224383D01*
X95798216Y-68224383D01*
G37*
G36*
X80679271Y-60940103D02*
G01*
X80735635Y-60945654D01*
X80952600Y-61011470D01*
X80952602Y-61011471D01*
X81152555Y-61118347D01*
X81327818Y-61262182D01*
X81471653Y-61437445D01*
X81578529Y-61637398D01*
X81644346Y-61854366D01*
X81666569Y-62080000D01*
X81644346Y-62305634D01*
X81578529Y-62522602D01*
X81471653Y-62722555D01*
X81327818Y-62897818D01*
X81152555Y-63041653D01*
X80952602Y-63148529D01*
X80952600Y-63148530D01*
X80735635Y-63214346D01*
X80679271Y-63219897D01*
X80566545Y-63231000D01*
X79453455Y-63231000D01*
X79340729Y-63219897D01*
X79284365Y-63214346D01*
X79067400Y-63148530D01*
X79067398Y-63148529D01*
X78867445Y-63041653D01*
X78692182Y-62897818D01*
X78548347Y-62722555D01*
X78441471Y-62522602D01*
X78375654Y-62305634D01*
X78353431Y-62080000D01*
X78375654Y-61854366D01*
X78441471Y-61637398D01*
X78548347Y-61437445D01*
X78692182Y-61262182D01*
X78867445Y-61118347D01*
X79067398Y-61011471D01*
X79067400Y-61011470D01*
X79284365Y-60945654D01*
X79340729Y-60940103D01*
X79453455Y-60929000D01*
X80566545Y-60929000D01*
X80679271Y-60940103D01*
X80679271Y-60940103D01*
G37*
G36*
X95798215Y-58224382D02*
G01*
X95925823Y-58249765D01*
X96066649Y-58308097D01*
X96166228Y-58349344D01*
X96166229Y-58349345D01*
X96382590Y-58493912D01*
X96566589Y-58677911D01*
X96616120Y-58752040D01*
X96711157Y-58894273D01*
X96752404Y-58993852D01*
X96810736Y-59134678D01*
X96861501Y-59389893D01*
X96861501Y-59650107D01*
X96810736Y-59905322D01*
X96752404Y-60046148D01*
X96711157Y-60145727D01*
X96711156Y-60145728D01*
X96566589Y-60362089D01*
X96382590Y-60546088D01*
X96238022Y-60642685D01*
X96166228Y-60690656D01*
X96066649Y-60731903D01*
X95925823Y-60790235D01*
X95798215Y-60815618D01*
X95670610Y-60841000D01*
X95410392Y-60841000D01*
X95282787Y-60815618D01*
X95155179Y-60790235D01*
X95014353Y-60731903D01*
X94914774Y-60690656D01*
X94842980Y-60642685D01*
X94698412Y-60546088D01*
X94514413Y-60362089D01*
X94369846Y-60145728D01*
X94369845Y-60145727D01*
X94328598Y-60046148D01*
X94270266Y-59905322D01*
X94219501Y-59650107D01*
X94219501Y-59389893D01*
X94270266Y-59134678D01*
X94328598Y-58993852D01*
X94369845Y-58894273D01*
X94464882Y-58752040D01*
X94514413Y-58677911D01*
X94698412Y-58493912D01*
X94914773Y-58349345D01*
X94914774Y-58349344D01*
X95014353Y-58308097D01*
X95155179Y-58249765D01*
X95282787Y-58224382D01*
X95410392Y-58199000D01*
X95670610Y-58199000D01*
X95798215Y-58224382D01*
X95798215Y-58224382D01*
G37*
G36*
X110315757Y-56361298D02*
G01*
X110422080Y-56382447D01*
X110722543Y-56506903D01*
X110992952Y-56687585D01*
X111222916Y-56917549D01*
X111403598Y-57187958D01*
X111403599Y-57187960D01*
X111528054Y-57488422D01*
X111591501Y-57807389D01*
X111591501Y-58132611D01*
X111578295Y-58199000D01*
X111528054Y-58451579D01*
X111403598Y-58752042D01*
X111222916Y-59022451D01*
X110992952Y-59252415D01*
X110722543Y-59433097D01*
X110722542Y-59433098D01*
X110722541Y-59433098D01*
X110704294Y-59440656D01*
X110422080Y-59557553D01*
X110315757Y-59578702D01*
X110103112Y-59621000D01*
X109777890Y-59621000D01*
X109565245Y-59578702D01*
X109458922Y-59557553D01*
X109176708Y-59440656D01*
X109158461Y-59433098D01*
X109158460Y-59433098D01*
X109158459Y-59433097D01*
X108888050Y-59252415D01*
X108658086Y-59022451D01*
X108477404Y-58752042D01*
X108352948Y-58451579D01*
X108302707Y-58199000D01*
X108289501Y-58132611D01*
X108289501Y-57807389D01*
X108352948Y-57488422D01*
X108477403Y-57187960D01*
X108477404Y-57187958D01*
X108658086Y-56917549D01*
X108888050Y-56687585D01*
X109158459Y-56506903D01*
X109458922Y-56382447D01*
X109565245Y-56361298D01*
X109777890Y-56319000D01*
X110103112Y-56319000D01*
X110315757Y-56361298D01*
X110315757Y-56361298D01*
G37*
G36*
X89798215Y-56974382D02*
G01*
X89925823Y-56999765D01*
X90066649Y-57058097D01*
X90166228Y-57099344D01*
X90166229Y-57099345D01*
X90382590Y-57243912D01*
X90566589Y-57427911D01*
X90607020Y-57488421D01*
X90711157Y-57644273D01*
X90752404Y-57743852D01*
X90810736Y-57884678D01*
X90810736Y-57884680D01*
X90860053Y-58132609D01*
X90861501Y-58139893D01*
X90861501Y-58400107D01*
X90810736Y-58655322D01*
X90770674Y-58752040D01*
X90711157Y-58895727D01*
X90711156Y-58895728D01*
X90566589Y-59112089D01*
X90382590Y-59296088D01*
X90242203Y-59389891D01*
X90166228Y-59440656D01*
X90066649Y-59481903D01*
X89925823Y-59540235D01*
X89798215Y-59565618D01*
X89670610Y-59591000D01*
X89410392Y-59591000D01*
X89282787Y-59565618D01*
X89155179Y-59540235D01*
X89014353Y-59481903D01*
X88914774Y-59440656D01*
X88838799Y-59389891D01*
X88698412Y-59296088D01*
X88514413Y-59112089D01*
X88369846Y-58895728D01*
X88369845Y-58895727D01*
X88310328Y-58752040D01*
X88270266Y-58655322D01*
X88219501Y-58400107D01*
X88219501Y-58139893D01*
X88220950Y-58132609D01*
X88270266Y-57884680D01*
X88270266Y-57884678D01*
X88328598Y-57743852D01*
X88369845Y-57644273D01*
X88473982Y-57488421D01*
X88514413Y-57427911D01*
X88698412Y-57243912D01*
X88914773Y-57099345D01*
X88914774Y-57099344D01*
X89014353Y-57058097D01*
X89155179Y-56999765D01*
X89282787Y-56974382D01*
X89410392Y-56949000D01*
X89670610Y-56949000D01*
X89798215Y-56974382D01*
X89798215Y-56974382D01*
G37*
G36*
X107793331Y-50784211D02*
G01*
X108121092Y-50919974D01*
X108416070Y-51117072D01*
X108666928Y-51367930D01*
X108864026Y-51662908D01*
X108999789Y-51990669D01*
X109069000Y-52338616D01*
X109069000Y-52693384D01*
X108999789Y-53041331D01*
X108864026Y-53369092D01*
X108666928Y-53664070D01*
X108416070Y-53914928D01*
X108121092Y-54112026D01*
X107793331Y-54247789D01*
X107445384Y-54317000D01*
X107090616Y-54317000D01*
X106742669Y-54247789D01*
X106414908Y-54112026D01*
X106119930Y-53914928D01*
X105869072Y-53664070D01*
X105671974Y-53369092D01*
X105536211Y-53041331D01*
X105467000Y-52693384D01*
X105467000Y-52338616D01*
X105536211Y-51990669D01*
X105671974Y-51662908D01*
X105869072Y-51367930D01*
X106119930Y-51117072D01*
X106414908Y-50919974D01*
X106742669Y-50784211D01*
X107090616Y-50715000D01*
X107445384Y-50715000D01*
X107793331Y-50784211D01*
X107793331Y-50784211D01*
G37*
G36*
X81476564Y-50989389D02*
G01*
X81667833Y-51068615D01*
X81667835Y-51068616D01*
X81740354Y-51117072D01*
X81839973Y-51183635D01*
X81986365Y-51330027D01*
X82101385Y-51502167D01*
X82180611Y-51693436D01*
X82221000Y-51896484D01*
X82221000Y-52103516D01*
X82180611Y-52306564D01*
X82167334Y-52338617D01*
X82101384Y-52497835D01*
X81986365Y-52669973D01*
X81839973Y-52816365D01*
X81667835Y-52931384D01*
X81667834Y-52931385D01*
X81667833Y-52931385D01*
X81476564Y-53010611D01*
X81273516Y-53051000D01*
X81066484Y-53051000D01*
X80863436Y-53010611D01*
X80672167Y-52931385D01*
X80672166Y-52931385D01*
X80672165Y-52931384D01*
X80500027Y-52816365D01*
X80353635Y-52669973D01*
X80238616Y-52497835D01*
X80172666Y-52338617D01*
X80159389Y-52306564D01*
X80119000Y-52103516D01*
X80119000Y-51896484D01*
X80159389Y-51693436D01*
X80238615Y-51502167D01*
X80353635Y-51330027D01*
X80500027Y-51183635D01*
X80599646Y-51117072D01*
X80672165Y-51068616D01*
X80672167Y-51068615D01*
X80863436Y-50989389D01*
X81066484Y-50949000D01*
X81273516Y-50949000D01*
X81476564Y-50989389D01*
X81476564Y-50989389D01*
G37*
G36*
X96636564Y-50989389D02*
G01*
X96827833Y-51068615D01*
X96827835Y-51068616D01*
X96900354Y-51117072D01*
X96999973Y-51183635D01*
X97146365Y-51330027D01*
X97261385Y-51502167D01*
X97340611Y-51693436D01*
X97381000Y-51896484D01*
X97381000Y-52103516D01*
X97340611Y-52306564D01*
X97327334Y-52338617D01*
X97261384Y-52497835D01*
X97146365Y-52669973D01*
X96999973Y-52816365D01*
X96827835Y-52931384D01*
X96827834Y-52931385D01*
X96827833Y-52931385D01*
X96636564Y-53010611D01*
X96433516Y-53051000D01*
X96226484Y-53051000D01*
X96023436Y-53010611D01*
X95832167Y-52931385D01*
X95832166Y-52931385D01*
X95832165Y-52931384D01*
X95660027Y-52816365D01*
X95513635Y-52669973D01*
X95398616Y-52497835D01*
X95332666Y-52338617D01*
X95319389Y-52306564D01*
X95279000Y-52103516D01*
X95279000Y-51896484D01*
X95319389Y-51693436D01*
X95398615Y-51502167D01*
X95513635Y-51330027D01*
X95660027Y-51183635D01*
X95759646Y-51117072D01*
X95832165Y-51068616D01*
X95832167Y-51068615D01*
X96023436Y-50989389D01*
X96226484Y-50949000D01*
X96433516Y-50949000D01*
X96636564Y-50989389D01*
X96636564Y-50989389D01*
G37*
M02*
