G04 #@! TF.GenerationSoftware,KiCad,Pcbnew,(5.1.0)-1*
G04 #@! TF.CreationDate,2019-06-01T21:15:29-04:00*
G04 #@! TF.ProjectId,power,706f7765-722e-46b6-9963-61645f706362,rev?*
G04 #@! TF.SameCoordinates,Original*
G04 #@! TF.FileFunction,Copper,L1,Top*
G04 #@! TF.FilePolarity,Positive*
%FSLAX46Y46*%
G04 Gerber Fmt 4.6, Leading zero omitted, Abs format (unit mm)*
G04 Created by KiCad (PCBNEW (5.1.0)-1) date 2019-06-01 21:15:29*
%MOMM*%
%LPD*%
G04 APERTURE LIST*
%ADD10O,3.200000X2.200000*%
%ADD11O,2.200000X3.200000*%
%ADD12C,2.540000*%
%ADD13C,3.200000*%
%ADD14C,2.000000*%
%ADD15C,2.000000*%
G04 APERTURE END LIST*
D10*
X80010000Y-62080000D03*
X80010000Y-70000000D03*
D11*
X98529000Y-75946000D03*
X106449000Y-75946000D03*
D12*
X89540501Y-70770000D03*
X89540501Y-58270000D03*
X95540501Y-59520000D03*
X95540501Y-69520000D03*
D13*
X109940501Y-71070000D03*
X109940501Y-57970000D03*
D14*
X96330000Y-52000000D03*
X81170000Y-52000000D03*
D15*
X88770501Y-70000000D02*
X89540501Y-70770000D01*
X80010000Y-70000000D02*
X88770501Y-70000000D01*
X95540501Y-73188501D02*
X95540501Y-69520000D01*
X98529000Y-75946000D02*
X98298000Y-75946000D01*
X98298000Y-75946000D02*
X95540501Y-73188501D01*
X106449000Y-75016500D02*
X106449000Y-75946000D01*
X104648000Y-73215500D02*
X106449000Y-75016500D01*
X104648000Y-63055500D02*
X104648000Y-73215500D01*
X95540501Y-59520000D02*
X101112500Y-59520000D01*
X101112500Y-59520000D02*
X104648000Y-63055500D01*
X94014450Y-52000000D02*
X96330000Y-52000000D01*
X89540501Y-58270000D02*
X89540501Y-56473949D01*
X89540501Y-56473949D02*
X94014450Y-52000000D01*
X80010000Y-53160000D02*
X80010000Y-62080000D01*
X81170000Y-52250000D02*
X80920000Y-52250000D01*
X80920000Y-52250000D02*
X80010000Y-53160000D01*
M02*
