M48
; DRILL file {KiCad (5.1.0)-1} date 6/1/2019 9:06:21 PM
; FORMAT={-:-/ absolute / inch / decimal}
; #@! TF.CreationDate,2019-06-01T21:06:21-04:00
; #@! TF.GenerationSoftware,Kicad,Pcbnew,(5.1.0)-1
; #@! TF.FileFunction,Plated,1,4,PTH
FMAT,2
INCH
T1C0.0079
T2C0.0157
T3C0.0295
T4C0.0300
T5C0.0394
T6C0.0472
%
G90
G05
T1
X3.0447Y-2.695
X3.0674Y-2.6576
X3.0674Y-2.7324
X3.09Y-2.695
T2
X2.47Y-2.29
X2.47Y-2.33
X2.47Y-2.37
X2.47Y-2.41
X2.47Y-2.98
X2.47Y-3.02
X2.47Y-3.06
X2.47Y-3.1
X2.73Y-2.61
X2.73Y-2.67
X2.73Y-2.72
X2.73Y-2.79
X2.78Y-2.65
X2.78Y-2.7
X2.78Y-2.75
X3.07Y-2.47
X3.07Y-2.92
X3.08Y-2.23
X3.08Y-3.13
X3.11Y-3.33
X3.12Y-2.09
X3.15Y-3.04
X3.23Y-2.02
X3.23Y-3.12
X3.28Y-3.37
X3.29Y-2.825
X3.29Y-2.875
X3.295Y-2.515
X3.295Y-2.565
X3.33Y-2.825
X3.33Y-2.875
X3.335Y-2.515
X3.335Y-2.565
X3.34Y-2.27
X3.37Y-2.825
X3.37Y-2.875
X3.375Y-2.515
X3.375Y-2.565
X3.43Y-2.02
X3.525Y-2.975
X3.53Y-3.12
X3.54Y-2.415
X3.585Y-2.415
X3.585Y-2.975
X3.62Y-2.02
X3.63Y-2.25
X3.63Y-2.415
X3.63Y-2.64
X3.63Y-2.74
X3.64Y-2.975
X3.77Y-3.01
X3.82Y-2.02
X3.86Y-2.75
X3.89Y-2.12
X3.915Y-2.27
X3.95Y-3.16
X3.95Y-3.36
X4.11Y-2.6
X4.1293Y-2.1157
X4.1316Y-2.92
X4.14Y-3.24
X4.16Y-2.23
X4.21Y-3.04
X4.24Y-3.38
X4.25Y-2.75
X4.32Y-3.32
X4.41Y-2.02
X4.43Y-2.34
X4.43Y-2.99
X4.485Y-2.135
X4.485Y-2.63
X4.495Y-3.085
X4.52Y-2.4
X4.55Y-3.13
X4.6Y-3.31
X4.62Y-2.02
X4.62Y-2.75
X4.75Y-2.25
X4.97Y-2.93
X4.98Y-2.02
X5.08Y-2.12
X5.12Y-2.58
X5.12Y-3.07
X5.16Y-2.89
X5.16Y-3.31
X5.17Y-2.32
X5.18Y-2.02
X5.25Y-3.14
X5.38Y-2.02
X5.4Y-2.45
X5.4Y-2.8
X5.49Y-2.97
X5.58Y-2.02
X5.58Y-3.12
X5.58Y-3.28
X5.6Y-2.45
X5.6Y-2.8
X5.71Y-2.98
X5.76Y-2.02
X5.8Y-2.45
X5.8Y-2.8
X5.81Y-3.1
X5.81Y-3.27
X5.96Y-2.91
X5.98Y-2.02
X6.0Y-2.66
X6.0Y-3.11
X6.0Y-3.325
X6.02Y-2.31
X6.1Y-2.47
X6.18Y-2.02
X6.2Y-2.8
X6.2Y-3.33
X6.22Y-2.99
X6.23Y-2.56
X6.27Y-2.32
X6.3Y-3.1
X6.4Y-2.6
X6.4Y-3.33
X6.45Y-2.8
X6.48Y-2.21
X6.55Y-2.93
X6.6Y-2.6
X6.6Y-3.33
X6.6443Y-2.2093
X6.645Y-2.825
X6.705Y-2.1079
X6.775Y-2.765
X6.8Y-3.33
X6.86Y-2.02
X6.93Y-2.72
X6.955Y-2.55
X7.0Y-3.33
X7.01Y-3.22
X7.015Y-2.445
X7.04Y-3.155
X7.06Y-2.02
X7.075Y-2.275
X7.075Y-2.998
X7.08Y-2.55
X7.09Y-2.7
X7.09Y-2.88
X7.14Y-3.035
X7.15Y-2.41
X7.19Y-2.7
X7.19Y-2.88
X7.21Y-2.27
X7.26Y-2.02
X7.31Y-2.17
X7.36Y-2.8
X7.4Y-2.91
X7.45Y-2.8
X7.46Y-2.02
X7.61Y-2.63
X7.66Y-2.02
X7.74Y-3.0
X7.96Y-2.4
X7.96Y-2.6
X7.96Y-2.8
X7.96Y-3.0
T3
X7.2038Y-3.25
X7.2825Y-3.25
X7.3613Y-3.25
X7.44Y-3.25
X7.5188Y-3.25
X7.5975Y-3.25
X3.3576Y-3.25
X3.4363Y-3.25
X3.515Y-3.25
X3.5938Y-3.25
X3.6725Y-3.25
X3.7513Y-3.25
X3.83Y-3.25
X1.955Y-2.62
X1.955Y-2.6987
X1.955Y-2.7775
T4
X4.835Y-3.0941
X4.835Y-3.2909
X4.835Y-2.0781
X4.835Y-2.275
X4.835Y-2.3866
X4.835Y-2.5834
X4.835Y-2.7841
X4.835Y-2.9809
X6.4Y-2.2866
X6.4Y-2.4834
X6.4Y-2.9066
X6.4Y-3.1034
T5
X7.4141Y-2.2366
X7.4141Y-2.335
X7.4141Y-2.4334
X7.5125Y-2.2366
X7.5125Y-2.335
X7.5125Y-2.4334
T6
X5.415Y-2.235
X5.415Y-2.635
X5.615Y-2.235
X5.615Y-2.635
X5.815Y-2.235
X5.815Y-2.635
T0
M30
