G04 #@! TF.GenerationSoftware,KiCad,Pcbnew,(5.1.0)-1*
G04 #@! TF.CreationDate,2019-06-01T21:06:23-04:00*
G04 #@! TF.ProjectId,preample,70726561-6d70-46c6-952e-6b696361645f,rev?*
G04 #@! TF.SameCoordinates,Original*
G04 #@! TF.FileFunction,Soldermask,Top*
G04 #@! TF.FilePolarity,Negative*
%FSLAX46Y46*%
G04 Gerber Fmt 4.6, Leading zero omitted, Abs format (unit mm)*
G04 Created by KiCad (PCBNEW (5.1.0)-1) date 2019-06-01 21:06:23*
%MOMM*%
%LPD*%
G04 APERTURE LIST*
%ADD10C,0.100000*%
G04 APERTURE END LIST*
D10*
G36*
X115228468Y-84724565D02*
G01*
X115267138Y-84736296D01*
X115302777Y-84755346D01*
X115334017Y-84780983D01*
X115359654Y-84812223D01*
X115378704Y-84847862D01*
X115390435Y-84886532D01*
X115395000Y-84932888D01*
X115395000Y-86009112D01*
X115390435Y-86055468D01*
X115378704Y-86094138D01*
X115359654Y-86129777D01*
X115334017Y-86161017D01*
X115302777Y-86186654D01*
X115267138Y-86205704D01*
X115228468Y-86217435D01*
X115182112Y-86222000D01*
X114530888Y-86222000D01*
X114484532Y-86217435D01*
X114445862Y-86205704D01*
X114410223Y-86186654D01*
X114378983Y-86161017D01*
X114353346Y-86129777D01*
X114334296Y-86094138D01*
X114322565Y-86055468D01*
X114318000Y-86009112D01*
X114318000Y-84932888D01*
X114322565Y-84886532D01*
X114334296Y-84847862D01*
X114353346Y-84812223D01*
X114378983Y-84780983D01*
X114410223Y-84755346D01*
X114445862Y-84736296D01*
X114484532Y-84724565D01*
X114530888Y-84720000D01*
X115182112Y-84720000D01*
X115228468Y-84724565D01*
X115228468Y-84724565D01*
G37*
G36*
X113353468Y-84724565D02*
G01*
X113392138Y-84736296D01*
X113427777Y-84755346D01*
X113459017Y-84780983D01*
X113484654Y-84812223D01*
X113503704Y-84847862D01*
X113515435Y-84886532D01*
X113520000Y-84932888D01*
X113520000Y-86009112D01*
X113515435Y-86055468D01*
X113503704Y-86094138D01*
X113484654Y-86129777D01*
X113459017Y-86161017D01*
X113427777Y-86186654D01*
X113392138Y-86205704D01*
X113353468Y-86217435D01*
X113307112Y-86222000D01*
X112655888Y-86222000D01*
X112609532Y-86217435D01*
X112570862Y-86205704D01*
X112535223Y-86186654D01*
X112503983Y-86161017D01*
X112478346Y-86129777D01*
X112459296Y-86094138D01*
X112447565Y-86055468D01*
X112443000Y-86009112D01*
X112443000Y-84932888D01*
X112447565Y-84886532D01*
X112459296Y-84847862D01*
X112478346Y-84812223D01*
X112503983Y-84780983D01*
X112535223Y-84755346D01*
X112570862Y-84736296D01*
X112609532Y-84724565D01*
X112655888Y-84720000D01*
X113307112Y-84720000D01*
X113353468Y-84724565D01*
X113353468Y-84724565D01*
G37*
G36*
X103440591Y-84314085D02*
G01*
X103474569Y-84324393D01*
X103505890Y-84341134D01*
X103533339Y-84363661D01*
X103555866Y-84391110D01*
X103572607Y-84422431D01*
X103582915Y-84456409D01*
X103587000Y-84497890D01*
X103587000Y-85174110D01*
X103582915Y-85215591D01*
X103572607Y-85249569D01*
X103555866Y-85280890D01*
X103533339Y-85308339D01*
X103505890Y-85330866D01*
X103474569Y-85347607D01*
X103440591Y-85357915D01*
X103399110Y-85362000D01*
X102797890Y-85362000D01*
X102756409Y-85357915D01*
X102722431Y-85347607D01*
X102691110Y-85330866D01*
X102663661Y-85308339D01*
X102641134Y-85280890D01*
X102624393Y-85249569D01*
X102614085Y-85215591D01*
X102610000Y-85174110D01*
X102610000Y-84497890D01*
X102614085Y-84456409D01*
X102624393Y-84422431D01*
X102641134Y-84391110D01*
X102663661Y-84363661D01*
X102691110Y-84341134D01*
X102722431Y-84324393D01*
X102756409Y-84314085D01*
X102797890Y-84310000D01*
X103399110Y-84310000D01*
X103440591Y-84314085D01*
X103440591Y-84314085D01*
G37*
G36*
X105015591Y-84314085D02*
G01*
X105049569Y-84324393D01*
X105080890Y-84341134D01*
X105108339Y-84363661D01*
X105130866Y-84391110D01*
X105147607Y-84422431D01*
X105157915Y-84456409D01*
X105162000Y-84497890D01*
X105162000Y-85174110D01*
X105157915Y-85215591D01*
X105147607Y-85249569D01*
X105130866Y-85280890D01*
X105108339Y-85308339D01*
X105080890Y-85330866D01*
X105049569Y-85347607D01*
X105015591Y-85357915D01*
X104974110Y-85362000D01*
X104372890Y-85362000D01*
X104331409Y-85357915D01*
X104297431Y-85347607D01*
X104266110Y-85330866D01*
X104238661Y-85308339D01*
X104216134Y-85280890D01*
X104199393Y-85249569D01*
X104189085Y-85215591D01*
X104185000Y-85174110D01*
X104185000Y-84497890D01*
X104189085Y-84456409D01*
X104199393Y-84422431D01*
X104216134Y-84391110D01*
X104238661Y-84363661D01*
X104266110Y-84341134D01*
X104297431Y-84324393D01*
X104331409Y-84314085D01*
X104372890Y-84310000D01*
X104974110Y-84310000D01*
X105015591Y-84314085D01*
X105015591Y-84314085D01*
G37*
G36*
X123046142Y-82807742D02*
G01*
X123194101Y-82869029D01*
X123327255Y-82957999D01*
X123440501Y-83071245D01*
X123529471Y-83204399D01*
X123590758Y-83352358D01*
X123622000Y-83509425D01*
X123622000Y-83669575D01*
X123590758Y-83826642D01*
X123529471Y-83974601D01*
X123440501Y-84107755D01*
X123327255Y-84221001D01*
X123194101Y-84309971D01*
X123046142Y-84371258D01*
X122889075Y-84402500D01*
X122728925Y-84402500D01*
X122571858Y-84371258D01*
X122423899Y-84309971D01*
X122290745Y-84221001D01*
X122177499Y-84107755D01*
X122088529Y-83974601D01*
X122027242Y-83826642D01*
X121996000Y-83669575D01*
X121996000Y-83509425D01*
X122027242Y-83352358D01*
X122088529Y-83204399D01*
X122177499Y-83071245D01*
X122290745Y-82957999D01*
X122423899Y-82869029D01*
X122571858Y-82807742D01*
X122728925Y-82776500D01*
X122889075Y-82776500D01*
X123046142Y-82807742D01*
X123046142Y-82807742D01*
G37*
G36*
X200114331Y-80679211D02*
G01*
X200442092Y-80814974D01*
X200737070Y-81012072D01*
X200987928Y-81262930D01*
X201185026Y-81557908D01*
X201320789Y-81885669D01*
X201390000Y-82233616D01*
X201390000Y-82588384D01*
X201320789Y-82936331D01*
X201185026Y-83264092D01*
X200987928Y-83559070D01*
X200737070Y-83809928D01*
X200442092Y-84007026D01*
X200114331Y-84142789D01*
X199766384Y-84212000D01*
X199411616Y-84212000D01*
X199063669Y-84142789D01*
X198735908Y-84007026D01*
X198440930Y-83809928D01*
X198190072Y-83559070D01*
X197992974Y-83264092D01*
X197857211Y-82936331D01*
X197788000Y-82588384D01*
X197788000Y-82233616D01*
X197857211Y-81885669D01*
X197992974Y-81557908D01*
X198190072Y-81262930D01*
X198440930Y-81012072D01*
X198735908Y-80814974D01*
X199063669Y-80679211D01*
X199411616Y-80610000D01*
X199766384Y-80610000D01*
X200114331Y-80679211D01*
X200114331Y-80679211D01*
G37*
G36*
X51114331Y-80679211D02*
G01*
X51442092Y-80814974D01*
X51737070Y-81012072D01*
X51987928Y-81262930D01*
X52185026Y-81557908D01*
X52320789Y-81885669D01*
X52390000Y-82233616D01*
X52390000Y-82588384D01*
X52320789Y-82936331D01*
X52185026Y-83264092D01*
X51987928Y-83559070D01*
X51737070Y-83809928D01*
X51442092Y-84007026D01*
X51114331Y-84142789D01*
X50766384Y-84212000D01*
X50411616Y-84212000D01*
X50063669Y-84142789D01*
X49735908Y-84007026D01*
X49440930Y-83809928D01*
X49190072Y-83559070D01*
X48992974Y-83264092D01*
X48857211Y-82936331D01*
X48788000Y-82588384D01*
X48788000Y-82233616D01*
X48857211Y-81885669D01*
X48992974Y-81557908D01*
X49190072Y-81262930D01*
X49440930Y-81012072D01*
X49735908Y-80814974D01*
X50063669Y-80679211D01*
X50411616Y-80610000D01*
X50766384Y-80610000D01*
X51114331Y-80679211D01*
X51114331Y-80679211D01*
G37*
G36*
X138833000Y-84050000D02*
G01*
X136531000Y-84050000D01*
X136531000Y-77748000D01*
X138833000Y-77748000D01*
X138833000Y-84050000D01*
X138833000Y-84050000D01*
G37*
G36*
X146933000Y-84050000D02*
G01*
X144631000Y-84050000D01*
X144631000Y-77748000D01*
X146933000Y-77748000D01*
X146933000Y-84050000D01*
X146933000Y-84050000D01*
G37*
G36*
X103975000Y-83619000D02*
G01*
X102273000Y-83619000D01*
X102273000Y-81917000D01*
X103975000Y-81917000D01*
X103975000Y-83619000D01*
X103975000Y-83619000D01*
G37*
G36*
X109162468Y-82057565D02*
G01*
X109201138Y-82069296D01*
X109236777Y-82088346D01*
X109268017Y-82113983D01*
X109293654Y-82145223D01*
X109312704Y-82180862D01*
X109324435Y-82219532D01*
X109329000Y-82265888D01*
X109329000Y-83342112D01*
X109324435Y-83388468D01*
X109312704Y-83427138D01*
X109293654Y-83462777D01*
X109268017Y-83494017D01*
X109236777Y-83519654D01*
X109201138Y-83538704D01*
X109162468Y-83550435D01*
X109116112Y-83555000D01*
X108464888Y-83555000D01*
X108418532Y-83550435D01*
X108379862Y-83538704D01*
X108344223Y-83519654D01*
X108312983Y-83494017D01*
X108287346Y-83462777D01*
X108268296Y-83427138D01*
X108256565Y-83388468D01*
X108252000Y-83342112D01*
X108252000Y-82265888D01*
X108256565Y-82219532D01*
X108268296Y-82180862D01*
X108287346Y-82145223D01*
X108312983Y-82113983D01*
X108344223Y-82088346D01*
X108379862Y-82069296D01*
X108418532Y-82057565D01*
X108464888Y-82053000D01*
X109116112Y-82053000D01*
X109162468Y-82057565D01*
X109162468Y-82057565D01*
G37*
G36*
X111037468Y-82057565D02*
G01*
X111076138Y-82069296D01*
X111111777Y-82088346D01*
X111143017Y-82113983D01*
X111168654Y-82145223D01*
X111187704Y-82180862D01*
X111199435Y-82219532D01*
X111204000Y-82265888D01*
X111204000Y-83342112D01*
X111199435Y-83388468D01*
X111187704Y-83427138D01*
X111168654Y-83462777D01*
X111143017Y-83494017D01*
X111111777Y-83519654D01*
X111076138Y-83538704D01*
X111037468Y-83550435D01*
X110991112Y-83555000D01*
X110339888Y-83555000D01*
X110293532Y-83550435D01*
X110254862Y-83538704D01*
X110219223Y-83519654D01*
X110187983Y-83494017D01*
X110162346Y-83462777D01*
X110143296Y-83427138D01*
X110131565Y-83388468D01*
X110127000Y-83342112D01*
X110127000Y-82265888D01*
X110131565Y-82219532D01*
X110143296Y-82180862D01*
X110162346Y-82145223D01*
X110187983Y-82113983D01*
X110219223Y-82088346D01*
X110254862Y-82069296D01*
X110293532Y-82057565D01*
X110339888Y-82053000D01*
X110991112Y-82053000D01*
X111037468Y-82057565D01*
X111037468Y-82057565D01*
G37*
G36*
X191104118Y-81633420D02*
G01*
X191184900Y-81657925D01*
X191226836Y-81670646D01*
X191339925Y-81731094D01*
X191439054Y-81812446D01*
X191520406Y-81911575D01*
X191580854Y-82024664D01*
X191580855Y-82024668D01*
X191618080Y-82147382D01*
X191618080Y-82147384D01*
X191625155Y-82219212D01*
X191627500Y-82243027D01*
X191627500Y-82856973D01*
X191618080Y-82952618D01*
X191616447Y-82958001D01*
X191580854Y-83075336D01*
X191520406Y-83188425D01*
X191439054Y-83287553D01*
X191339924Y-83368906D01*
X191226835Y-83429354D01*
X191207111Y-83435337D01*
X191104117Y-83466580D01*
X190976500Y-83479149D01*
X190848882Y-83466580D01*
X190745888Y-83435337D01*
X190726164Y-83429354D01*
X190613075Y-83368906D01*
X190513947Y-83287554D01*
X190432594Y-83188424D01*
X190372146Y-83075335D01*
X190362460Y-83043403D01*
X190334920Y-82952617D01*
X190325500Y-82856972D01*
X190325500Y-82243027D01*
X190327846Y-82219212D01*
X190334920Y-82147384D01*
X190334920Y-82147382D01*
X190362166Y-82057565D01*
X190372145Y-82024667D01*
X190429695Y-81917000D01*
X190432595Y-81911574D01*
X190453856Y-81885668D01*
X190513947Y-81812446D01*
X190613076Y-81731094D01*
X190726165Y-81670646D01*
X190768101Y-81657925D01*
X190848883Y-81633420D01*
X190976500Y-81620851D01*
X191104118Y-81633420D01*
X191104118Y-81633420D01*
G37*
G36*
X95409618Y-81633420D02*
G01*
X95490400Y-81657925D01*
X95532336Y-81670646D01*
X95645425Y-81731094D01*
X95744554Y-81812446D01*
X95825906Y-81911575D01*
X95886354Y-82024664D01*
X95886355Y-82024668D01*
X95923580Y-82147382D01*
X95923580Y-82147384D01*
X95930655Y-82219212D01*
X95933000Y-82243027D01*
X95933000Y-82856973D01*
X95923580Y-82952618D01*
X95921947Y-82958001D01*
X95886354Y-83075336D01*
X95825906Y-83188425D01*
X95744554Y-83287553D01*
X95645424Y-83368906D01*
X95532335Y-83429354D01*
X95512611Y-83435337D01*
X95409617Y-83466580D01*
X95282000Y-83479149D01*
X95154382Y-83466580D01*
X95051388Y-83435337D01*
X95031664Y-83429354D01*
X94918575Y-83368906D01*
X94819447Y-83287554D01*
X94738094Y-83188424D01*
X94677646Y-83075335D01*
X94667960Y-83043403D01*
X94640420Y-82952617D01*
X94631000Y-82856972D01*
X94631000Y-82243027D01*
X94633346Y-82219212D01*
X94640420Y-82147384D01*
X94640420Y-82147382D01*
X94667666Y-82057565D01*
X94677645Y-82024667D01*
X94735195Y-81917000D01*
X94738095Y-81911574D01*
X94759356Y-81885668D01*
X94819447Y-81812446D01*
X94918576Y-81731094D01*
X95031665Y-81670646D01*
X95073601Y-81657925D01*
X95154383Y-81633420D01*
X95282000Y-81620851D01*
X95409618Y-81633420D01*
X95409618Y-81633420D01*
G37*
G36*
X93409618Y-81633420D02*
G01*
X93490400Y-81657925D01*
X93532336Y-81670646D01*
X93645425Y-81731094D01*
X93744554Y-81812446D01*
X93825906Y-81911575D01*
X93886354Y-82024664D01*
X93886355Y-82024668D01*
X93923580Y-82147382D01*
X93923580Y-82147384D01*
X93930655Y-82219212D01*
X93933000Y-82243027D01*
X93933000Y-82856973D01*
X93923580Y-82952618D01*
X93921947Y-82958001D01*
X93886354Y-83075336D01*
X93825906Y-83188425D01*
X93744554Y-83287553D01*
X93645424Y-83368906D01*
X93532335Y-83429354D01*
X93512611Y-83435337D01*
X93409617Y-83466580D01*
X93282000Y-83479149D01*
X93154382Y-83466580D01*
X93051388Y-83435337D01*
X93031664Y-83429354D01*
X92918575Y-83368906D01*
X92819447Y-83287554D01*
X92738094Y-83188424D01*
X92677646Y-83075335D01*
X92667960Y-83043403D01*
X92640420Y-82952617D01*
X92631000Y-82856972D01*
X92631000Y-82243027D01*
X92633346Y-82219212D01*
X92640420Y-82147384D01*
X92640420Y-82147382D01*
X92667666Y-82057565D01*
X92677645Y-82024667D01*
X92735195Y-81917000D01*
X92738095Y-81911574D01*
X92759356Y-81885668D01*
X92819447Y-81812446D01*
X92918576Y-81731094D01*
X93031665Y-81670646D01*
X93073601Y-81657925D01*
X93154383Y-81633420D01*
X93282000Y-81620851D01*
X93409618Y-81633420D01*
X93409618Y-81633420D01*
G37*
G36*
X91409618Y-81633420D02*
G01*
X91490400Y-81657925D01*
X91532336Y-81670646D01*
X91645425Y-81731094D01*
X91744554Y-81812446D01*
X91825906Y-81911575D01*
X91886354Y-82024664D01*
X91886355Y-82024668D01*
X91923580Y-82147382D01*
X91923580Y-82147384D01*
X91930655Y-82219212D01*
X91933000Y-82243027D01*
X91933000Y-82856973D01*
X91923580Y-82952618D01*
X91921947Y-82958001D01*
X91886354Y-83075336D01*
X91825906Y-83188425D01*
X91744554Y-83287553D01*
X91645424Y-83368906D01*
X91532335Y-83429354D01*
X91512611Y-83435337D01*
X91409617Y-83466580D01*
X91282000Y-83479149D01*
X91154382Y-83466580D01*
X91051388Y-83435337D01*
X91031664Y-83429354D01*
X90918575Y-83368906D01*
X90819447Y-83287554D01*
X90738094Y-83188424D01*
X90677646Y-83075335D01*
X90667960Y-83043403D01*
X90640420Y-82952617D01*
X90631000Y-82856972D01*
X90631000Y-82243027D01*
X90633346Y-82219212D01*
X90640420Y-82147384D01*
X90640420Y-82147382D01*
X90667666Y-82057565D01*
X90677645Y-82024667D01*
X90735195Y-81917000D01*
X90738095Y-81911574D01*
X90759356Y-81885668D01*
X90819447Y-81812446D01*
X90918576Y-81731094D01*
X91031665Y-81670646D01*
X91073601Y-81657925D01*
X91154383Y-81633420D01*
X91282000Y-81620851D01*
X91409618Y-81633420D01*
X91409618Y-81633420D01*
G37*
G36*
X89409618Y-81633420D02*
G01*
X89490400Y-81657925D01*
X89532336Y-81670646D01*
X89645425Y-81731094D01*
X89744554Y-81812446D01*
X89825906Y-81911575D01*
X89886354Y-82024664D01*
X89886355Y-82024668D01*
X89923580Y-82147382D01*
X89923580Y-82147384D01*
X89930655Y-82219212D01*
X89933000Y-82243027D01*
X89933000Y-82856973D01*
X89923580Y-82952618D01*
X89921947Y-82958001D01*
X89886354Y-83075336D01*
X89825906Y-83188425D01*
X89744554Y-83287553D01*
X89645424Y-83368906D01*
X89532335Y-83429354D01*
X89512611Y-83435337D01*
X89409617Y-83466580D01*
X89282000Y-83479149D01*
X89154382Y-83466580D01*
X89051388Y-83435337D01*
X89031664Y-83429354D01*
X88918575Y-83368906D01*
X88819447Y-83287554D01*
X88738094Y-83188424D01*
X88677646Y-83075335D01*
X88667960Y-83043403D01*
X88640420Y-82952617D01*
X88631000Y-82856972D01*
X88631000Y-82243027D01*
X88633346Y-82219212D01*
X88640420Y-82147384D01*
X88640420Y-82147382D01*
X88667666Y-82057565D01*
X88677645Y-82024667D01*
X88735195Y-81917000D01*
X88738095Y-81911574D01*
X88759356Y-81885668D01*
X88819447Y-81812446D01*
X88918576Y-81731094D01*
X89031665Y-81670646D01*
X89073601Y-81657925D01*
X89154383Y-81633420D01*
X89282000Y-81620851D01*
X89409618Y-81633420D01*
X89409618Y-81633420D01*
G37*
G36*
X87409618Y-81633420D02*
G01*
X87490400Y-81657925D01*
X87532336Y-81670646D01*
X87645425Y-81731094D01*
X87744554Y-81812446D01*
X87825906Y-81911575D01*
X87886354Y-82024664D01*
X87886355Y-82024668D01*
X87923580Y-82147382D01*
X87923580Y-82147384D01*
X87930655Y-82219212D01*
X87933000Y-82243027D01*
X87933000Y-82856973D01*
X87923580Y-82952618D01*
X87921947Y-82958001D01*
X87886354Y-83075336D01*
X87825906Y-83188425D01*
X87744554Y-83287553D01*
X87645424Y-83368906D01*
X87532335Y-83429354D01*
X87512611Y-83435337D01*
X87409617Y-83466580D01*
X87282000Y-83479149D01*
X87154382Y-83466580D01*
X87051388Y-83435337D01*
X87031664Y-83429354D01*
X86918575Y-83368906D01*
X86819447Y-83287554D01*
X86738094Y-83188424D01*
X86677646Y-83075335D01*
X86667960Y-83043403D01*
X86640420Y-82952617D01*
X86631000Y-82856972D01*
X86631000Y-82243027D01*
X86633346Y-82219212D01*
X86640420Y-82147384D01*
X86640420Y-82147382D01*
X86667666Y-82057565D01*
X86677645Y-82024667D01*
X86735195Y-81917000D01*
X86738095Y-81911574D01*
X86759356Y-81885668D01*
X86819447Y-81812446D01*
X86918576Y-81731094D01*
X87031665Y-81670646D01*
X87073601Y-81657925D01*
X87154383Y-81633420D01*
X87282000Y-81620851D01*
X87409618Y-81633420D01*
X87409618Y-81633420D01*
G37*
G36*
X85409618Y-81633420D02*
G01*
X85490400Y-81657925D01*
X85532336Y-81670646D01*
X85645425Y-81731094D01*
X85744554Y-81812446D01*
X85825906Y-81911575D01*
X85886354Y-82024664D01*
X85886355Y-82024668D01*
X85923580Y-82147382D01*
X85923580Y-82147384D01*
X85930655Y-82219212D01*
X85933000Y-82243027D01*
X85933000Y-82856973D01*
X85923580Y-82952618D01*
X85921947Y-82958001D01*
X85886354Y-83075336D01*
X85825906Y-83188425D01*
X85744554Y-83287553D01*
X85645424Y-83368906D01*
X85532335Y-83429354D01*
X85512611Y-83435337D01*
X85409617Y-83466580D01*
X85282000Y-83479149D01*
X85154382Y-83466580D01*
X85051388Y-83435337D01*
X85031664Y-83429354D01*
X84918575Y-83368906D01*
X84819447Y-83287554D01*
X84738094Y-83188424D01*
X84677646Y-83075335D01*
X84667960Y-83043403D01*
X84640420Y-82952617D01*
X84631000Y-82856972D01*
X84631000Y-82243027D01*
X84633346Y-82219212D01*
X84640420Y-82147384D01*
X84640420Y-82147382D01*
X84667666Y-82057565D01*
X84677645Y-82024667D01*
X84735195Y-81917000D01*
X84738095Y-81911574D01*
X84759356Y-81885668D01*
X84819447Y-81812446D01*
X84918576Y-81731094D01*
X85031665Y-81670646D01*
X85073601Y-81657925D01*
X85154383Y-81633420D01*
X85282000Y-81620851D01*
X85409618Y-81633420D01*
X85409618Y-81633420D01*
G37*
G36*
X189104118Y-81633420D02*
G01*
X189184900Y-81657925D01*
X189226836Y-81670646D01*
X189339925Y-81731094D01*
X189439054Y-81812446D01*
X189520406Y-81911575D01*
X189580854Y-82024664D01*
X189580855Y-82024668D01*
X189618080Y-82147382D01*
X189618080Y-82147384D01*
X189625155Y-82219212D01*
X189627500Y-82243027D01*
X189627500Y-82856973D01*
X189618080Y-82952618D01*
X189616447Y-82958001D01*
X189580854Y-83075336D01*
X189520406Y-83188425D01*
X189439054Y-83287553D01*
X189339924Y-83368906D01*
X189226835Y-83429354D01*
X189207111Y-83435337D01*
X189104117Y-83466580D01*
X188976500Y-83479149D01*
X188848882Y-83466580D01*
X188745888Y-83435337D01*
X188726164Y-83429354D01*
X188613075Y-83368906D01*
X188513947Y-83287554D01*
X188432594Y-83188424D01*
X188372146Y-83075335D01*
X188362460Y-83043403D01*
X188334920Y-82952617D01*
X188325500Y-82856972D01*
X188325500Y-82243027D01*
X188327846Y-82219212D01*
X188334920Y-82147384D01*
X188334920Y-82147382D01*
X188362166Y-82057565D01*
X188372145Y-82024667D01*
X188429695Y-81917000D01*
X188432595Y-81911574D01*
X188453856Y-81885668D01*
X188513947Y-81812446D01*
X188613076Y-81731094D01*
X188726165Y-81670646D01*
X188768101Y-81657925D01*
X188848883Y-81633420D01*
X188976500Y-81620851D01*
X189104118Y-81633420D01*
X189104118Y-81633420D01*
G37*
G36*
X187104118Y-81633420D02*
G01*
X187184900Y-81657925D01*
X187226836Y-81670646D01*
X187339925Y-81731094D01*
X187439054Y-81812446D01*
X187520406Y-81911575D01*
X187580854Y-82024664D01*
X187580855Y-82024668D01*
X187618080Y-82147382D01*
X187618080Y-82147384D01*
X187625155Y-82219212D01*
X187627500Y-82243027D01*
X187627500Y-82856973D01*
X187618080Y-82952618D01*
X187616447Y-82958001D01*
X187580854Y-83075336D01*
X187520406Y-83188425D01*
X187439054Y-83287553D01*
X187339924Y-83368906D01*
X187226835Y-83429354D01*
X187207111Y-83435337D01*
X187104117Y-83466580D01*
X186976500Y-83479149D01*
X186848882Y-83466580D01*
X186745888Y-83435337D01*
X186726164Y-83429354D01*
X186613075Y-83368906D01*
X186513947Y-83287554D01*
X186432594Y-83188424D01*
X186372146Y-83075335D01*
X186362460Y-83043403D01*
X186334920Y-82952617D01*
X186325500Y-82856972D01*
X186325500Y-82243027D01*
X186327846Y-82219212D01*
X186334920Y-82147384D01*
X186334920Y-82147382D01*
X186362166Y-82057565D01*
X186372145Y-82024667D01*
X186429695Y-81917000D01*
X186432595Y-81911574D01*
X186453856Y-81885668D01*
X186513947Y-81812446D01*
X186613076Y-81731094D01*
X186726165Y-81670646D01*
X186768101Y-81657925D01*
X186848883Y-81633420D01*
X186976500Y-81620851D01*
X187104118Y-81633420D01*
X187104118Y-81633420D01*
G37*
G36*
X185104118Y-81633420D02*
G01*
X185184900Y-81657925D01*
X185226836Y-81670646D01*
X185339925Y-81731094D01*
X185439054Y-81812446D01*
X185520406Y-81911575D01*
X185580854Y-82024664D01*
X185580855Y-82024668D01*
X185618080Y-82147382D01*
X185618080Y-82147384D01*
X185625155Y-82219212D01*
X185627500Y-82243027D01*
X185627500Y-82856973D01*
X185618080Y-82952618D01*
X185616447Y-82958001D01*
X185580854Y-83075336D01*
X185520406Y-83188425D01*
X185439054Y-83287553D01*
X185339924Y-83368906D01*
X185226835Y-83429354D01*
X185207111Y-83435337D01*
X185104117Y-83466580D01*
X184976500Y-83479149D01*
X184848882Y-83466580D01*
X184745888Y-83435337D01*
X184726164Y-83429354D01*
X184613075Y-83368906D01*
X184513947Y-83287554D01*
X184432594Y-83188424D01*
X184372146Y-83075335D01*
X184362460Y-83043403D01*
X184334920Y-82952617D01*
X184325500Y-82856972D01*
X184325500Y-82243027D01*
X184327846Y-82219212D01*
X184334920Y-82147384D01*
X184334920Y-82147382D01*
X184362166Y-82057565D01*
X184372145Y-82024667D01*
X184429695Y-81917000D01*
X184432595Y-81911574D01*
X184453856Y-81885668D01*
X184513947Y-81812446D01*
X184613076Y-81731094D01*
X184726165Y-81670646D01*
X184768101Y-81657925D01*
X184848883Y-81633420D01*
X184976500Y-81620851D01*
X185104118Y-81633420D01*
X185104118Y-81633420D01*
G37*
G36*
X183104118Y-81633420D02*
G01*
X183184900Y-81657925D01*
X183226836Y-81670646D01*
X183339925Y-81731094D01*
X183439054Y-81812446D01*
X183520406Y-81911575D01*
X183580854Y-82024664D01*
X183580855Y-82024668D01*
X183618080Y-82147382D01*
X183618080Y-82147384D01*
X183625155Y-82219212D01*
X183627500Y-82243027D01*
X183627500Y-82856973D01*
X183618080Y-82952618D01*
X183616447Y-82958001D01*
X183580854Y-83075336D01*
X183520406Y-83188425D01*
X183439054Y-83287553D01*
X183339924Y-83368906D01*
X183226835Y-83429354D01*
X183207111Y-83435337D01*
X183104117Y-83466580D01*
X182976500Y-83479149D01*
X182848882Y-83466580D01*
X182745888Y-83435337D01*
X182726164Y-83429354D01*
X182613075Y-83368906D01*
X182513947Y-83287554D01*
X182432594Y-83188424D01*
X182372146Y-83075335D01*
X182362460Y-83043403D01*
X182334920Y-82952617D01*
X182325500Y-82856972D01*
X182325500Y-82243027D01*
X182327846Y-82219212D01*
X182334920Y-82147384D01*
X182334920Y-82147382D01*
X182362166Y-82057565D01*
X182372145Y-82024667D01*
X182429695Y-81917000D01*
X182432595Y-81911574D01*
X182453856Y-81885668D01*
X182513947Y-81812446D01*
X182613076Y-81731094D01*
X182726165Y-81670646D01*
X182768101Y-81657925D01*
X182848883Y-81633420D01*
X182976500Y-81620851D01*
X183104118Y-81633420D01*
X183104118Y-81633420D01*
G37*
G36*
X97773242Y-81628404D02*
G01*
X97810337Y-81639657D01*
X97844515Y-81657925D01*
X97874481Y-81682519D01*
X97899075Y-81712485D01*
X97917343Y-81746663D01*
X97928596Y-81783758D01*
X97933000Y-81828474D01*
X97933000Y-83271526D01*
X97928596Y-83316242D01*
X97917343Y-83353337D01*
X97899075Y-83387515D01*
X97874481Y-83417481D01*
X97844515Y-83442075D01*
X97810337Y-83460343D01*
X97773242Y-83471596D01*
X97728526Y-83476000D01*
X96835474Y-83476000D01*
X96790758Y-83471596D01*
X96753663Y-83460343D01*
X96719485Y-83442075D01*
X96689519Y-83417481D01*
X96664925Y-83387515D01*
X96646657Y-83353337D01*
X96635404Y-83316242D01*
X96631000Y-83271526D01*
X96631000Y-81828474D01*
X96635404Y-81783758D01*
X96646657Y-81746663D01*
X96664925Y-81712485D01*
X96689519Y-81682519D01*
X96719485Y-81657925D01*
X96753663Y-81639657D01*
X96790758Y-81628404D01*
X96835474Y-81624000D01*
X97728526Y-81624000D01*
X97773242Y-81628404D01*
X97773242Y-81628404D01*
G37*
G36*
X193467742Y-81628404D02*
G01*
X193504837Y-81639657D01*
X193539015Y-81657925D01*
X193568981Y-81682519D01*
X193593575Y-81712485D01*
X193611843Y-81746663D01*
X193623096Y-81783758D01*
X193627500Y-81828474D01*
X193627500Y-83271526D01*
X193623096Y-83316242D01*
X193611843Y-83353337D01*
X193593575Y-83387515D01*
X193568981Y-83417481D01*
X193539015Y-83442075D01*
X193504837Y-83460343D01*
X193467742Y-83471596D01*
X193423026Y-83476000D01*
X192529974Y-83476000D01*
X192485258Y-83471596D01*
X192448163Y-83460343D01*
X192413985Y-83442075D01*
X192384019Y-83417481D01*
X192359425Y-83387515D01*
X192341157Y-83353337D01*
X192329904Y-83316242D01*
X192325500Y-83271526D01*
X192325500Y-81828474D01*
X192329904Y-81783758D01*
X192341157Y-81746663D01*
X192359425Y-81712485D01*
X192384019Y-81682519D01*
X192413985Y-81657925D01*
X192448163Y-81639657D01*
X192485258Y-81628404D01*
X192529974Y-81624000D01*
X193423026Y-81624000D01*
X193467742Y-81628404D01*
X193467742Y-81628404D01*
G37*
G36*
X112647591Y-81329085D02*
G01*
X112681569Y-81339393D01*
X112712890Y-81356134D01*
X112740339Y-81378661D01*
X112762866Y-81406110D01*
X112779607Y-81437431D01*
X112789915Y-81471409D01*
X112794000Y-81512890D01*
X112794000Y-82114110D01*
X112789915Y-82155591D01*
X112779607Y-82189569D01*
X112762866Y-82220890D01*
X112740339Y-82248339D01*
X112712890Y-82270866D01*
X112681569Y-82287607D01*
X112647591Y-82297915D01*
X112606110Y-82302000D01*
X111929890Y-82302000D01*
X111888409Y-82297915D01*
X111854431Y-82287607D01*
X111823110Y-82270866D01*
X111795661Y-82248339D01*
X111773134Y-82220890D01*
X111756393Y-82189569D01*
X111746085Y-82155591D01*
X111742000Y-82114110D01*
X111742000Y-81512890D01*
X111746085Y-81471409D01*
X111756393Y-81437431D01*
X111773134Y-81406110D01*
X111795661Y-81378661D01*
X111823110Y-81356134D01*
X111854431Y-81339393D01*
X111888409Y-81329085D01*
X111929890Y-81325000D01*
X112606110Y-81325000D01*
X112647591Y-81329085D01*
X112647591Y-81329085D01*
G37*
G36*
X171470968Y-80533565D02*
G01*
X171509638Y-80545296D01*
X171545277Y-80564346D01*
X171576517Y-80589983D01*
X171602154Y-80621223D01*
X171621204Y-80656862D01*
X171632935Y-80695532D01*
X171637500Y-80741888D01*
X171637500Y-81818112D01*
X171632935Y-81864468D01*
X171621204Y-81903138D01*
X171602154Y-81938777D01*
X171576517Y-81970017D01*
X171545277Y-81995654D01*
X171509638Y-82014704D01*
X171470968Y-82026435D01*
X171424612Y-82031000D01*
X170773388Y-82031000D01*
X170727032Y-82026435D01*
X170688362Y-82014704D01*
X170652723Y-81995654D01*
X170621483Y-81970017D01*
X170595846Y-81938777D01*
X170576796Y-81903138D01*
X170565065Y-81864468D01*
X170560500Y-81818112D01*
X170560500Y-80741888D01*
X170565065Y-80695532D01*
X170576796Y-80656862D01*
X170595846Y-80621223D01*
X170621483Y-80589983D01*
X170652723Y-80564346D01*
X170688362Y-80545296D01*
X170727032Y-80533565D01*
X170773388Y-80529000D01*
X171424612Y-80529000D01*
X171470968Y-80533565D01*
X171470968Y-80533565D01*
G37*
G36*
X177077468Y-80533565D02*
G01*
X177116138Y-80545296D01*
X177151777Y-80564346D01*
X177183017Y-80589983D01*
X177208654Y-80621223D01*
X177227704Y-80656862D01*
X177239435Y-80695532D01*
X177244000Y-80741888D01*
X177244000Y-81818112D01*
X177239435Y-81864468D01*
X177227704Y-81903138D01*
X177208654Y-81938777D01*
X177183017Y-81970017D01*
X177151777Y-81995654D01*
X177116138Y-82014704D01*
X177077468Y-82026435D01*
X177031112Y-82031000D01*
X176379888Y-82031000D01*
X176333532Y-82026435D01*
X176294862Y-82014704D01*
X176259223Y-81995654D01*
X176227983Y-81970017D01*
X176202346Y-81938777D01*
X176183296Y-81903138D01*
X176171565Y-81864468D01*
X176167000Y-81818112D01*
X176167000Y-80741888D01*
X176171565Y-80695532D01*
X176183296Y-80656862D01*
X176202346Y-80621223D01*
X176227983Y-80589983D01*
X176259223Y-80564346D01*
X176294862Y-80545296D01*
X176333532Y-80533565D01*
X176379888Y-80529000D01*
X177031112Y-80529000D01*
X177077468Y-80533565D01*
X177077468Y-80533565D01*
G37*
G36*
X173345968Y-80533565D02*
G01*
X173384638Y-80545296D01*
X173420277Y-80564346D01*
X173451517Y-80589983D01*
X173477154Y-80621223D01*
X173496204Y-80656862D01*
X173507935Y-80695532D01*
X173512500Y-80741888D01*
X173512500Y-81818112D01*
X173507935Y-81864468D01*
X173496204Y-81903138D01*
X173477154Y-81938777D01*
X173451517Y-81970017D01*
X173420277Y-81995654D01*
X173384638Y-82014704D01*
X173345968Y-82026435D01*
X173299612Y-82031000D01*
X172648388Y-82031000D01*
X172602032Y-82026435D01*
X172563362Y-82014704D01*
X172527723Y-81995654D01*
X172496483Y-81970017D01*
X172470846Y-81938777D01*
X172451796Y-81903138D01*
X172440065Y-81864468D01*
X172435500Y-81818112D01*
X172435500Y-80741888D01*
X172440065Y-80695532D01*
X172451796Y-80656862D01*
X172470846Y-80621223D01*
X172496483Y-80589983D01*
X172527723Y-80564346D01*
X172563362Y-80545296D01*
X172602032Y-80533565D01*
X172648388Y-80529000D01*
X173299612Y-80529000D01*
X173345968Y-80533565D01*
X173345968Y-80533565D01*
G37*
G36*
X175202468Y-80533565D02*
G01*
X175241138Y-80545296D01*
X175276777Y-80564346D01*
X175308017Y-80589983D01*
X175333654Y-80621223D01*
X175352704Y-80656862D01*
X175364435Y-80695532D01*
X175369000Y-80741888D01*
X175369000Y-81818112D01*
X175364435Y-81864468D01*
X175352704Y-81903138D01*
X175333654Y-81938777D01*
X175308017Y-81970017D01*
X175276777Y-81995654D01*
X175241138Y-82014704D01*
X175202468Y-82026435D01*
X175156112Y-82031000D01*
X174504888Y-82031000D01*
X174458532Y-82026435D01*
X174419862Y-82014704D01*
X174384223Y-81995654D01*
X174352983Y-81970017D01*
X174327346Y-81938777D01*
X174308296Y-81903138D01*
X174296565Y-81864468D01*
X174292000Y-81818112D01*
X174292000Y-80741888D01*
X174296565Y-80695532D01*
X174308296Y-80656862D01*
X174327346Y-80621223D01*
X174352983Y-80589983D01*
X174384223Y-80564346D01*
X174419862Y-80545296D01*
X174458532Y-80533565D01*
X174504888Y-80529000D01*
X175156112Y-80529000D01*
X175202468Y-80533565D01*
X175202468Y-80533565D01*
G37*
G36*
X109190000Y-81504000D02*
G01*
X108488000Y-81504000D01*
X108488000Y-79852000D01*
X109190000Y-79852000D01*
X109190000Y-81504000D01*
X109190000Y-81504000D01*
G37*
G36*
X107920000Y-81504000D02*
G01*
X107218000Y-81504000D01*
X107218000Y-79852000D01*
X107920000Y-79852000D01*
X107920000Y-81504000D01*
X107920000Y-81504000D01*
G37*
G36*
X106650000Y-81504000D02*
G01*
X105948000Y-81504000D01*
X105948000Y-79852000D01*
X106650000Y-79852000D01*
X106650000Y-81504000D01*
X106650000Y-81504000D01*
G37*
G36*
X110460000Y-81504000D02*
G01*
X109758000Y-81504000D01*
X109758000Y-79852000D01*
X110460000Y-79852000D01*
X110460000Y-81504000D01*
X110460000Y-81504000D01*
G37*
G36*
X112647591Y-79754085D02*
G01*
X112681569Y-79764393D01*
X112712890Y-79781134D01*
X112740339Y-79803661D01*
X112762866Y-79831110D01*
X112779607Y-79862431D01*
X112789915Y-79896409D01*
X112794000Y-79937890D01*
X112794000Y-80539110D01*
X112789915Y-80580591D01*
X112779607Y-80614569D01*
X112762866Y-80645890D01*
X112740339Y-80673339D01*
X112712890Y-80695866D01*
X112681569Y-80712607D01*
X112647591Y-80722915D01*
X112606110Y-80727000D01*
X111929890Y-80727000D01*
X111888409Y-80722915D01*
X111854431Y-80712607D01*
X111823110Y-80695866D01*
X111795661Y-80673339D01*
X111773134Y-80645890D01*
X111756393Y-80614569D01*
X111746085Y-80580591D01*
X111742000Y-80539110D01*
X111742000Y-79937890D01*
X111746085Y-79896409D01*
X111756393Y-79862431D01*
X111773134Y-79831110D01*
X111795661Y-79803661D01*
X111823110Y-79781134D01*
X111854431Y-79764393D01*
X111888409Y-79754085D01*
X111929890Y-79750000D01*
X112606110Y-79750000D01*
X112647591Y-79754085D01*
X112647591Y-79754085D01*
G37*
G36*
X104870000Y-80719000D02*
G01*
X103678000Y-80719000D01*
X103678000Y-79017000D01*
X104870000Y-79017000D01*
X104870000Y-80719000D01*
X104870000Y-80719000D01*
G37*
G36*
X102570000Y-80719000D02*
G01*
X101378000Y-80719000D01*
X101378000Y-79017000D01*
X102570000Y-79017000D01*
X102570000Y-80719000D01*
X102570000Y-80719000D01*
G37*
G36*
X135331468Y-79319065D02*
G01*
X135370138Y-79330796D01*
X135405777Y-79349846D01*
X135437017Y-79375483D01*
X135462654Y-79406723D01*
X135481704Y-79442362D01*
X135493435Y-79481032D01*
X135498000Y-79527388D01*
X135498000Y-80178612D01*
X135493435Y-80224968D01*
X135481704Y-80263638D01*
X135462654Y-80299277D01*
X135437017Y-80330517D01*
X135405777Y-80356154D01*
X135370138Y-80375204D01*
X135331468Y-80386935D01*
X135285112Y-80391500D01*
X134208888Y-80391500D01*
X134162532Y-80386935D01*
X134123862Y-80375204D01*
X134088223Y-80356154D01*
X134056983Y-80330517D01*
X134031346Y-80299277D01*
X134012296Y-80263638D01*
X134000565Y-80224968D01*
X133996000Y-80178612D01*
X133996000Y-79527388D01*
X134000565Y-79481032D01*
X134012296Y-79442362D01*
X134031346Y-79406723D01*
X134056983Y-79375483D01*
X134088223Y-79349846D01*
X134123862Y-79330796D01*
X134162532Y-79319065D01*
X134208888Y-79314500D01*
X135285112Y-79314500D01*
X135331468Y-79319065D01*
X135331468Y-79319065D01*
G37*
G36*
X178433591Y-78890585D02*
G01*
X178467569Y-78900893D01*
X178498890Y-78917634D01*
X178526339Y-78940161D01*
X178548866Y-78967610D01*
X178565607Y-78998931D01*
X178575915Y-79032909D01*
X178580000Y-79074390D01*
X178580000Y-79675610D01*
X178575915Y-79717091D01*
X178565607Y-79751069D01*
X178548866Y-79782390D01*
X178526339Y-79809839D01*
X178498890Y-79832366D01*
X178467569Y-79849107D01*
X178433591Y-79859415D01*
X178392110Y-79863500D01*
X177715890Y-79863500D01*
X177674409Y-79859415D01*
X177640431Y-79849107D01*
X177609110Y-79832366D01*
X177581661Y-79809839D01*
X177559134Y-79782390D01*
X177542393Y-79751069D01*
X177532085Y-79717091D01*
X177528000Y-79675610D01*
X177528000Y-79074390D01*
X177532085Y-79032909D01*
X177542393Y-78998931D01*
X177559134Y-78967610D01*
X177581661Y-78940161D01*
X177609110Y-78917634D01*
X177640431Y-78900893D01*
X177674409Y-78890585D01*
X177715890Y-78886500D01*
X178392110Y-78886500D01*
X178433591Y-78890585D01*
X178433591Y-78890585D01*
G37*
G36*
X173960000Y-79853000D02*
G01*
X173258000Y-79853000D01*
X173258000Y-78201000D01*
X173960000Y-78201000D01*
X173960000Y-79853000D01*
X173960000Y-79853000D01*
G37*
G36*
X176500000Y-79853000D02*
G01*
X175798000Y-79853000D01*
X175798000Y-78201000D01*
X176500000Y-78201000D01*
X176500000Y-79853000D01*
X176500000Y-79853000D01*
G37*
G36*
X172690000Y-79853000D02*
G01*
X171988000Y-79853000D01*
X171988000Y-78201000D01*
X172690000Y-78201000D01*
X172690000Y-79853000D01*
X172690000Y-79853000D01*
G37*
G36*
X175230000Y-79853000D02*
G01*
X174528000Y-79853000D01*
X174528000Y-78201000D01*
X175230000Y-78201000D01*
X175230000Y-79853000D01*
X175230000Y-79853000D01*
G37*
G36*
X162797142Y-78045242D02*
G01*
X162945101Y-78106529D01*
X163078255Y-78195499D01*
X163191501Y-78308745D01*
X163280471Y-78441899D01*
X163341758Y-78589858D01*
X163373000Y-78746925D01*
X163373000Y-78907075D01*
X163341758Y-79064142D01*
X163280471Y-79212101D01*
X163191501Y-79345255D01*
X163078255Y-79458501D01*
X162945101Y-79547471D01*
X162797142Y-79608758D01*
X162640075Y-79640000D01*
X162479925Y-79640000D01*
X162322858Y-79608758D01*
X162174899Y-79547471D01*
X162041745Y-79458501D01*
X161928499Y-79345255D01*
X161839529Y-79212101D01*
X161778242Y-79064142D01*
X161747000Y-78907075D01*
X161747000Y-78746925D01*
X161778242Y-78589858D01*
X161839529Y-78441899D01*
X161928499Y-78308745D01*
X162041745Y-78195499D01*
X162174899Y-78106529D01*
X162322858Y-78045242D01*
X162479925Y-78014000D01*
X162640075Y-78014000D01*
X162797142Y-78045242D01*
X162797142Y-78045242D01*
G37*
G36*
X123046142Y-77807742D02*
G01*
X123194101Y-77869029D01*
X123327255Y-77957999D01*
X123440501Y-78071245D01*
X123529471Y-78204399D01*
X123590758Y-78352358D01*
X123622000Y-78509425D01*
X123622000Y-78669575D01*
X123590758Y-78826642D01*
X123529471Y-78974601D01*
X123440501Y-79107755D01*
X123327255Y-79221001D01*
X123194101Y-79309971D01*
X123046142Y-79371258D01*
X122889075Y-79402500D01*
X122728925Y-79402500D01*
X122571858Y-79371258D01*
X122423899Y-79309971D01*
X122290745Y-79221001D01*
X122177499Y-79107755D01*
X122088529Y-78974601D01*
X122027242Y-78826642D01*
X121996000Y-78669575D01*
X121996000Y-78509425D01*
X122027242Y-78352358D01*
X122088529Y-78204399D01*
X122177499Y-78071245D01*
X122290745Y-77957999D01*
X122423899Y-77869029D01*
X122571858Y-77807742D01*
X122728925Y-77776500D01*
X122889075Y-77776500D01*
X123046142Y-77807742D01*
X123046142Y-77807742D01*
G37*
G36*
X191238000Y-78656500D02*
G01*
X184936000Y-78656500D01*
X184936000Y-76354500D01*
X191238000Y-76354500D01*
X191238000Y-78656500D01*
X191238000Y-78656500D01*
G37*
G36*
X135331468Y-77444065D02*
G01*
X135370138Y-77455796D01*
X135405777Y-77474846D01*
X135437017Y-77500483D01*
X135462654Y-77531723D01*
X135481704Y-77567362D01*
X135493435Y-77606032D01*
X135498000Y-77652388D01*
X135498000Y-78303612D01*
X135493435Y-78349968D01*
X135481704Y-78388638D01*
X135462654Y-78424277D01*
X135437017Y-78455517D01*
X135405777Y-78481154D01*
X135370138Y-78500204D01*
X135331468Y-78511935D01*
X135285112Y-78516500D01*
X134208888Y-78516500D01*
X134162532Y-78511935D01*
X134123862Y-78500204D01*
X134088223Y-78481154D01*
X134056983Y-78455517D01*
X134031346Y-78424277D01*
X134012296Y-78388638D01*
X134000565Y-78349968D01*
X133996000Y-78303612D01*
X133996000Y-77652388D01*
X134000565Y-77606032D01*
X134012296Y-77567362D01*
X134031346Y-77531723D01*
X134056983Y-77500483D01*
X134088223Y-77474846D01*
X134123862Y-77455796D01*
X134162532Y-77444065D01*
X134208888Y-77439500D01*
X135285112Y-77439500D01*
X135331468Y-77444065D01*
X135331468Y-77444065D01*
G37*
G36*
X62048000Y-78390000D02*
G01*
X55446000Y-78390000D01*
X55446000Y-75788000D01*
X62048000Y-75788000D01*
X62048000Y-78390000D01*
X62048000Y-78390000D01*
G37*
G36*
X74548000Y-78390000D02*
G01*
X67946000Y-78390000D01*
X67946000Y-75788000D01*
X74548000Y-75788000D01*
X74548000Y-78390000D01*
X74548000Y-78390000D01*
G37*
G36*
X178433591Y-77315585D02*
G01*
X178467569Y-77325893D01*
X178498890Y-77342634D01*
X178526339Y-77365161D01*
X178548866Y-77392610D01*
X178565607Y-77423931D01*
X178575915Y-77457909D01*
X178580000Y-77499390D01*
X178580000Y-78100610D01*
X178575915Y-78142091D01*
X178565607Y-78176069D01*
X178548866Y-78207390D01*
X178526339Y-78234839D01*
X178498890Y-78257366D01*
X178467569Y-78274107D01*
X178433591Y-78284415D01*
X178392110Y-78288500D01*
X177715890Y-78288500D01*
X177674409Y-78284415D01*
X177640431Y-78274107D01*
X177609110Y-78257366D01*
X177581661Y-78234839D01*
X177559134Y-78207390D01*
X177542393Y-78176069D01*
X177532085Y-78142091D01*
X177528000Y-78100610D01*
X177528000Y-77499390D01*
X177532085Y-77457909D01*
X177542393Y-77423931D01*
X177559134Y-77392610D01*
X177581661Y-77365161D01*
X177609110Y-77342634D01*
X177640431Y-77325893D01*
X177674409Y-77315585D01*
X177715890Y-77311500D01*
X178392110Y-77311500D01*
X178433591Y-77315585D01*
X178433591Y-77315585D01*
G37*
G36*
X54018798Y-73589247D02*
G01*
X54054367Y-73600037D01*
X54087139Y-73617554D01*
X54115869Y-73641131D01*
X54139446Y-73669861D01*
X54156963Y-73702633D01*
X54167753Y-73738202D01*
X54172000Y-73781325D01*
X54172000Y-76840675D01*
X54167753Y-76883798D01*
X54156963Y-76919367D01*
X54139446Y-76952139D01*
X54115869Y-76980869D01*
X54087139Y-77004446D01*
X54054367Y-77021963D01*
X54018798Y-77032753D01*
X53975675Y-77037000D01*
X52916325Y-77037000D01*
X52873202Y-77032753D01*
X52837633Y-77021963D01*
X52804861Y-77004446D01*
X52776131Y-76980869D01*
X52752554Y-76952139D01*
X52735037Y-76919367D01*
X52724247Y-76883798D01*
X52720000Y-76840675D01*
X52720000Y-73781325D01*
X52724247Y-73738202D01*
X52735037Y-73702633D01*
X52752554Y-73669861D01*
X52776131Y-73641131D01*
X52804861Y-73617554D01*
X52837633Y-73600037D01*
X52873202Y-73589247D01*
X52916325Y-73585000D01*
X53975675Y-73585000D01*
X54018798Y-73589247D01*
X54018798Y-73589247D01*
G37*
G36*
X48218798Y-73589247D02*
G01*
X48254367Y-73600037D01*
X48287139Y-73617554D01*
X48315869Y-73641131D01*
X48339446Y-73669861D01*
X48356963Y-73702633D01*
X48367753Y-73738202D01*
X48372000Y-73781325D01*
X48372000Y-76840675D01*
X48367753Y-76883798D01*
X48356963Y-76919367D01*
X48339446Y-76952139D01*
X48315869Y-76980869D01*
X48287139Y-77004446D01*
X48254367Y-77021963D01*
X48218798Y-77032753D01*
X48175675Y-77037000D01*
X47116325Y-77037000D01*
X47073202Y-77032753D01*
X47037633Y-77021963D01*
X47004861Y-77004446D01*
X46976131Y-76980869D01*
X46952554Y-76952139D01*
X46935037Y-76919367D01*
X46924247Y-76883798D01*
X46920000Y-76840675D01*
X46920000Y-73781325D01*
X46924247Y-73738202D01*
X46935037Y-73702633D01*
X46952554Y-73669861D01*
X46976131Y-73641131D01*
X47004861Y-73617554D01*
X47037633Y-73600037D01*
X47073202Y-73589247D01*
X47116325Y-73585000D01*
X48175675Y-73585000D01*
X48218798Y-73589247D01*
X48218798Y-73589247D01*
G37*
G36*
X123046142Y-74933742D02*
G01*
X123194101Y-74995029D01*
X123327255Y-75083999D01*
X123440501Y-75197245D01*
X123529471Y-75330399D01*
X123590758Y-75478358D01*
X123622000Y-75635425D01*
X123622000Y-75795575D01*
X123590758Y-75952642D01*
X123529471Y-76100601D01*
X123440501Y-76233755D01*
X123327255Y-76347001D01*
X123194101Y-76435971D01*
X123046142Y-76497258D01*
X122889075Y-76528500D01*
X122728925Y-76528500D01*
X122571858Y-76497258D01*
X122423899Y-76435971D01*
X122290745Y-76347001D01*
X122177499Y-76233755D01*
X122088529Y-76100601D01*
X122027242Y-75952642D01*
X121996000Y-75795575D01*
X121996000Y-75635425D01*
X122027242Y-75478358D01*
X122088529Y-75330399D01*
X122177499Y-75197245D01*
X122290745Y-75083999D01*
X122423899Y-74995029D01*
X122571858Y-74933742D01*
X122728925Y-74902500D01*
X122889075Y-74902500D01*
X123046142Y-74933742D01*
X123046142Y-74933742D01*
G37*
G36*
X115900468Y-75412065D02*
G01*
X115939138Y-75423796D01*
X115974777Y-75442846D01*
X116006017Y-75468483D01*
X116031654Y-75499723D01*
X116050704Y-75535362D01*
X116062435Y-75574032D01*
X116067000Y-75620388D01*
X116067000Y-76271612D01*
X116062435Y-76317968D01*
X116050704Y-76356638D01*
X116031654Y-76392277D01*
X116006017Y-76423517D01*
X115974777Y-76449154D01*
X115939138Y-76468204D01*
X115900468Y-76479935D01*
X115854112Y-76484500D01*
X114777888Y-76484500D01*
X114731532Y-76479935D01*
X114692862Y-76468204D01*
X114657223Y-76449154D01*
X114625983Y-76423517D01*
X114600346Y-76392277D01*
X114581296Y-76356638D01*
X114569565Y-76317968D01*
X114565000Y-76271612D01*
X114565000Y-75620388D01*
X114569565Y-75574032D01*
X114581296Y-75535362D01*
X114600346Y-75499723D01*
X114625983Y-75468483D01*
X114657223Y-75442846D01*
X114692862Y-75423796D01*
X114731532Y-75412065D01*
X114777888Y-75407500D01*
X115854112Y-75407500D01*
X115900468Y-75412065D01*
X115900468Y-75412065D01*
G37*
G36*
X79252000Y-76120000D02*
G01*
X78650000Y-76120000D01*
X78650000Y-75518000D01*
X79252000Y-75518000D01*
X79252000Y-76120000D01*
X79252000Y-76120000D01*
G37*
G36*
X77052000Y-76120000D02*
G01*
X76450000Y-76120000D01*
X76450000Y-75518000D01*
X77052000Y-75518000D01*
X77052000Y-76120000D01*
X77052000Y-76120000D01*
G37*
G36*
X109190000Y-76104000D02*
G01*
X108488000Y-76104000D01*
X108488000Y-74452000D01*
X109190000Y-74452000D01*
X109190000Y-76104000D01*
X109190000Y-76104000D01*
G37*
G36*
X110460000Y-76104000D02*
G01*
X109758000Y-76104000D01*
X109758000Y-74452000D01*
X110460000Y-74452000D01*
X110460000Y-76104000D01*
X110460000Y-76104000D01*
G37*
G36*
X107920000Y-76104000D02*
G01*
X107218000Y-76104000D01*
X107218000Y-74452000D01*
X107920000Y-74452000D01*
X107920000Y-76104000D01*
X107920000Y-76104000D01*
G37*
G36*
X106650000Y-76104000D02*
G01*
X105948000Y-76104000D01*
X105948000Y-74452000D01*
X106650000Y-74452000D01*
X106650000Y-76104000D01*
X106650000Y-76104000D01*
G37*
G36*
X178765468Y-74650065D02*
G01*
X178804138Y-74661796D01*
X178839777Y-74680846D01*
X178871017Y-74706483D01*
X178896654Y-74737723D01*
X178915704Y-74773362D01*
X178927435Y-74812032D01*
X178932000Y-74858388D01*
X178932000Y-75509612D01*
X178927435Y-75555968D01*
X178915704Y-75594638D01*
X178896654Y-75630277D01*
X178871017Y-75661517D01*
X178839777Y-75687154D01*
X178804138Y-75706204D01*
X178765468Y-75717935D01*
X178719112Y-75722500D01*
X177642888Y-75722500D01*
X177596532Y-75717935D01*
X177557862Y-75706204D01*
X177522223Y-75687154D01*
X177490983Y-75661517D01*
X177465346Y-75630277D01*
X177446296Y-75594638D01*
X177434565Y-75555968D01*
X177430000Y-75509612D01*
X177430000Y-74858388D01*
X177434565Y-74812032D01*
X177446296Y-74773362D01*
X177465346Y-74737723D01*
X177490983Y-74706483D01*
X177522223Y-74680846D01*
X177557862Y-74661796D01*
X177596532Y-74650065D01*
X177642888Y-74645500D01*
X178719112Y-74645500D01*
X178765468Y-74650065D01*
X178765468Y-74650065D01*
G37*
G36*
X92808000Y-75123000D02*
G01*
X89306000Y-75123000D01*
X89306000Y-73721000D01*
X92808000Y-73721000D01*
X92808000Y-75123000D01*
X92808000Y-75123000D01*
G37*
G36*
X86208000Y-75123000D02*
G01*
X82706000Y-75123000D01*
X82706000Y-73721000D01*
X86208000Y-73721000D01*
X86208000Y-75123000D01*
X86208000Y-75123000D01*
G37*
G36*
X112725468Y-74015065D02*
G01*
X112764138Y-74026796D01*
X112799777Y-74045846D01*
X112831017Y-74071483D01*
X112856654Y-74102723D01*
X112875704Y-74138362D01*
X112887435Y-74177032D01*
X112892000Y-74223388D01*
X112892000Y-74874612D01*
X112887435Y-74920968D01*
X112875704Y-74959638D01*
X112856654Y-74995277D01*
X112831017Y-75026517D01*
X112799777Y-75052154D01*
X112764138Y-75071204D01*
X112725468Y-75082935D01*
X112679112Y-75087500D01*
X111602888Y-75087500D01*
X111556532Y-75082935D01*
X111517862Y-75071204D01*
X111482223Y-75052154D01*
X111450983Y-75026517D01*
X111425346Y-74995277D01*
X111406296Y-74959638D01*
X111394565Y-74920968D01*
X111390000Y-74874612D01*
X111390000Y-74223388D01*
X111394565Y-74177032D01*
X111406296Y-74138362D01*
X111425346Y-74102723D01*
X111450983Y-74071483D01*
X111482223Y-74045846D01*
X111517862Y-74026796D01*
X111556532Y-74015065D01*
X111602888Y-74010500D01*
X112679112Y-74010500D01*
X112725468Y-74015065D01*
X112725468Y-74015065D01*
G37*
G36*
X162797142Y-73045242D02*
G01*
X162945101Y-73106529D01*
X163078255Y-73195499D01*
X163191501Y-73308745D01*
X163280471Y-73441899D01*
X163341758Y-73589858D01*
X163373000Y-73746925D01*
X163373000Y-73907075D01*
X163341758Y-74064142D01*
X163280471Y-74212101D01*
X163191501Y-74345255D01*
X163078255Y-74458501D01*
X162945101Y-74547471D01*
X162797142Y-74608758D01*
X162640075Y-74640000D01*
X162479925Y-74640000D01*
X162322858Y-74608758D01*
X162174899Y-74547471D01*
X162041745Y-74458501D01*
X161928499Y-74345255D01*
X161839529Y-74212101D01*
X161778242Y-74064142D01*
X161747000Y-73907075D01*
X161747000Y-73746925D01*
X161778242Y-73589858D01*
X161839529Y-73441899D01*
X161928499Y-73308745D01*
X162041745Y-73195499D01*
X162174899Y-73106529D01*
X162322858Y-73045242D01*
X162479925Y-73014000D01*
X162640075Y-73014000D01*
X162797142Y-73045242D01*
X162797142Y-73045242D01*
G37*
G36*
X115900468Y-73537065D02*
G01*
X115939138Y-73548796D01*
X115974777Y-73567846D01*
X116006017Y-73593483D01*
X116031654Y-73624723D01*
X116050704Y-73660362D01*
X116062435Y-73699032D01*
X116067000Y-73745388D01*
X116067000Y-74396612D01*
X116062435Y-74442968D01*
X116050704Y-74481638D01*
X116031654Y-74517277D01*
X116006017Y-74548517D01*
X115974777Y-74574154D01*
X115939138Y-74593204D01*
X115900468Y-74604935D01*
X115854112Y-74609500D01*
X114777888Y-74609500D01*
X114731532Y-74604935D01*
X114692862Y-74593204D01*
X114657223Y-74574154D01*
X114625983Y-74548517D01*
X114600346Y-74517277D01*
X114581296Y-74481638D01*
X114569565Y-74442968D01*
X114565000Y-74396612D01*
X114565000Y-73745388D01*
X114569565Y-73699032D01*
X114581296Y-73660362D01*
X114600346Y-73624723D01*
X114625983Y-73593483D01*
X114657223Y-73567846D01*
X114692862Y-73548796D01*
X114731532Y-73537065D01*
X114777888Y-73532500D01*
X115854112Y-73532500D01*
X115900468Y-73537065D01*
X115900468Y-73537065D01*
G37*
G36*
X173960000Y-74453000D02*
G01*
X173258000Y-74453000D01*
X173258000Y-72801000D01*
X173960000Y-72801000D01*
X173960000Y-74453000D01*
X173960000Y-74453000D01*
G37*
G36*
X175230000Y-74453000D02*
G01*
X174528000Y-74453000D01*
X174528000Y-72801000D01*
X175230000Y-72801000D01*
X175230000Y-74453000D01*
X175230000Y-74453000D01*
G37*
G36*
X172690000Y-74453000D02*
G01*
X171988000Y-74453000D01*
X171988000Y-72801000D01*
X172690000Y-72801000D01*
X172690000Y-74453000D01*
X172690000Y-74453000D01*
G37*
G36*
X176500000Y-74453000D02*
G01*
X175798000Y-74453000D01*
X175798000Y-72801000D01*
X176500000Y-72801000D01*
X176500000Y-74453000D01*
X176500000Y-74453000D01*
G37*
G36*
X80524604Y-72867347D02*
G01*
X80561144Y-72878432D01*
X80594821Y-72896433D01*
X80624341Y-72920659D01*
X80648567Y-72950179D01*
X80666568Y-72983856D01*
X80677653Y-73020396D01*
X80682000Y-73064538D01*
X80682000Y-74013462D01*
X80677653Y-74057604D01*
X80666568Y-74094144D01*
X80648567Y-74127821D01*
X80624341Y-74157341D01*
X80594821Y-74181567D01*
X80561144Y-74199568D01*
X80524604Y-74210653D01*
X80480462Y-74215000D01*
X79031538Y-74215000D01*
X78987396Y-74210653D01*
X78950856Y-74199568D01*
X78917179Y-74181567D01*
X78887659Y-74157341D01*
X78863433Y-74127821D01*
X78845432Y-74094144D01*
X78834347Y-74057604D01*
X78830000Y-74013462D01*
X78830000Y-73064538D01*
X78834347Y-73020396D01*
X78845432Y-72983856D01*
X78863433Y-72950179D01*
X78887659Y-72920659D01*
X78917179Y-72896433D01*
X78950856Y-72878432D01*
X78987396Y-72867347D01*
X79031538Y-72863000D01*
X80480462Y-72863000D01*
X80524604Y-72867347D01*
X80524604Y-72867347D01*
G37*
G36*
X76841604Y-72867347D02*
G01*
X76878144Y-72878432D01*
X76911821Y-72896433D01*
X76941341Y-72920659D01*
X76965567Y-72950179D01*
X76983568Y-72983856D01*
X76994653Y-73020396D01*
X76999000Y-73064538D01*
X76999000Y-74013462D01*
X76994653Y-74057604D01*
X76983568Y-74094144D01*
X76965567Y-74127821D01*
X76941341Y-74157341D01*
X76911821Y-74181567D01*
X76878144Y-74199568D01*
X76841604Y-74210653D01*
X76797462Y-74215000D01*
X75348538Y-74215000D01*
X75304396Y-74210653D01*
X75267856Y-74199568D01*
X75234179Y-74181567D01*
X75204659Y-74157341D01*
X75180433Y-74127821D01*
X75162432Y-74094144D01*
X75151347Y-74057604D01*
X75147000Y-74013462D01*
X75147000Y-73064538D01*
X75151347Y-73020396D01*
X75162432Y-72983856D01*
X75180433Y-72950179D01*
X75204659Y-72920659D01*
X75234179Y-72896433D01*
X75267856Y-72878432D01*
X75304396Y-72867347D01*
X75348538Y-72863000D01*
X76797462Y-72863000D01*
X76841604Y-72867347D01*
X76841604Y-72867347D01*
G37*
G36*
X178765468Y-72775065D02*
G01*
X178804138Y-72786796D01*
X178839777Y-72805846D01*
X178871017Y-72831483D01*
X178896654Y-72862723D01*
X178915704Y-72898362D01*
X178927435Y-72937032D01*
X178932000Y-72983388D01*
X178932000Y-73634612D01*
X178927435Y-73680968D01*
X178915704Y-73719638D01*
X178896654Y-73755277D01*
X178871017Y-73786517D01*
X178839777Y-73812154D01*
X178804138Y-73831204D01*
X178765468Y-73842935D01*
X178719112Y-73847500D01*
X177642888Y-73847500D01*
X177596532Y-73842935D01*
X177557862Y-73831204D01*
X177522223Y-73812154D01*
X177490983Y-73786517D01*
X177465346Y-73755277D01*
X177446296Y-73719638D01*
X177434565Y-73680968D01*
X177430000Y-73634612D01*
X177430000Y-72983388D01*
X177434565Y-72937032D01*
X177446296Y-72898362D01*
X177465346Y-72862723D01*
X177490983Y-72831483D01*
X177522223Y-72805846D01*
X177557862Y-72786796D01*
X177596532Y-72775065D01*
X177642888Y-72770500D01*
X178719112Y-72770500D01*
X178765468Y-72775065D01*
X178765468Y-72775065D01*
G37*
G36*
X109804468Y-72666565D02*
G01*
X109843138Y-72678296D01*
X109878777Y-72697346D01*
X109910017Y-72722983D01*
X109935654Y-72754223D01*
X109954704Y-72789862D01*
X109966435Y-72828532D01*
X109971000Y-72874888D01*
X109971000Y-73526112D01*
X109966435Y-73572468D01*
X109954704Y-73611138D01*
X109935654Y-73646777D01*
X109910017Y-73678017D01*
X109878777Y-73703654D01*
X109843138Y-73722704D01*
X109804468Y-73734435D01*
X109758112Y-73739000D01*
X108681888Y-73739000D01*
X108635532Y-73734435D01*
X108596862Y-73722704D01*
X108561223Y-73703654D01*
X108529983Y-73678017D01*
X108504346Y-73646777D01*
X108485296Y-73611138D01*
X108473565Y-73572468D01*
X108469000Y-73526112D01*
X108469000Y-72874888D01*
X108473565Y-72828532D01*
X108485296Y-72789862D01*
X108504346Y-72754223D01*
X108529983Y-72722983D01*
X108561223Y-72697346D01*
X108596862Y-72678296D01*
X108635532Y-72666565D01*
X108681888Y-72662000D01*
X109758112Y-72662000D01*
X109804468Y-72666565D01*
X109804468Y-72666565D01*
G37*
G36*
X105726591Y-72630085D02*
G01*
X105760569Y-72640393D01*
X105791890Y-72657134D01*
X105819339Y-72679661D01*
X105841866Y-72707110D01*
X105858607Y-72738431D01*
X105868915Y-72772409D01*
X105873000Y-72813890D01*
X105873000Y-73490110D01*
X105868915Y-73531591D01*
X105858607Y-73565569D01*
X105841866Y-73596890D01*
X105819339Y-73624339D01*
X105791890Y-73646866D01*
X105760569Y-73663607D01*
X105726591Y-73673915D01*
X105685110Y-73678000D01*
X105083890Y-73678000D01*
X105042409Y-73673915D01*
X105008431Y-73663607D01*
X104977110Y-73646866D01*
X104949661Y-73624339D01*
X104927134Y-73596890D01*
X104910393Y-73565569D01*
X104900085Y-73531591D01*
X104896000Y-73490110D01*
X104896000Y-72813890D01*
X104900085Y-72772409D01*
X104910393Y-72738431D01*
X104927134Y-72707110D01*
X104949661Y-72679661D01*
X104977110Y-72657134D01*
X105008431Y-72640393D01*
X105042409Y-72630085D01*
X105083890Y-72626000D01*
X105685110Y-72626000D01*
X105726591Y-72630085D01*
X105726591Y-72630085D01*
G37*
G36*
X107301591Y-72630085D02*
G01*
X107335569Y-72640393D01*
X107366890Y-72657134D01*
X107394339Y-72679661D01*
X107416866Y-72707110D01*
X107433607Y-72738431D01*
X107443915Y-72772409D01*
X107448000Y-72813890D01*
X107448000Y-73490110D01*
X107443915Y-73531591D01*
X107433607Y-73565569D01*
X107416866Y-73596890D01*
X107394339Y-73624339D01*
X107366890Y-73646866D01*
X107335569Y-73663607D01*
X107301591Y-73673915D01*
X107260110Y-73678000D01*
X106658890Y-73678000D01*
X106617409Y-73673915D01*
X106583431Y-73663607D01*
X106552110Y-73646866D01*
X106524661Y-73624339D01*
X106502134Y-73596890D01*
X106485393Y-73565569D01*
X106475085Y-73531591D01*
X106471000Y-73490110D01*
X106471000Y-72813890D01*
X106475085Y-72772409D01*
X106485393Y-72738431D01*
X106502134Y-72707110D01*
X106524661Y-72679661D01*
X106552110Y-72657134D01*
X106583431Y-72640393D01*
X106617409Y-72630085D01*
X106658890Y-72626000D01*
X107260110Y-72626000D01*
X107301591Y-72630085D01*
X107301591Y-72630085D01*
G37*
G36*
X112725468Y-72140065D02*
G01*
X112764138Y-72151796D01*
X112799777Y-72170846D01*
X112831017Y-72196483D01*
X112856654Y-72227723D01*
X112875704Y-72263362D01*
X112887435Y-72302032D01*
X112892000Y-72348388D01*
X112892000Y-72999612D01*
X112887435Y-73045968D01*
X112875704Y-73084638D01*
X112856654Y-73120277D01*
X112831017Y-73151517D01*
X112799777Y-73177154D01*
X112764138Y-73196204D01*
X112725468Y-73207935D01*
X112679112Y-73212500D01*
X111602888Y-73212500D01*
X111556532Y-73207935D01*
X111517862Y-73196204D01*
X111482223Y-73177154D01*
X111450983Y-73151517D01*
X111425346Y-73120277D01*
X111406296Y-73084638D01*
X111394565Y-73045968D01*
X111390000Y-72999612D01*
X111390000Y-72348388D01*
X111394565Y-72302032D01*
X111406296Y-72263362D01*
X111425346Y-72227723D01*
X111450983Y-72196483D01*
X111482223Y-72170846D01*
X111517862Y-72151796D01*
X111556532Y-72140065D01*
X111602888Y-72135500D01*
X112679112Y-72135500D01*
X112725468Y-72140065D01*
X112725468Y-72140065D01*
G37*
G36*
X172452591Y-71233085D02*
G01*
X172486569Y-71243393D01*
X172517890Y-71260134D01*
X172545339Y-71282661D01*
X172567866Y-71310110D01*
X172584607Y-71341431D01*
X172594915Y-71375409D01*
X172599000Y-71416890D01*
X172599000Y-72093110D01*
X172594915Y-72134591D01*
X172584607Y-72168569D01*
X172567866Y-72199890D01*
X172545339Y-72227339D01*
X172517890Y-72249866D01*
X172486569Y-72266607D01*
X172452591Y-72276915D01*
X172411110Y-72281000D01*
X171809890Y-72281000D01*
X171768409Y-72276915D01*
X171734431Y-72266607D01*
X171703110Y-72249866D01*
X171675661Y-72227339D01*
X171653134Y-72199890D01*
X171636393Y-72168569D01*
X171626085Y-72134591D01*
X171622000Y-72093110D01*
X171622000Y-71416890D01*
X171626085Y-71375409D01*
X171636393Y-71341431D01*
X171653134Y-71310110D01*
X171675661Y-71282661D01*
X171703110Y-71260134D01*
X171734431Y-71243393D01*
X171768409Y-71233085D01*
X171809890Y-71229000D01*
X172411110Y-71229000D01*
X172452591Y-71233085D01*
X172452591Y-71233085D01*
G37*
G36*
X170877591Y-71233085D02*
G01*
X170911569Y-71243393D01*
X170942890Y-71260134D01*
X170970339Y-71282661D01*
X170992866Y-71310110D01*
X171009607Y-71341431D01*
X171019915Y-71375409D01*
X171024000Y-71416890D01*
X171024000Y-72093110D01*
X171019915Y-72134591D01*
X171009607Y-72168569D01*
X170992866Y-72199890D01*
X170970339Y-72227339D01*
X170942890Y-72249866D01*
X170911569Y-72266607D01*
X170877591Y-72276915D01*
X170836110Y-72281000D01*
X170234890Y-72281000D01*
X170193409Y-72276915D01*
X170159431Y-72266607D01*
X170128110Y-72249866D01*
X170100661Y-72227339D01*
X170078134Y-72199890D01*
X170061393Y-72168569D01*
X170051085Y-72134591D01*
X170047000Y-72093110D01*
X170047000Y-71416890D01*
X170051085Y-71375409D01*
X170061393Y-71341431D01*
X170078134Y-71310110D01*
X170100661Y-71282661D01*
X170128110Y-71260134D01*
X170159431Y-71243393D01*
X170193409Y-71233085D01*
X170234890Y-71229000D01*
X170836110Y-71229000D01*
X170877591Y-71233085D01*
X170877591Y-71233085D01*
G37*
G36*
X109804468Y-70791565D02*
G01*
X109843138Y-70803296D01*
X109878777Y-70822346D01*
X109910017Y-70847983D01*
X109935654Y-70879223D01*
X109954704Y-70914862D01*
X109966435Y-70953532D01*
X109971000Y-70999888D01*
X109971000Y-71651112D01*
X109966435Y-71697468D01*
X109954704Y-71736138D01*
X109935654Y-71771777D01*
X109910017Y-71803017D01*
X109878777Y-71828654D01*
X109843138Y-71847704D01*
X109804468Y-71859435D01*
X109758112Y-71864000D01*
X108681888Y-71864000D01*
X108635532Y-71859435D01*
X108596862Y-71847704D01*
X108561223Y-71828654D01*
X108529983Y-71803017D01*
X108504346Y-71771777D01*
X108485296Y-71736138D01*
X108473565Y-71697468D01*
X108469000Y-71651112D01*
X108469000Y-70999888D01*
X108473565Y-70953532D01*
X108485296Y-70914862D01*
X108504346Y-70879223D01*
X108529983Y-70847983D01*
X108561223Y-70822346D01*
X108596862Y-70803296D01*
X108635532Y-70791565D01*
X108681888Y-70787000D01*
X109758112Y-70787000D01*
X109804468Y-70791565D01*
X109804468Y-70791565D01*
G37*
G36*
X82704938Y-71134716D02*
G01*
X82725557Y-71140971D01*
X82744553Y-71151124D01*
X82761208Y-71164792D01*
X82774876Y-71181447D01*
X82785029Y-71200443D01*
X82791284Y-71221062D01*
X82794000Y-71248640D01*
X82794000Y-71707360D01*
X82791284Y-71734938D01*
X82785029Y-71755557D01*
X82774876Y-71774553D01*
X82761208Y-71791208D01*
X82744553Y-71804876D01*
X82725557Y-71815029D01*
X82704938Y-71821284D01*
X82677360Y-71824000D01*
X82168640Y-71824000D01*
X82141062Y-71821284D01*
X82120443Y-71815029D01*
X82101447Y-71804876D01*
X82084792Y-71791208D01*
X82071124Y-71774553D01*
X82060971Y-71755557D01*
X82054716Y-71734938D01*
X82052000Y-71707360D01*
X82052000Y-71248640D01*
X82054716Y-71221062D01*
X82060971Y-71200443D01*
X82071124Y-71181447D01*
X82084792Y-71164792D01*
X82101447Y-71151124D01*
X82120443Y-71140971D01*
X82141062Y-71134716D01*
X82168640Y-71132000D01*
X82677360Y-71132000D01*
X82704938Y-71134716D01*
X82704938Y-71134716D01*
G37*
G36*
X123046142Y-69933742D02*
G01*
X123194101Y-69995029D01*
X123327255Y-70083999D01*
X123440501Y-70197245D01*
X123529471Y-70330399D01*
X123590758Y-70478358D01*
X123622000Y-70635425D01*
X123622000Y-70795575D01*
X123590758Y-70952642D01*
X123529471Y-71100601D01*
X123440501Y-71233755D01*
X123327255Y-71347001D01*
X123194101Y-71435971D01*
X123046142Y-71497258D01*
X122889075Y-71528500D01*
X122728925Y-71528500D01*
X122571858Y-71497258D01*
X122423899Y-71435971D01*
X122290745Y-71347001D01*
X122177499Y-71233755D01*
X122088529Y-71100601D01*
X122027242Y-70952642D01*
X121996000Y-70795575D01*
X121996000Y-70635425D01*
X122027242Y-70478358D01*
X122088529Y-70330399D01*
X122177499Y-70197245D01*
X122290745Y-70083999D01*
X122423899Y-69995029D01*
X122571858Y-69933742D01*
X122728925Y-69902500D01*
X122889075Y-69902500D01*
X123046142Y-69933742D01*
X123046142Y-69933742D01*
G37*
G36*
X80524604Y-70067347D02*
G01*
X80561144Y-70078432D01*
X80594821Y-70096433D01*
X80624341Y-70120659D01*
X80648567Y-70150179D01*
X80666568Y-70183856D01*
X80677653Y-70220396D01*
X80682000Y-70264538D01*
X80682000Y-71213462D01*
X80677653Y-71257604D01*
X80666568Y-71294144D01*
X80648567Y-71327821D01*
X80624341Y-71357341D01*
X80594821Y-71381567D01*
X80561144Y-71399568D01*
X80524604Y-71410653D01*
X80480462Y-71415000D01*
X79031538Y-71415000D01*
X78987396Y-71410653D01*
X78950856Y-71399568D01*
X78917179Y-71381567D01*
X78887659Y-71357341D01*
X78863433Y-71327821D01*
X78845432Y-71294144D01*
X78834347Y-71257604D01*
X78830000Y-71213462D01*
X78830000Y-70264538D01*
X78834347Y-70220396D01*
X78845432Y-70183856D01*
X78863433Y-70150179D01*
X78887659Y-70120659D01*
X78917179Y-70096433D01*
X78950856Y-70078432D01*
X78987396Y-70067347D01*
X79031538Y-70063000D01*
X80480462Y-70063000D01*
X80524604Y-70067347D01*
X80524604Y-70067347D01*
G37*
G36*
X76841604Y-70067347D02*
G01*
X76878144Y-70078432D01*
X76911821Y-70096433D01*
X76941341Y-70120659D01*
X76965567Y-70150179D01*
X76983568Y-70183856D01*
X76994653Y-70220396D01*
X76999000Y-70264538D01*
X76999000Y-71213462D01*
X76994653Y-71257604D01*
X76983568Y-71294144D01*
X76965567Y-71327821D01*
X76941341Y-71357341D01*
X76911821Y-71381567D01*
X76878144Y-71399568D01*
X76841604Y-71410653D01*
X76797462Y-71415000D01*
X75348538Y-71415000D01*
X75304396Y-71410653D01*
X75267856Y-71399568D01*
X75234179Y-71381567D01*
X75204659Y-71357341D01*
X75180433Y-71327821D01*
X75162432Y-71294144D01*
X75151347Y-71257604D01*
X75147000Y-71213462D01*
X75147000Y-70264538D01*
X75151347Y-70220396D01*
X75162432Y-70183856D01*
X75180433Y-70150179D01*
X75204659Y-70120659D01*
X75234179Y-70096433D01*
X75267856Y-70078432D01*
X75304396Y-70067347D01*
X75348538Y-70063000D01*
X76797462Y-70063000D01*
X76841604Y-70067347D01*
X76841604Y-70067347D01*
G37*
G36*
X50423242Y-69901404D02*
G01*
X50460337Y-69912657D01*
X50494515Y-69930925D01*
X50524481Y-69955519D01*
X50549075Y-69985485D01*
X50567343Y-70019663D01*
X50578596Y-70056758D01*
X50583000Y-70101474D01*
X50583000Y-70994526D01*
X50578596Y-71039242D01*
X50567343Y-71076337D01*
X50549075Y-71110515D01*
X50524481Y-71140481D01*
X50494515Y-71165075D01*
X50460337Y-71183343D01*
X50423242Y-71194596D01*
X50378526Y-71199000D01*
X48935474Y-71199000D01*
X48890758Y-71194596D01*
X48853663Y-71183343D01*
X48819485Y-71165075D01*
X48789519Y-71140481D01*
X48764925Y-71110515D01*
X48746657Y-71076337D01*
X48735404Y-71039242D01*
X48731000Y-70994526D01*
X48731000Y-70101474D01*
X48735404Y-70056758D01*
X48746657Y-70019663D01*
X48764925Y-69985485D01*
X48789519Y-69955519D01*
X48819485Y-69930925D01*
X48853663Y-69912657D01*
X48890758Y-69901404D01*
X48935474Y-69897000D01*
X50378526Y-69897000D01*
X50423242Y-69901404D01*
X50423242Y-69901404D01*
G37*
G36*
X81688938Y-70395716D02*
G01*
X81709557Y-70401971D01*
X81728553Y-70412124D01*
X81745208Y-70425792D01*
X81758876Y-70442447D01*
X81769029Y-70461443D01*
X81775284Y-70482062D01*
X81778000Y-70509640D01*
X81778000Y-70968360D01*
X81775284Y-70995938D01*
X81769029Y-71016557D01*
X81758876Y-71035553D01*
X81745208Y-71052208D01*
X81728553Y-71065876D01*
X81709557Y-71076029D01*
X81688938Y-71082284D01*
X81661360Y-71085000D01*
X81152640Y-71085000D01*
X81125062Y-71082284D01*
X81104443Y-71076029D01*
X81085447Y-71065876D01*
X81068792Y-71052208D01*
X81055124Y-71035553D01*
X81044971Y-71016557D01*
X81038716Y-70995938D01*
X81036000Y-70968360D01*
X81036000Y-70509640D01*
X81038716Y-70482062D01*
X81044971Y-70461443D01*
X81055124Y-70442447D01*
X81068792Y-70425792D01*
X81085447Y-70412124D01*
X81104443Y-70401971D01*
X81125062Y-70395716D01*
X81152640Y-70393000D01*
X81661360Y-70393000D01*
X81688938Y-70395716D01*
X81688938Y-70395716D01*
G37*
G36*
X82704938Y-70164716D02*
G01*
X82725557Y-70170971D01*
X82744553Y-70181124D01*
X82761208Y-70194792D01*
X82774876Y-70211447D01*
X82785029Y-70230443D01*
X82791284Y-70251062D01*
X82794000Y-70278640D01*
X82794000Y-70737360D01*
X82791284Y-70764938D01*
X82785029Y-70785557D01*
X82774876Y-70804553D01*
X82761208Y-70821208D01*
X82744553Y-70834876D01*
X82725557Y-70845029D01*
X82704938Y-70851284D01*
X82677360Y-70854000D01*
X82168640Y-70854000D01*
X82141062Y-70851284D01*
X82120443Y-70845029D01*
X82101447Y-70834876D01*
X82084792Y-70821208D01*
X82071124Y-70804553D01*
X82060971Y-70785557D01*
X82054716Y-70764938D01*
X82052000Y-70737360D01*
X82052000Y-70278640D01*
X82054716Y-70251062D01*
X82060971Y-70230443D01*
X82071124Y-70211447D01*
X82084792Y-70194792D01*
X82101447Y-70181124D01*
X82120443Y-70170971D01*
X82141062Y-70164716D01*
X82168640Y-70162000D01*
X82677360Y-70162000D01*
X82704938Y-70164716D01*
X82704938Y-70164716D01*
G37*
G36*
X191238000Y-70556500D02*
G01*
X184936000Y-70556500D01*
X184936000Y-68254500D01*
X191238000Y-68254500D01*
X191238000Y-70556500D01*
X191238000Y-70556500D01*
G37*
G36*
X78337000Y-67077001D02*
G01*
X78339402Y-67101387D01*
X78346515Y-67124836D01*
X78358066Y-67146447D01*
X78373611Y-67165389D01*
X78392553Y-67180934D01*
X78414164Y-67192485D01*
X78437613Y-67199598D01*
X78461999Y-67202000D01*
X78795655Y-67202000D01*
X78796515Y-67204836D01*
X78808066Y-67226447D01*
X78823611Y-67245389D01*
X78842553Y-67260934D01*
X78864164Y-67272485D01*
X78887613Y-67279598D01*
X78911999Y-67282000D01*
X79662000Y-67282000D01*
X79662000Y-69624000D01*
X78911999Y-69624000D01*
X78887613Y-69626402D01*
X78864164Y-69633515D01*
X78842553Y-69645066D01*
X78823611Y-69660611D01*
X78808066Y-69679553D01*
X78796515Y-69701164D01*
X78795655Y-69704000D01*
X78461999Y-69704000D01*
X78437613Y-69706402D01*
X78414164Y-69713515D01*
X78392553Y-69725066D01*
X78373611Y-69740611D01*
X78358066Y-69759553D01*
X78346515Y-69781164D01*
X78339402Y-69804613D01*
X78337000Y-69828999D01*
X78337000Y-70204000D01*
X77485000Y-70204000D01*
X77485000Y-69828999D01*
X77482598Y-69804613D01*
X77475485Y-69781164D01*
X77463934Y-69759553D01*
X77448389Y-69740611D01*
X77429447Y-69725066D01*
X77407836Y-69713515D01*
X77384387Y-69706402D01*
X77360001Y-69704000D01*
X77026345Y-69704000D01*
X77025485Y-69701164D01*
X77013934Y-69679553D01*
X76998389Y-69660611D01*
X76979447Y-69645066D01*
X76957836Y-69633515D01*
X76934387Y-69626402D01*
X76910001Y-69624000D01*
X76160000Y-69624000D01*
X76160000Y-67282000D01*
X76910001Y-67282000D01*
X76934387Y-67279598D01*
X76957836Y-67272485D01*
X76979447Y-67260934D01*
X76998389Y-67245389D01*
X77013934Y-67226447D01*
X77025485Y-67204836D01*
X77026345Y-67202000D01*
X77360001Y-67202000D01*
X77384387Y-67199598D01*
X77407836Y-67192485D01*
X77429447Y-67180934D01*
X77448389Y-67165389D01*
X77463934Y-67146447D01*
X77475485Y-67124836D01*
X77482598Y-67101387D01*
X77485000Y-67077001D01*
X77485000Y-66702000D01*
X78337000Y-66702000D01*
X78337000Y-67077001D01*
X78337000Y-67077001D01*
G37*
G36*
X81688938Y-69425716D02*
G01*
X81709557Y-69431971D01*
X81728553Y-69442124D01*
X81745208Y-69455792D01*
X81758876Y-69472447D01*
X81769029Y-69491443D01*
X81775284Y-69512062D01*
X81778000Y-69539640D01*
X81778000Y-69998360D01*
X81775284Y-70025938D01*
X81769029Y-70046557D01*
X81758876Y-70065553D01*
X81745208Y-70082208D01*
X81728553Y-70095876D01*
X81709557Y-70106029D01*
X81688938Y-70112284D01*
X81661360Y-70115000D01*
X81152640Y-70115000D01*
X81125062Y-70112284D01*
X81104443Y-70106029D01*
X81085447Y-70095876D01*
X81068792Y-70082208D01*
X81055124Y-70065553D01*
X81044971Y-70046557D01*
X81038716Y-70025938D01*
X81036000Y-69998360D01*
X81036000Y-69539640D01*
X81038716Y-69512062D01*
X81044971Y-69491443D01*
X81055124Y-69472447D01*
X81068792Y-69455792D01*
X81085447Y-69442124D01*
X81104443Y-69431971D01*
X81125062Y-69425716D01*
X81152640Y-69423000D01*
X81661360Y-69423000D01*
X81688938Y-69425716D01*
X81688938Y-69425716D01*
G37*
G36*
X87423000Y-69854000D02*
G01*
X86821000Y-69854000D01*
X86821000Y-69252000D01*
X87423000Y-69252000D01*
X87423000Y-69854000D01*
X87423000Y-69854000D01*
G37*
G36*
X85391000Y-69854000D02*
G01*
X84789000Y-69854000D01*
X84789000Y-69252000D01*
X85391000Y-69252000D01*
X85391000Y-69854000D01*
X85391000Y-69854000D01*
G37*
G36*
X49995855Y-67900140D02*
G01*
X50059618Y-67906420D01*
X50144880Y-67932284D01*
X50182336Y-67943646D01*
X50295425Y-68004094D01*
X50394554Y-68085446D01*
X50475906Y-68184575D01*
X50536354Y-68297664D01*
X50536355Y-68297668D01*
X50573580Y-68420382D01*
X50586149Y-68548000D01*
X50573580Y-68675618D01*
X50546040Y-68766404D01*
X50536354Y-68798336D01*
X50475906Y-68911425D01*
X50394554Y-69010554D01*
X50295425Y-69091906D01*
X50182336Y-69152354D01*
X50150404Y-69162040D01*
X50059618Y-69189580D01*
X49995855Y-69195860D01*
X49963974Y-69199000D01*
X49350026Y-69199000D01*
X49318145Y-69195860D01*
X49254382Y-69189580D01*
X49163596Y-69162040D01*
X49131664Y-69152354D01*
X49018575Y-69091906D01*
X48919446Y-69010554D01*
X48838094Y-68911425D01*
X48777646Y-68798336D01*
X48767960Y-68766404D01*
X48740420Y-68675618D01*
X48727851Y-68548000D01*
X48740420Y-68420382D01*
X48777645Y-68297668D01*
X48777646Y-68297664D01*
X48838094Y-68184575D01*
X48919446Y-68085446D01*
X49018575Y-68004094D01*
X49131664Y-67943646D01*
X49169120Y-67932284D01*
X49254382Y-67906420D01*
X49318145Y-67900140D01*
X49350026Y-67897000D01*
X49963974Y-67897000D01*
X49995855Y-67900140D01*
X49995855Y-67900140D01*
G37*
G36*
X83695938Y-68338716D02*
G01*
X83716557Y-68344971D01*
X83735553Y-68355124D01*
X83752208Y-68368792D01*
X83765876Y-68385447D01*
X83776029Y-68404443D01*
X83782284Y-68425062D01*
X83785000Y-68452640D01*
X83785000Y-68961360D01*
X83782284Y-68988938D01*
X83776029Y-69009557D01*
X83765876Y-69028553D01*
X83752208Y-69045208D01*
X83735553Y-69058876D01*
X83716557Y-69069029D01*
X83695938Y-69075284D01*
X83668360Y-69078000D01*
X83209640Y-69078000D01*
X83182062Y-69075284D01*
X83161443Y-69069029D01*
X83142447Y-69058876D01*
X83125792Y-69045208D01*
X83112124Y-69028553D01*
X83101971Y-69009557D01*
X83095716Y-68988938D01*
X83093000Y-68961360D01*
X83093000Y-68452640D01*
X83095716Y-68425062D01*
X83101971Y-68404443D01*
X83112124Y-68385447D01*
X83125792Y-68368792D01*
X83142447Y-68355124D01*
X83161443Y-68344971D01*
X83182062Y-68338716D01*
X83209640Y-68336000D01*
X83668360Y-68336000D01*
X83695938Y-68338716D01*
X83695938Y-68338716D01*
G37*
G36*
X82725938Y-68338716D02*
G01*
X82746557Y-68344971D01*
X82765553Y-68355124D01*
X82782208Y-68368792D01*
X82795876Y-68385447D01*
X82806029Y-68404443D01*
X82812284Y-68425062D01*
X82815000Y-68452640D01*
X82815000Y-68961360D01*
X82812284Y-68988938D01*
X82806029Y-69009557D01*
X82795876Y-69028553D01*
X82782208Y-69045208D01*
X82765553Y-69058876D01*
X82746557Y-69069029D01*
X82725938Y-69075284D01*
X82698360Y-69078000D01*
X82239640Y-69078000D01*
X82212062Y-69075284D01*
X82191443Y-69069029D01*
X82172447Y-69058876D01*
X82155792Y-69045208D01*
X82142124Y-69028553D01*
X82131971Y-69009557D01*
X82125716Y-68988938D01*
X82123000Y-68961360D01*
X82123000Y-68452640D01*
X82125716Y-68425062D01*
X82131971Y-68404443D01*
X82142124Y-68385447D01*
X82155792Y-68368792D01*
X82172447Y-68355124D01*
X82191443Y-68344971D01*
X82212062Y-68338716D01*
X82239640Y-68336000D01*
X82698360Y-68336000D01*
X82725938Y-68338716D01*
X82725938Y-68338716D01*
G37*
G36*
X75567938Y-67449716D02*
G01*
X75588557Y-67455971D01*
X75607553Y-67466124D01*
X75624208Y-67479792D01*
X75637876Y-67496447D01*
X75648029Y-67515443D01*
X75654284Y-67536062D01*
X75657000Y-67563640D01*
X75657000Y-68072360D01*
X75654284Y-68099938D01*
X75648029Y-68120557D01*
X75637876Y-68139553D01*
X75624208Y-68156208D01*
X75607553Y-68169876D01*
X75588557Y-68180029D01*
X75567938Y-68186284D01*
X75540360Y-68189000D01*
X75081640Y-68189000D01*
X75054062Y-68186284D01*
X75033443Y-68180029D01*
X75014447Y-68169876D01*
X74997792Y-68156208D01*
X74984124Y-68139553D01*
X74973971Y-68120557D01*
X74967716Y-68099938D01*
X74965000Y-68072360D01*
X74965000Y-67563640D01*
X74967716Y-67536062D01*
X74973971Y-67515443D01*
X74984124Y-67496447D01*
X74997792Y-67479792D01*
X75014447Y-67466124D01*
X75033443Y-67455971D01*
X75054062Y-67449716D01*
X75081640Y-67447000D01*
X75540360Y-67447000D01*
X75567938Y-67449716D01*
X75567938Y-67449716D01*
G37*
G36*
X74597938Y-67449716D02*
G01*
X74618557Y-67455971D01*
X74637553Y-67466124D01*
X74654208Y-67479792D01*
X74667876Y-67496447D01*
X74678029Y-67515443D01*
X74684284Y-67536062D01*
X74687000Y-67563640D01*
X74687000Y-68072360D01*
X74684284Y-68099938D01*
X74678029Y-68120557D01*
X74667876Y-68139553D01*
X74654208Y-68156208D01*
X74637553Y-68169876D01*
X74618557Y-68180029D01*
X74597938Y-68186284D01*
X74570360Y-68189000D01*
X74111640Y-68189000D01*
X74084062Y-68186284D01*
X74063443Y-68180029D01*
X74044447Y-68169876D01*
X74027792Y-68156208D01*
X74014124Y-68139553D01*
X74003971Y-68120557D01*
X73997716Y-68099938D01*
X73995000Y-68072360D01*
X73995000Y-67563640D01*
X73997716Y-67536062D01*
X74003971Y-67515443D01*
X74014124Y-67496447D01*
X74027792Y-67479792D01*
X74044447Y-67466124D01*
X74063443Y-67455971D01*
X74084062Y-67449716D01*
X74111640Y-67447000D01*
X74570360Y-67447000D01*
X74597938Y-67449716D01*
X74597938Y-67449716D01*
G37*
G36*
X142985903Y-65726075D02*
G01*
X143101605Y-65774000D01*
X143213571Y-65820378D01*
X143418466Y-65957285D01*
X143592715Y-66131534D01*
X143729622Y-66336429D01*
X143729623Y-66336431D01*
X143823925Y-66564097D01*
X143872000Y-66805786D01*
X143872000Y-67052214D01*
X143823925Y-67293903D01*
X143746928Y-67479792D01*
X143729622Y-67521571D01*
X143592715Y-67726466D01*
X143418466Y-67900715D01*
X143213571Y-68037622D01*
X143213570Y-68037623D01*
X143213569Y-68037623D01*
X142985903Y-68131925D01*
X142744214Y-68180000D01*
X142497786Y-68180000D01*
X142256097Y-68131925D01*
X142028431Y-68037623D01*
X142028430Y-68037623D01*
X142028429Y-68037622D01*
X141823534Y-67900715D01*
X141649285Y-67726466D01*
X141512378Y-67521571D01*
X141495073Y-67479792D01*
X141418075Y-67293903D01*
X141370000Y-67052214D01*
X141370000Y-66805786D01*
X141418075Y-66564097D01*
X141512377Y-66336431D01*
X141512378Y-66336429D01*
X141649285Y-66131534D01*
X141823534Y-65957285D01*
X142028429Y-65820378D01*
X142140396Y-65774000D01*
X142256097Y-65726075D01*
X142497786Y-65678000D01*
X142744214Y-65678000D01*
X142985903Y-65726075D01*
X142985903Y-65726075D01*
G37*
G36*
X137905903Y-65726075D02*
G01*
X138021605Y-65774000D01*
X138133571Y-65820378D01*
X138338466Y-65957285D01*
X138512715Y-66131534D01*
X138649622Y-66336429D01*
X138649623Y-66336431D01*
X138743925Y-66564097D01*
X138792000Y-66805786D01*
X138792000Y-67052214D01*
X138743925Y-67293903D01*
X138666928Y-67479792D01*
X138649622Y-67521571D01*
X138512715Y-67726466D01*
X138338466Y-67900715D01*
X138133571Y-68037622D01*
X138133570Y-68037623D01*
X138133569Y-68037623D01*
X137905903Y-68131925D01*
X137664214Y-68180000D01*
X137417786Y-68180000D01*
X137176097Y-68131925D01*
X136948431Y-68037623D01*
X136948430Y-68037623D01*
X136948429Y-68037622D01*
X136743534Y-67900715D01*
X136569285Y-67726466D01*
X136432378Y-67521571D01*
X136415073Y-67479792D01*
X136338075Y-67293903D01*
X136290000Y-67052214D01*
X136290000Y-66805786D01*
X136338075Y-66564097D01*
X136432377Y-66336431D01*
X136432378Y-66336429D01*
X136569285Y-66131534D01*
X136743534Y-65957285D01*
X136948429Y-65820378D01*
X137060396Y-65774000D01*
X137176097Y-65726075D01*
X137417786Y-65678000D01*
X137664214Y-65678000D01*
X137905903Y-65726075D01*
X137905903Y-65726075D01*
G37*
G36*
X148065903Y-65726075D02*
G01*
X148181605Y-65774000D01*
X148293571Y-65820378D01*
X148498466Y-65957285D01*
X148672715Y-66131534D01*
X148809622Y-66336429D01*
X148809623Y-66336431D01*
X148903925Y-66564097D01*
X148952000Y-66805786D01*
X148952000Y-67052214D01*
X148903925Y-67293903D01*
X148826928Y-67479792D01*
X148809622Y-67521571D01*
X148672715Y-67726466D01*
X148498466Y-67900715D01*
X148293571Y-68037622D01*
X148293570Y-68037623D01*
X148293569Y-68037623D01*
X148065903Y-68131925D01*
X147824214Y-68180000D01*
X147577786Y-68180000D01*
X147336097Y-68131925D01*
X147108431Y-68037623D01*
X147108430Y-68037623D01*
X147108429Y-68037622D01*
X146903534Y-67900715D01*
X146729285Y-67726466D01*
X146592378Y-67521571D01*
X146575073Y-67479792D01*
X146498075Y-67293903D01*
X146450000Y-67052214D01*
X146450000Y-66805786D01*
X146498075Y-66564097D01*
X146592377Y-66336431D01*
X146592378Y-66336429D01*
X146729285Y-66131534D01*
X146903534Y-65957285D01*
X147108429Y-65820378D01*
X147220396Y-65774000D01*
X147336097Y-65726075D01*
X147577786Y-65678000D01*
X147824214Y-65678000D01*
X148065903Y-65726075D01*
X148065903Y-65726075D01*
G37*
G36*
X82679938Y-67195716D02*
G01*
X82700557Y-67201971D01*
X82719553Y-67212124D01*
X82736208Y-67225792D01*
X82749876Y-67242447D01*
X82760029Y-67261443D01*
X82766284Y-67282062D01*
X82769000Y-67309640D01*
X82769000Y-67818360D01*
X82766284Y-67845938D01*
X82760029Y-67866557D01*
X82749876Y-67885553D01*
X82736208Y-67902208D01*
X82719553Y-67915876D01*
X82700557Y-67926029D01*
X82679938Y-67932284D01*
X82652360Y-67935000D01*
X82193640Y-67935000D01*
X82166062Y-67932284D01*
X82145443Y-67926029D01*
X82126447Y-67915876D01*
X82109792Y-67902208D01*
X82096124Y-67885553D01*
X82085971Y-67866557D01*
X82079716Y-67845938D01*
X82077000Y-67818360D01*
X82077000Y-67309640D01*
X82079716Y-67282062D01*
X82085971Y-67261443D01*
X82096124Y-67242447D01*
X82109792Y-67225792D01*
X82126447Y-67212124D01*
X82145443Y-67201971D01*
X82166062Y-67195716D01*
X82193640Y-67193000D01*
X82652360Y-67193000D01*
X82679938Y-67195716D01*
X82679938Y-67195716D01*
G37*
G36*
X83649938Y-67195716D02*
G01*
X83670557Y-67201971D01*
X83689553Y-67212124D01*
X83706208Y-67225792D01*
X83719876Y-67242447D01*
X83730029Y-67261443D01*
X83736284Y-67282062D01*
X83739000Y-67309640D01*
X83739000Y-67818360D01*
X83736284Y-67845938D01*
X83730029Y-67866557D01*
X83719876Y-67885553D01*
X83706208Y-67902208D01*
X83689553Y-67915876D01*
X83670557Y-67926029D01*
X83649938Y-67932284D01*
X83622360Y-67935000D01*
X83163640Y-67935000D01*
X83136062Y-67932284D01*
X83115443Y-67926029D01*
X83096447Y-67915876D01*
X83079792Y-67902208D01*
X83066124Y-67885553D01*
X83055971Y-67866557D01*
X83049716Y-67845938D01*
X83047000Y-67818360D01*
X83047000Y-67309640D01*
X83049716Y-67282062D01*
X83055971Y-67261443D01*
X83066124Y-67242447D01*
X83079792Y-67225792D01*
X83096447Y-67212124D01*
X83115443Y-67201971D01*
X83136062Y-67195716D01*
X83163640Y-67193000D01*
X83622360Y-67193000D01*
X83649938Y-67195716D01*
X83649938Y-67195716D01*
G37*
G36*
X87423000Y-67654000D02*
G01*
X86821000Y-67654000D01*
X86821000Y-67052000D01*
X87423000Y-67052000D01*
X87423000Y-67654000D01*
X87423000Y-67654000D01*
G37*
G36*
X85391000Y-67654000D02*
G01*
X84789000Y-67654000D01*
X84789000Y-67052000D01*
X85391000Y-67052000D01*
X85391000Y-67654000D01*
X85391000Y-67654000D01*
G37*
G36*
X81688938Y-66839716D02*
G01*
X81709557Y-66845971D01*
X81728553Y-66856124D01*
X81745208Y-66869792D01*
X81758876Y-66886447D01*
X81769029Y-66905443D01*
X81775284Y-66926062D01*
X81778000Y-66953640D01*
X81778000Y-67412360D01*
X81775284Y-67439938D01*
X81769029Y-67460557D01*
X81758876Y-67479553D01*
X81745208Y-67496208D01*
X81728553Y-67509876D01*
X81709557Y-67520029D01*
X81688938Y-67526284D01*
X81661360Y-67529000D01*
X81152640Y-67529000D01*
X81125062Y-67526284D01*
X81104443Y-67520029D01*
X81085447Y-67509876D01*
X81068792Y-67496208D01*
X81055124Y-67479553D01*
X81044971Y-67460557D01*
X81038716Y-67439938D01*
X81036000Y-67412360D01*
X81036000Y-66953640D01*
X81038716Y-66926062D01*
X81044971Y-66905443D01*
X81055124Y-66886447D01*
X81068792Y-66869792D01*
X81085447Y-66856124D01*
X81104443Y-66845971D01*
X81125062Y-66839716D01*
X81152640Y-66837000D01*
X81661360Y-66837000D01*
X81688938Y-66839716D01*
X81688938Y-66839716D01*
G37*
G36*
X49992321Y-65899792D02*
G01*
X50059618Y-65906420D01*
X50150404Y-65933960D01*
X50182336Y-65943646D01*
X50295425Y-66004094D01*
X50394554Y-66085446D01*
X50475906Y-66184575D01*
X50536354Y-66297664D01*
X50536355Y-66297668D01*
X50573580Y-66420382D01*
X50586149Y-66548000D01*
X50573580Y-66675618D01*
X50556831Y-66730831D01*
X50536354Y-66798336D01*
X50475906Y-66911425D01*
X50394554Y-67010554D01*
X50295425Y-67091906D01*
X50182336Y-67152354D01*
X50150404Y-67162040D01*
X50059618Y-67189580D01*
X49997317Y-67195716D01*
X49963974Y-67199000D01*
X49350026Y-67199000D01*
X49316683Y-67195716D01*
X49254382Y-67189580D01*
X49163596Y-67162040D01*
X49131664Y-67152354D01*
X49018575Y-67091906D01*
X48919446Y-67010554D01*
X48838094Y-66911425D01*
X48777646Y-66798336D01*
X48757169Y-66730831D01*
X48740420Y-66675618D01*
X48727851Y-66548000D01*
X48740420Y-66420382D01*
X48777645Y-66297668D01*
X48777646Y-66297664D01*
X48838094Y-66184575D01*
X48919446Y-66085446D01*
X49018575Y-66004094D01*
X49131664Y-65943646D01*
X49163596Y-65933960D01*
X49254382Y-65906420D01*
X49321679Y-65899792D01*
X49350026Y-65897000D01*
X49963974Y-65897000D01*
X49992321Y-65899792D01*
X49992321Y-65899792D01*
G37*
G36*
X80524604Y-65495347D02*
G01*
X80561144Y-65506432D01*
X80594821Y-65524433D01*
X80624341Y-65548659D01*
X80648567Y-65578179D01*
X80666568Y-65611856D01*
X80677653Y-65648396D01*
X80682000Y-65692538D01*
X80682000Y-66641462D01*
X80677653Y-66685604D01*
X80666568Y-66722144D01*
X80648567Y-66755821D01*
X80624341Y-66785341D01*
X80594821Y-66809567D01*
X80561144Y-66827568D01*
X80524604Y-66838653D01*
X80480462Y-66843000D01*
X79031538Y-66843000D01*
X78987396Y-66838653D01*
X78950856Y-66827568D01*
X78917179Y-66809567D01*
X78887659Y-66785341D01*
X78863433Y-66755821D01*
X78845432Y-66722144D01*
X78834347Y-66685604D01*
X78830000Y-66641462D01*
X78830000Y-65692538D01*
X78834347Y-65648396D01*
X78845432Y-65611856D01*
X78863433Y-65578179D01*
X78887659Y-65548659D01*
X78917179Y-65524433D01*
X78950856Y-65506432D01*
X78987396Y-65495347D01*
X79031538Y-65491000D01*
X80480462Y-65491000D01*
X80524604Y-65495347D01*
X80524604Y-65495347D01*
G37*
G36*
X76841604Y-65495347D02*
G01*
X76878144Y-65506432D01*
X76911821Y-65524433D01*
X76941341Y-65548659D01*
X76965567Y-65578179D01*
X76983568Y-65611856D01*
X76994653Y-65648396D01*
X76999000Y-65692538D01*
X76999000Y-66641462D01*
X76994653Y-66685604D01*
X76983568Y-66722144D01*
X76965567Y-66755821D01*
X76941341Y-66785341D01*
X76911821Y-66809567D01*
X76878144Y-66827568D01*
X76841604Y-66838653D01*
X76797462Y-66843000D01*
X75348538Y-66843000D01*
X75304396Y-66838653D01*
X75267856Y-66827568D01*
X75234179Y-66809567D01*
X75204659Y-66785341D01*
X75180433Y-66755821D01*
X75162432Y-66722144D01*
X75151347Y-66685604D01*
X75147000Y-66641462D01*
X75147000Y-65692538D01*
X75151347Y-65648396D01*
X75162432Y-65611856D01*
X75180433Y-65578179D01*
X75204659Y-65548659D01*
X75234179Y-65524433D01*
X75267856Y-65506432D01*
X75304396Y-65495347D01*
X75348538Y-65491000D01*
X76797462Y-65491000D01*
X76841604Y-65495347D01*
X76841604Y-65495347D01*
G37*
G36*
X82704938Y-66054716D02*
G01*
X82725557Y-66060971D01*
X82744553Y-66071124D01*
X82761208Y-66084792D01*
X82774876Y-66101447D01*
X82785029Y-66120443D01*
X82791284Y-66141062D01*
X82794000Y-66168640D01*
X82794000Y-66627360D01*
X82791284Y-66654938D01*
X82785029Y-66675557D01*
X82774876Y-66694553D01*
X82761208Y-66711208D01*
X82744553Y-66724876D01*
X82725557Y-66735029D01*
X82704938Y-66741284D01*
X82677360Y-66744000D01*
X82168640Y-66744000D01*
X82141062Y-66741284D01*
X82120443Y-66735029D01*
X82101447Y-66724876D01*
X82084792Y-66711208D01*
X82071124Y-66694553D01*
X82060971Y-66675557D01*
X82054716Y-66654938D01*
X82052000Y-66627360D01*
X82052000Y-66168640D01*
X82054716Y-66141062D01*
X82060971Y-66120443D01*
X82071124Y-66101447D01*
X82084792Y-66084792D01*
X82101447Y-66071124D01*
X82120443Y-66060971D01*
X82141062Y-66054716D01*
X82168640Y-66052000D01*
X82677360Y-66052000D01*
X82704938Y-66054716D01*
X82704938Y-66054716D01*
G37*
G36*
X81688938Y-65869716D02*
G01*
X81709557Y-65875971D01*
X81728553Y-65886124D01*
X81745208Y-65899792D01*
X81758876Y-65916447D01*
X81769029Y-65935443D01*
X81775284Y-65956062D01*
X81778000Y-65983640D01*
X81778000Y-66442360D01*
X81775284Y-66469938D01*
X81769029Y-66490557D01*
X81758876Y-66509553D01*
X81745208Y-66526208D01*
X81728553Y-66539876D01*
X81709557Y-66550029D01*
X81688938Y-66556284D01*
X81661360Y-66559000D01*
X81152640Y-66559000D01*
X81125062Y-66556284D01*
X81104443Y-66550029D01*
X81085447Y-66539876D01*
X81068792Y-66526208D01*
X81055124Y-66509553D01*
X81044971Y-66490557D01*
X81038716Y-66469938D01*
X81036000Y-66442360D01*
X81036000Y-65983640D01*
X81038716Y-65956062D01*
X81044971Y-65935443D01*
X81055124Y-65916447D01*
X81068792Y-65899792D01*
X81085447Y-65886124D01*
X81104443Y-65875971D01*
X81125062Y-65869716D01*
X81152640Y-65867000D01*
X81661360Y-65867000D01*
X81688938Y-65869716D01*
X81688938Y-65869716D01*
G37*
G36*
X123046142Y-64837242D02*
G01*
X123194101Y-64898529D01*
X123327255Y-64987499D01*
X123440501Y-65100745D01*
X123529471Y-65233899D01*
X123590758Y-65381858D01*
X123622000Y-65538925D01*
X123622000Y-65699075D01*
X123590758Y-65856142D01*
X123529471Y-66004101D01*
X123440501Y-66137255D01*
X123327255Y-66250501D01*
X123194101Y-66339471D01*
X123046142Y-66400758D01*
X122889075Y-66432000D01*
X122728925Y-66432000D01*
X122571858Y-66400758D01*
X122423899Y-66339471D01*
X122290745Y-66250501D01*
X122177499Y-66137255D01*
X122088529Y-66004101D01*
X122027242Y-65856142D01*
X121996000Y-65699075D01*
X121996000Y-65538925D01*
X122027242Y-65381858D01*
X122088529Y-65233899D01*
X122177499Y-65100745D01*
X122290745Y-64987499D01*
X122423899Y-64898529D01*
X122571858Y-64837242D01*
X122728925Y-64806000D01*
X122889075Y-64806000D01*
X123046142Y-64837242D01*
X123046142Y-64837242D01*
G37*
G36*
X115228468Y-64785565D02*
G01*
X115267138Y-64797296D01*
X115302777Y-64816346D01*
X115334017Y-64841983D01*
X115359654Y-64873223D01*
X115378704Y-64908862D01*
X115390435Y-64947532D01*
X115395000Y-64993888D01*
X115395000Y-66070112D01*
X115390435Y-66116468D01*
X115378704Y-66155138D01*
X115359654Y-66190777D01*
X115334017Y-66222017D01*
X115302777Y-66247654D01*
X115267138Y-66266704D01*
X115228468Y-66278435D01*
X115182112Y-66283000D01*
X114530888Y-66283000D01*
X114484532Y-66278435D01*
X114445862Y-66266704D01*
X114410223Y-66247654D01*
X114378983Y-66222017D01*
X114353346Y-66190777D01*
X114334296Y-66155138D01*
X114322565Y-66116468D01*
X114318000Y-66070112D01*
X114318000Y-64993888D01*
X114322565Y-64947532D01*
X114334296Y-64908862D01*
X114353346Y-64873223D01*
X114378983Y-64841983D01*
X114410223Y-64816346D01*
X114445862Y-64797296D01*
X114484532Y-64785565D01*
X114530888Y-64781000D01*
X115182112Y-64781000D01*
X115228468Y-64785565D01*
X115228468Y-64785565D01*
G37*
G36*
X113353468Y-64785565D02*
G01*
X113392138Y-64797296D01*
X113427777Y-64816346D01*
X113459017Y-64841983D01*
X113484654Y-64873223D01*
X113503704Y-64908862D01*
X113515435Y-64947532D01*
X113520000Y-64993888D01*
X113520000Y-66070112D01*
X113515435Y-66116468D01*
X113503704Y-66155138D01*
X113484654Y-66190777D01*
X113459017Y-66222017D01*
X113427777Y-66247654D01*
X113392138Y-66266704D01*
X113353468Y-66278435D01*
X113307112Y-66283000D01*
X112655888Y-66283000D01*
X112609532Y-66278435D01*
X112570862Y-66266704D01*
X112535223Y-66247654D01*
X112503983Y-66222017D01*
X112478346Y-66190777D01*
X112459296Y-66155138D01*
X112447565Y-66116468D01*
X112443000Y-66070112D01*
X112443000Y-64993888D01*
X112447565Y-64947532D01*
X112459296Y-64908862D01*
X112478346Y-64873223D01*
X112503983Y-64841983D01*
X112535223Y-64816346D01*
X112570862Y-64797296D01*
X112609532Y-64785565D01*
X112655888Y-64781000D01*
X113307112Y-64781000D01*
X113353468Y-64785565D01*
X113353468Y-64785565D01*
G37*
G36*
X100118731Y-62682611D02*
G01*
X100446492Y-62818374D01*
X100741470Y-63015472D01*
X100992328Y-63266330D01*
X101189426Y-63561308D01*
X101325189Y-63889069D01*
X101394400Y-64237016D01*
X101394400Y-64591784D01*
X101325189Y-64939731D01*
X101189426Y-65267492D01*
X100992328Y-65562470D01*
X100741470Y-65813328D01*
X100446492Y-66010426D01*
X100118731Y-66146189D01*
X99770784Y-66215400D01*
X99416016Y-66215400D01*
X99068069Y-66146189D01*
X98740308Y-66010426D01*
X98445330Y-65813328D01*
X98194472Y-65562470D01*
X97997374Y-65267492D01*
X97861611Y-64939731D01*
X97792400Y-64591784D01*
X97792400Y-64237016D01*
X97861611Y-63889069D01*
X97997374Y-63561308D01*
X98194472Y-63266330D01*
X98445330Y-63015472D01*
X98740308Y-62818374D01*
X99068069Y-62682611D01*
X99416016Y-62613400D01*
X99770784Y-62613400D01*
X100118731Y-62682611D01*
X100118731Y-62682611D01*
G37*
G36*
X82704938Y-65084716D02*
G01*
X82725557Y-65090971D01*
X82744553Y-65101124D01*
X82761208Y-65114792D01*
X82774876Y-65131447D01*
X82785029Y-65150443D01*
X82791284Y-65171062D01*
X82794000Y-65198640D01*
X82794000Y-65657360D01*
X82791284Y-65684938D01*
X82785029Y-65705557D01*
X82774876Y-65724553D01*
X82761208Y-65741208D01*
X82744553Y-65754876D01*
X82725557Y-65765029D01*
X82704938Y-65771284D01*
X82677360Y-65774000D01*
X82168640Y-65774000D01*
X82141062Y-65771284D01*
X82120443Y-65765029D01*
X82101447Y-65754876D01*
X82084792Y-65741208D01*
X82071124Y-65724553D01*
X82060971Y-65705557D01*
X82054716Y-65684938D01*
X82052000Y-65657360D01*
X82052000Y-65198640D01*
X82054716Y-65171062D01*
X82060971Y-65150443D01*
X82071124Y-65131447D01*
X82084792Y-65114792D01*
X82101447Y-65101124D01*
X82120443Y-65090971D01*
X82141062Y-65084716D01*
X82168640Y-65082000D01*
X82677360Y-65082000D01*
X82704938Y-65084716D01*
X82704938Y-65084716D01*
G37*
G36*
X80524604Y-62695347D02*
G01*
X80561144Y-62706432D01*
X80594821Y-62724433D01*
X80624341Y-62748659D01*
X80648567Y-62778179D01*
X80666568Y-62811856D01*
X80677653Y-62848396D01*
X80682000Y-62892538D01*
X80682000Y-63841462D01*
X80677653Y-63885604D01*
X80666568Y-63922144D01*
X80648567Y-63955821D01*
X80624341Y-63985341D01*
X80594821Y-64009567D01*
X80561144Y-64027568D01*
X80524604Y-64038653D01*
X80480462Y-64043000D01*
X79031538Y-64043000D01*
X78987396Y-64038653D01*
X78950856Y-64027568D01*
X78917179Y-64009567D01*
X78887659Y-63985341D01*
X78863433Y-63955821D01*
X78845432Y-63922144D01*
X78834347Y-63885604D01*
X78830000Y-63841462D01*
X78830000Y-62892538D01*
X78834347Y-62848396D01*
X78845432Y-62811856D01*
X78863433Y-62778179D01*
X78887659Y-62748659D01*
X78917179Y-62724433D01*
X78950856Y-62706432D01*
X78987396Y-62695347D01*
X79031538Y-62691000D01*
X80480462Y-62691000D01*
X80524604Y-62695347D01*
X80524604Y-62695347D01*
G37*
G36*
X76841604Y-62695347D02*
G01*
X76878144Y-62706432D01*
X76911821Y-62724433D01*
X76941341Y-62748659D01*
X76965567Y-62778179D01*
X76983568Y-62811856D01*
X76994653Y-62848396D01*
X76999000Y-62892538D01*
X76999000Y-63841462D01*
X76994653Y-63885604D01*
X76983568Y-63922144D01*
X76965567Y-63955821D01*
X76941341Y-63985341D01*
X76911821Y-64009567D01*
X76878144Y-64027568D01*
X76841604Y-64038653D01*
X76797462Y-64043000D01*
X75348538Y-64043000D01*
X75304396Y-64038653D01*
X75267856Y-64027568D01*
X75234179Y-64009567D01*
X75204659Y-63985341D01*
X75180433Y-63955821D01*
X75162432Y-63922144D01*
X75151347Y-63885604D01*
X75147000Y-63841462D01*
X75147000Y-62892538D01*
X75151347Y-62848396D01*
X75162432Y-62811856D01*
X75180433Y-62778179D01*
X75204659Y-62748659D01*
X75234179Y-62724433D01*
X75267856Y-62706432D01*
X75304396Y-62695347D01*
X75348538Y-62691000D01*
X76797462Y-62691000D01*
X76841604Y-62695347D01*
X76841604Y-62695347D01*
G37*
G36*
X162797142Y-62297242D02*
G01*
X162945101Y-62358529D01*
X163078255Y-62447499D01*
X163191501Y-62560745D01*
X163280471Y-62693899D01*
X163341758Y-62841858D01*
X163373000Y-62998925D01*
X163373000Y-63159075D01*
X163341758Y-63316142D01*
X163280471Y-63464101D01*
X163191501Y-63597255D01*
X163078255Y-63710501D01*
X162945101Y-63799471D01*
X162797142Y-63860758D01*
X162640075Y-63892000D01*
X162479925Y-63892000D01*
X162322858Y-63860758D01*
X162174899Y-63799471D01*
X162041745Y-63710501D01*
X161928499Y-63597255D01*
X161839529Y-63464101D01*
X161778242Y-63316142D01*
X161747000Y-63159075D01*
X161747000Y-62998925D01*
X161778242Y-62841858D01*
X161839529Y-62693899D01*
X161928499Y-62560745D01*
X162041745Y-62447499D01*
X162174899Y-62358529D01*
X162322858Y-62297242D01*
X162479925Y-62266000D01*
X162640075Y-62266000D01*
X162797142Y-62297242D01*
X162797142Y-62297242D01*
G37*
G36*
X54018798Y-60127247D02*
G01*
X54054367Y-60138037D01*
X54087139Y-60155554D01*
X54115869Y-60179131D01*
X54139446Y-60207861D01*
X54156963Y-60240633D01*
X54167753Y-60276202D01*
X54172000Y-60319325D01*
X54172000Y-63378675D01*
X54167753Y-63421798D01*
X54156963Y-63457367D01*
X54139446Y-63490139D01*
X54115869Y-63518869D01*
X54087139Y-63542446D01*
X54054367Y-63559963D01*
X54018798Y-63570753D01*
X53975675Y-63575000D01*
X52916325Y-63575000D01*
X52873202Y-63570753D01*
X52837633Y-63559963D01*
X52804861Y-63542446D01*
X52776131Y-63518869D01*
X52752554Y-63490139D01*
X52735037Y-63457367D01*
X52724247Y-63421798D01*
X52720000Y-63378675D01*
X52720000Y-60319325D01*
X52724247Y-60276202D01*
X52735037Y-60240633D01*
X52752554Y-60207861D01*
X52776131Y-60179131D01*
X52804861Y-60155554D01*
X52837633Y-60138037D01*
X52873202Y-60127247D01*
X52916325Y-60123000D01*
X53975675Y-60123000D01*
X54018798Y-60127247D01*
X54018798Y-60127247D01*
G37*
G36*
X48218798Y-60127247D02*
G01*
X48254367Y-60138037D01*
X48287139Y-60155554D01*
X48315869Y-60179131D01*
X48339446Y-60207861D01*
X48356963Y-60240633D01*
X48367753Y-60276202D01*
X48372000Y-60319325D01*
X48372000Y-63378675D01*
X48367753Y-63421798D01*
X48356963Y-63457367D01*
X48339446Y-63490139D01*
X48315869Y-63518869D01*
X48287139Y-63542446D01*
X48254367Y-63559963D01*
X48218798Y-63570753D01*
X48175675Y-63575000D01*
X47116325Y-63575000D01*
X47073202Y-63570753D01*
X47037633Y-63559963D01*
X47004861Y-63542446D01*
X46976131Y-63518869D01*
X46952554Y-63490139D01*
X46935037Y-63457367D01*
X46924247Y-63421798D01*
X46920000Y-63378675D01*
X46920000Y-60319325D01*
X46924247Y-60276202D01*
X46935037Y-60240633D01*
X46952554Y-60207861D01*
X46976131Y-60179131D01*
X47004861Y-60155554D01*
X47037633Y-60138037D01*
X47073202Y-60127247D01*
X47116325Y-60123000D01*
X48175675Y-60123000D01*
X48218798Y-60127247D01*
X48218798Y-60127247D01*
G37*
G36*
X109543468Y-61864565D02*
G01*
X109582138Y-61876296D01*
X109617777Y-61895346D01*
X109649017Y-61920983D01*
X109674654Y-61952223D01*
X109693704Y-61987862D01*
X109705435Y-62026532D01*
X109710000Y-62072888D01*
X109710000Y-63149112D01*
X109705435Y-63195468D01*
X109693704Y-63234138D01*
X109674654Y-63269777D01*
X109649017Y-63301017D01*
X109617777Y-63326654D01*
X109582138Y-63345704D01*
X109543468Y-63357435D01*
X109497112Y-63362000D01*
X108845888Y-63362000D01*
X108799532Y-63357435D01*
X108760862Y-63345704D01*
X108725223Y-63326654D01*
X108693983Y-63301017D01*
X108668346Y-63269777D01*
X108649296Y-63234138D01*
X108637565Y-63195468D01*
X108633000Y-63149112D01*
X108633000Y-62072888D01*
X108637565Y-62026532D01*
X108649296Y-61987862D01*
X108668346Y-61952223D01*
X108693983Y-61920983D01*
X108725223Y-61895346D01*
X108760862Y-61876296D01*
X108799532Y-61864565D01*
X108845888Y-61860000D01*
X109497112Y-61860000D01*
X109543468Y-61864565D01*
X109543468Y-61864565D01*
G37*
G36*
X111418468Y-61864565D02*
G01*
X111457138Y-61876296D01*
X111492777Y-61895346D01*
X111524017Y-61920983D01*
X111549654Y-61952223D01*
X111568704Y-61987862D01*
X111580435Y-62026532D01*
X111585000Y-62072888D01*
X111585000Y-63149112D01*
X111580435Y-63195468D01*
X111568704Y-63234138D01*
X111549654Y-63269777D01*
X111524017Y-63301017D01*
X111492777Y-63326654D01*
X111457138Y-63345704D01*
X111418468Y-63357435D01*
X111372112Y-63362000D01*
X110720888Y-63362000D01*
X110674532Y-63357435D01*
X110635862Y-63345704D01*
X110600223Y-63326654D01*
X110568983Y-63301017D01*
X110543346Y-63269777D01*
X110524296Y-63234138D01*
X110512565Y-63195468D01*
X110508000Y-63149112D01*
X110508000Y-62072888D01*
X110512565Y-62026532D01*
X110524296Y-61987862D01*
X110543346Y-61952223D01*
X110568983Y-61920983D01*
X110600223Y-61895346D01*
X110635862Y-61876296D01*
X110674532Y-61864565D01*
X110720888Y-61860000D01*
X111372112Y-61860000D01*
X111418468Y-61864565D01*
X111418468Y-61864565D01*
G37*
G36*
X173696968Y-61737565D02*
G01*
X173735638Y-61749296D01*
X173771277Y-61768346D01*
X173802517Y-61793983D01*
X173828154Y-61825223D01*
X173847204Y-61860862D01*
X173858935Y-61899532D01*
X173863500Y-61945888D01*
X173863500Y-63022112D01*
X173858935Y-63068468D01*
X173847204Y-63107138D01*
X173828154Y-63142777D01*
X173802517Y-63174017D01*
X173771277Y-63199654D01*
X173735638Y-63218704D01*
X173696968Y-63230435D01*
X173650612Y-63235000D01*
X172999388Y-63235000D01*
X172953032Y-63230435D01*
X172914362Y-63218704D01*
X172878723Y-63199654D01*
X172847483Y-63174017D01*
X172821846Y-63142777D01*
X172802796Y-63107138D01*
X172791065Y-63068468D01*
X172786500Y-63022112D01*
X172786500Y-61945888D01*
X172791065Y-61899532D01*
X172802796Y-61860862D01*
X172821846Y-61825223D01*
X172847483Y-61793983D01*
X172878723Y-61768346D01*
X172914362Y-61749296D01*
X172953032Y-61737565D01*
X172999388Y-61733000D01*
X173650612Y-61733000D01*
X173696968Y-61737565D01*
X173696968Y-61737565D01*
G37*
G36*
X171821968Y-61737565D02*
G01*
X171860638Y-61749296D01*
X171896277Y-61768346D01*
X171927517Y-61793983D01*
X171953154Y-61825223D01*
X171972204Y-61860862D01*
X171983935Y-61899532D01*
X171988500Y-61945888D01*
X171988500Y-63022112D01*
X171983935Y-63068468D01*
X171972204Y-63107138D01*
X171953154Y-63142777D01*
X171927517Y-63174017D01*
X171896277Y-63199654D01*
X171860638Y-63218704D01*
X171821968Y-63230435D01*
X171775612Y-63235000D01*
X171124388Y-63235000D01*
X171078032Y-63230435D01*
X171039362Y-63218704D01*
X171003723Y-63199654D01*
X170972483Y-63174017D01*
X170946846Y-63142777D01*
X170927796Y-63107138D01*
X170916065Y-63068468D01*
X170911500Y-63022112D01*
X170911500Y-61945888D01*
X170916065Y-61899532D01*
X170927796Y-61860862D01*
X170946846Y-61825223D01*
X170972483Y-61793983D01*
X171003723Y-61768346D01*
X171039362Y-61749296D01*
X171078032Y-61737565D01*
X171124388Y-61733000D01*
X171775612Y-61733000D01*
X171821968Y-61737565D01*
X171821968Y-61737565D01*
G37*
G36*
X177227468Y-61737565D02*
G01*
X177266138Y-61749296D01*
X177301777Y-61768346D01*
X177333017Y-61793983D01*
X177358654Y-61825223D01*
X177377704Y-61860862D01*
X177389435Y-61899532D01*
X177394000Y-61945888D01*
X177394000Y-63022112D01*
X177389435Y-63068468D01*
X177377704Y-63107138D01*
X177358654Y-63142777D01*
X177333017Y-63174017D01*
X177301777Y-63199654D01*
X177266138Y-63218704D01*
X177227468Y-63230435D01*
X177181112Y-63235000D01*
X176529888Y-63235000D01*
X176483532Y-63230435D01*
X176444862Y-63218704D01*
X176409223Y-63199654D01*
X176377983Y-63174017D01*
X176352346Y-63142777D01*
X176333296Y-63107138D01*
X176321565Y-63068468D01*
X176317000Y-63022112D01*
X176317000Y-61945888D01*
X176321565Y-61899532D01*
X176333296Y-61860862D01*
X176352346Y-61825223D01*
X176377983Y-61793983D01*
X176409223Y-61768346D01*
X176444862Y-61749296D01*
X176483532Y-61737565D01*
X176529888Y-61733000D01*
X177181112Y-61733000D01*
X177227468Y-61737565D01*
X177227468Y-61737565D01*
G37*
G36*
X175352468Y-61737565D02*
G01*
X175391138Y-61749296D01*
X175426777Y-61768346D01*
X175458017Y-61793983D01*
X175483654Y-61825223D01*
X175502704Y-61860862D01*
X175514435Y-61899532D01*
X175519000Y-61945888D01*
X175519000Y-63022112D01*
X175514435Y-63068468D01*
X175502704Y-63107138D01*
X175483654Y-63142777D01*
X175458017Y-63174017D01*
X175426777Y-63199654D01*
X175391138Y-63218704D01*
X175352468Y-63230435D01*
X175306112Y-63235000D01*
X174654888Y-63235000D01*
X174608532Y-63230435D01*
X174569862Y-63218704D01*
X174534223Y-63199654D01*
X174502983Y-63174017D01*
X174477346Y-63142777D01*
X174458296Y-63107138D01*
X174446565Y-63068468D01*
X174442000Y-63022112D01*
X174442000Y-61945888D01*
X174446565Y-61899532D01*
X174458296Y-61860862D01*
X174477346Y-61825223D01*
X174502983Y-61793983D01*
X174534223Y-61768346D01*
X174569862Y-61749296D01*
X174608532Y-61737565D01*
X174654888Y-61733000D01*
X175306112Y-61733000D01*
X175352468Y-61737565D01*
X175352468Y-61737565D01*
G37*
G36*
X86206000Y-63185000D02*
G01*
X82704000Y-63185000D01*
X82704000Y-61783000D01*
X86206000Y-61783000D01*
X86206000Y-63185000D01*
X86206000Y-63185000D01*
G37*
G36*
X92806000Y-63185000D02*
G01*
X89304000Y-63185000D01*
X89304000Y-61783000D01*
X92806000Y-61783000D01*
X92806000Y-63185000D01*
X92806000Y-63185000D01*
G37*
G36*
X191094395Y-60894546D02*
G01*
X191267466Y-60966234D01*
X191333514Y-61010366D01*
X191423227Y-61070310D01*
X191555690Y-61202773D01*
X191555691Y-61202775D01*
X191659766Y-61358534D01*
X191731454Y-61531605D01*
X191768000Y-61715333D01*
X191768000Y-61902667D01*
X191731454Y-62086395D01*
X191659766Y-62259466D01*
X191659765Y-62259467D01*
X191555690Y-62415227D01*
X191423227Y-62547690D01*
X191344818Y-62600081D01*
X191267466Y-62651766D01*
X191094395Y-62723454D01*
X190910667Y-62760000D01*
X190723333Y-62760000D01*
X190539605Y-62723454D01*
X190366534Y-62651766D01*
X190289182Y-62600081D01*
X190210773Y-62547690D01*
X190078310Y-62415227D01*
X189974235Y-62259467D01*
X189974234Y-62259466D01*
X189902546Y-62086395D01*
X189866000Y-61902667D01*
X189866000Y-61715333D01*
X189902546Y-61531605D01*
X189974234Y-61358534D01*
X190078309Y-61202775D01*
X190078310Y-61202773D01*
X190210773Y-61070310D01*
X190300486Y-61010366D01*
X190366534Y-60966234D01*
X190539605Y-60894546D01*
X190723333Y-60858000D01*
X190910667Y-60858000D01*
X191094395Y-60894546D01*
X191094395Y-60894546D01*
G37*
G36*
X188594395Y-60894546D02*
G01*
X188767466Y-60966234D01*
X188833514Y-61010366D01*
X188923227Y-61070310D01*
X189055690Y-61202773D01*
X189055691Y-61202775D01*
X189159766Y-61358534D01*
X189231454Y-61531605D01*
X189268000Y-61715333D01*
X189268000Y-61902667D01*
X189231454Y-62086395D01*
X189159766Y-62259466D01*
X189159765Y-62259467D01*
X189055690Y-62415227D01*
X188923227Y-62547690D01*
X188844818Y-62600081D01*
X188767466Y-62651766D01*
X188594395Y-62723454D01*
X188410667Y-62760000D01*
X188223333Y-62760000D01*
X188039605Y-62723454D01*
X187866534Y-62651766D01*
X187789182Y-62600081D01*
X187710773Y-62547690D01*
X187578310Y-62415227D01*
X187474235Y-62259467D01*
X187474234Y-62259466D01*
X187402546Y-62086395D01*
X187366000Y-61902667D01*
X187366000Y-61715333D01*
X187402546Y-61531605D01*
X187474234Y-61358534D01*
X187578309Y-61202775D01*
X187578310Y-61202773D01*
X187710773Y-61070310D01*
X187800486Y-61010366D01*
X187866534Y-60966234D01*
X188039605Y-60894546D01*
X188223333Y-60858000D01*
X188410667Y-60858000D01*
X188594395Y-60894546D01*
X188594395Y-60894546D01*
G37*
G36*
X123046142Y-59837242D02*
G01*
X123194101Y-59898529D01*
X123327255Y-59987499D01*
X123440501Y-60100745D01*
X123529471Y-60233899D01*
X123590758Y-60381858D01*
X123622000Y-60538925D01*
X123622000Y-60699075D01*
X123590758Y-60856142D01*
X123529471Y-61004101D01*
X123440501Y-61137255D01*
X123327255Y-61250501D01*
X123194101Y-61339471D01*
X123046142Y-61400758D01*
X122889075Y-61432000D01*
X122728925Y-61432000D01*
X122571858Y-61400758D01*
X122423899Y-61339471D01*
X122290745Y-61250501D01*
X122177499Y-61137255D01*
X122088529Y-61004101D01*
X122027242Y-60856142D01*
X121996000Y-60699075D01*
X121996000Y-60538925D01*
X122027242Y-60381858D01*
X122088529Y-60233899D01*
X122177499Y-60100745D01*
X122290745Y-59987499D01*
X122423899Y-59898529D01*
X122571858Y-59837242D01*
X122728925Y-59806000D01*
X122889075Y-59806000D01*
X123046142Y-59837242D01*
X123046142Y-59837242D01*
G37*
G36*
X77115500Y-61324500D02*
G01*
X76513500Y-61324500D01*
X76513500Y-60722500D01*
X77115500Y-60722500D01*
X77115500Y-61324500D01*
X77115500Y-61324500D01*
G37*
G36*
X79315500Y-61324500D02*
G01*
X78713500Y-61324500D01*
X78713500Y-60722500D01*
X79315500Y-60722500D01*
X79315500Y-61324500D01*
X79315500Y-61324500D01*
G37*
G36*
X110460000Y-61311000D02*
G01*
X109758000Y-61311000D01*
X109758000Y-59659000D01*
X110460000Y-59659000D01*
X110460000Y-61311000D01*
X110460000Y-61311000D01*
G37*
G36*
X106650000Y-61311000D02*
G01*
X105948000Y-61311000D01*
X105948000Y-59659000D01*
X106650000Y-59659000D01*
X106650000Y-61311000D01*
X106650000Y-61311000D01*
G37*
G36*
X107920000Y-61311000D02*
G01*
X107218000Y-61311000D01*
X107218000Y-59659000D01*
X107920000Y-59659000D01*
X107920000Y-61311000D01*
X107920000Y-61311000D01*
G37*
G36*
X109190000Y-61311000D02*
G01*
X108488000Y-61311000D01*
X108488000Y-59659000D01*
X109190000Y-59659000D01*
X109190000Y-61311000D01*
X109190000Y-61311000D01*
G37*
G36*
X173071000Y-61151000D02*
G01*
X172369000Y-61151000D01*
X172369000Y-59499000D01*
X173071000Y-59499000D01*
X173071000Y-61151000D01*
X173071000Y-61151000D01*
G37*
G36*
X175611000Y-61151000D02*
G01*
X174909000Y-61151000D01*
X174909000Y-59499000D01*
X175611000Y-59499000D01*
X175611000Y-61151000D01*
X175611000Y-61151000D01*
G37*
G36*
X176881000Y-61151000D02*
G01*
X176179000Y-61151000D01*
X176179000Y-59499000D01*
X176881000Y-59499000D01*
X176881000Y-61151000D01*
X176881000Y-61151000D01*
G37*
G36*
X174341000Y-61151000D02*
G01*
X173639000Y-61151000D01*
X173639000Y-59499000D01*
X174341000Y-59499000D01*
X174341000Y-61151000D01*
X174341000Y-61151000D01*
G37*
G36*
X178814591Y-60145585D02*
G01*
X178848569Y-60155893D01*
X178879890Y-60172634D01*
X178907339Y-60195161D01*
X178929866Y-60222610D01*
X178946607Y-60253931D01*
X178956915Y-60287909D01*
X178961000Y-60329390D01*
X178961000Y-60930610D01*
X178956915Y-60972091D01*
X178946607Y-61006069D01*
X178929866Y-61037390D01*
X178907339Y-61064839D01*
X178879890Y-61087366D01*
X178848569Y-61104107D01*
X178814591Y-61114415D01*
X178773110Y-61118500D01*
X178096890Y-61118500D01*
X178055409Y-61114415D01*
X178021431Y-61104107D01*
X177990110Y-61087366D01*
X177962661Y-61064839D01*
X177940134Y-61037390D01*
X177923393Y-61006069D01*
X177913085Y-60972091D01*
X177909000Y-60930610D01*
X177909000Y-60329390D01*
X177913085Y-60287909D01*
X177923393Y-60253931D01*
X177940134Y-60222610D01*
X177962661Y-60195161D01*
X177990110Y-60172634D01*
X178021431Y-60155893D01*
X178055409Y-60145585D01*
X178096890Y-60141500D01*
X178773110Y-60141500D01*
X178814591Y-60145585D01*
X178814591Y-60145585D01*
G37*
G36*
X74575000Y-61118000D02*
G01*
X67973000Y-61118000D01*
X67973000Y-58516000D01*
X74575000Y-58516000D01*
X74575000Y-61118000D01*
X74575000Y-61118000D01*
G37*
G36*
X62075000Y-61118000D02*
G01*
X55473000Y-61118000D01*
X55473000Y-58516000D01*
X62075000Y-58516000D01*
X62075000Y-61118000D01*
X62075000Y-61118000D01*
G37*
G36*
X113905591Y-59993585D02*
G01*
X113939569Y-60003893D01*
X113970890Y-60020634D01*
X113998339Y-60043161D01*
X114020866Y-60070610D01*
X114037607Y-60101931D01*
X114047915Y-60135909D01*
X114052000Y-60177390D01*
X114052000Y-60853610D01*
X114047915Y-60895091D01*
X114037607Y-60929069D01*
X114020866Y-60960390D01*
X113998339Y-60987839D01*
X113970890Y-61010366D01*
X113939569Y-61027107D01*
X113905591Y-61037415D01*
X113864110Y-61041500D01*
X113262890Y-61041500D01*
X113221409Y-61037415D01*
X113187431Y-61027107D01*
X113156110Y-61010366D01*
X113128661Y-60987839D01*
X113106134Y-60960390D01*
X113089393Y-60929069D01*
X113079085Y-60895091D01*
X113075000Y-60853610D01*
X113075000Y-60177390D01*
X113079085Y-60135909D01*
X113089393Y-60101931D01*
X113106134Y-60070610D01*
X113128661Y-60043161D01*
X113156110Y-60020634D01*
X113187431Y-60003893D01*
X113221409Y-59993585D01*
X113262890Y-59989500D01*
X113864110Y-59989500D01*
X113905591Y-59993585D01*
X113905591Y-59993585D01*
G37*
G36*
X112330591Y-59993585D02*
G01*
X112364569Y-60003893D01*
X112395890Y-60020634D01*
X112423339Y-60043161D01*
X112445866Y-60070610D01*
X112462607Y-60101931D01*
X112472915Y-60135909D01*
X112477000Y-60177390D01*
X112477000Y-60853610D01*
X112472915Y-60895091D01*
X112462607Y-60929069D01*
X112445866Y-60960390D01*
X112423339Y-60987839D01*
X112395890Y-61010366D01*
X112364569Y-61027107D01*
X112330591Y-61037415D01*
X112289110Y-61041500D01*
X111687890Y-61041500D01*
X111646409Y-61037415D01*
X111612431Y-61027107D01*
X111581110Y-61010366D01*
X111553661Y-60987839D01*
X111531134Y-60960390D01*
X111514393Y-60929069D01*
X111504085Y-60895091D01*
X111500000Y-60853610D01*
X111500000Y-60177390D01*
X111504085Y-60135909D01*
X111514393Y-60101931D01*
X111531134Y-60070610D01*
X111553661Y-60043161D01*
X111581110Y-60020634D01*
X111612431Y-60003893D01*
X111646409Y-59993585D01*
X111687890Y-59989500D01*
X112289110Y-59989500D01*
X112330591Y-59993585D01*
X112330591Y-59993585D01*
G37*
G36*
X191094395Y-58394546D02*
G01*
X191267466Y-58466234D01*
X191267467Y-58466235D01*
X191423227Y-58570310D01*
X191555690Y-58702773D01*
X191565383Y-58717280D01*
X191659766Y-58858534D01*
X191731454Y-59031605D01*
X191768000Y-59215333D01*
X191768000Y-59402667D01*
X191731454Y-59586395D01*
X191659766Y-59759466D01*
X191659765Y-59759467D01*
X191555690Y-59915227D01*
X191423227Y-60047690D01*
X191347855Y-60098052D01*
X191267466Y-60151766D01*
X191094395Y-60223454D01*
X190910667Y-60260000D01*
X190723333Y-60260000D01*
X190539605Y-60223454D01*
X190366534Y-60151766D01*
X190286145Y-60098052D01*
X190210773Y-60047690D01*
X190078310Y-59915227D01*
X189974235Y-59759467D01*
X189974234Y-59759466D01*
X189902546Y-59586395D01*
X189866000Y-59402667D01*
X189866000Y-59215333D01*
X189902546Y-59031605D01*
X189974234Y-58858534D01*
X190068617Y-58717280D01*
X190078310Y-58702773D01*
X190210773Y-58570310D01*
X190366533Y-58466235D01*
X190366534Y-58466234D01*
X190539605Y-58394546D01*
X190723333Y-58358000D01*
X190910667Y-58358000D01*
X191094395Y-58394546D01*
X191094395Y-58394546D01*
G37*
G36*
X188594395Y-58394546D02*
G01*
X188767466Y-58466234D01*
X188767467Y-58466235D01*
X188923227Y-58570310D01*
X189055690Y-58702773D01*
X189065383Y-58717280D01*
X189159766Y-58858534D01*
X189231454Y-59031605D01*
X189268000Y-59215333D01*
X189268000Y-59402667D01*
X189231454Y-59586395D01*
X189159766Y-59759466D01*
X189159765Y-59759467D01*
X189055690Y-59915227D01*
X188923227Y-60047690D01*
X188847855Y-60098052D01*
X188767466Y-60151766D01*
X188594395Y-60223454D01*
X188410667Y-60260000D01*
X188223333Y-60260000D01*
X188039605Y-60223454D01*
X187866534Y-60151766D01*
X187786145Y-60098052D01*
X187710773Y-60047690D01*
X187578310Y-59915227D01*
X187474235Y-59759467D01*
X187474234Y-59759466D01*
X187402546Y-59586395D01*
X187366000Y-59402667D01*
X187366000Y-59215333D01*
X187402546Y-59031605D01*
X187474234Y-58858534D01*
X187568617Y-58717280D01*
X187578310Y-58702773D01*
X187710773Y-58570310D01*
X187866533Y-58466235D01*
X187866534Y-58466234D01*
X188039605Y-58394546D01*
X188223333Y-58358000D01*
X188410667Y-58358000D01*
X188594395Y-58394546D01*
X188594395Y-58394546D01*
G37*
G36*
X178814591Y-58570585D02*
G01*
X178848569Y-58580893D01*
X178879890Y-58597634D01*
X178907339Y-58620161D01*
X178929866Y-58647610D01*
X178946607Y-58678931D01*
X178956915Y-58712909D01*
X178961000Y-58754390D01*
X178961000Y-59355610D01*
X178956915Y-59397091D01*
X178946607Y-59431069D01*
X178929866Y-59462390D01*
X178907339Y-59489839D01*
X178879890Y-59512366D01*
X178848569Y-59529107D01*
X178814591Y-59539415D01*
X178773110Y-59543500D01*
X178096890Y-59543500D01*
X178055409Y-59539415D01*
X178021431Y-59529107D01*
X177990110Y-59512366D01*
X177962661Y-59489839D01*
X177940134Y-59462390D01*
X177923393Y-59431069D01*
X177913085Y-59397091D01*
X177909000Y-59355610D01*
X177909000Y-58754390D01*
X177913085Y-58712909D01*
X177923393Y-58678931D01*
X177940134Y-58647610D01*
X177962661Y-58620161D01*
X177990110Y-58597634D01*
X178021431Y-58580893D01*
X178055409Y-58570585D01*
X178096890Y-58566500D01*
X178773110Y-58566500D01*
X178814591Y-58570585D01*
X178814591Y-58570585D01*
G37*
G36*
X162797142Y-57297242D02*
G01*
X162945101Y-57358529D01*
X163078255Y-57447499D01*
X163191501Y-57560745D01*
X163280471Y-57693899D01*
X163341758Y-57841858D01*
X163373000Y-57998925D01*
X163373000Y-58159075D01*
X163341758Y-58316142D01*
X163280471Y-58464101D01*
X163191501Y-58597255D01*
X163078255Y-58710501D01*
X162945101Y-58799471D01*
X162797142Y-58860758D01*
X162640075Y-58892000D01*
X162479925Y-58892000D01*
X162322858Y-58860758D01*
X162174899Y-58799471D01*
X162041745Y-58710501D01*
X161928499Y-58597255D01*
X161839529Y-58464101D01*
X161778242Y-58316142D01*
X161747000Y-58159075D01*
X161747000Y-57998925D01*
X161778242Y-57841858D01*
X161839529Y-57693899D01*
X161928499Y-57560745D01*
X162041745Y-57447499D01*
X162174899Y-57358529D01*
X162322858Y-57297242D01*
X162479925Y-57266000D01*
X162640075Y-57266000D01*
X162797142Y-57297242D01*
X162797142Y-57297242D01*
G37*
G36*
X123046142Y-57003242D02*
G01*
X123194101Y-57064529D01*
X123327255Y-57153499D01*
X123440501Y-57266745D01*
X123529471Y-57399899D01*
X123590758Y-57547858D01*
X123622000Y-57704925D01*
X123622000Y-57865075D01*
X123590758Y-58022142D01*
X123529471Y-58170101D01*
X123440501Y-58303255D01*
X123327255Y-58416501D01*
X123194101Y-58505471D01*
X123046142Y-58566758D01*
X122889075Y-58598000D01*
X122728925Y-58598000D01*
X122571858Y-58566758D01*
X122423899Y-58505471D01*
X122290745Y-58416501D01*
X122177499Y-58303255D01*
X122088529Y-58170101D01*
X122027242Y-58022142D01*
X121996000Y-57865075D01*
X121996000Y-57704925D01*
X122027242Y-57547858D01*
X122088529Y-57399899D01*
X122177499Y-57266745D01*
X122290745Y-57153499D01*
X122423899Y-57064529D01*
X122571858Y-57003242D01*
X122728925Y-56972000D01*
X122889075Y-56972000D01*
X123046142Y-57003242D01*
X123046142Y-57003242D01*
G37*
G36*
X98677591Y-57173585D02*
G01*
X98711569Y-57183893D01*
X98742890Y-57200634D01*
X98770339Y-57223161D01*
X98792866Y-57250610D01*
X98809607Y-57281931D01*
X98819915Y-57315909D01*
X98824000Y-57357390D01*
X98824000Y-57958610D01*
X98819915Y-58000091D01*
X98809607Y-58034069D01*
X98792866Y-58065390D01*
X98770339Y-58092839D01*
X98742890Y-58115366D01*
X98711569Y-58132107D01*
X98677591Y-58142415D01*
X98636110Y-58146500D01*
X97959890Y-58146500D01*
X97918409Y-58142415D01*
X97884431Y-58132107D01*
X97853110Y-58115366D01*
X97825661Y-58092839D01*
X97803134Y-58065390D01*
X97786393Y-58034069D01*
X97776085Y-58000091D01*
X97772000Y-57958610D01*
X97772000Y-57357390D01*
X97776085Y-57315909D01*
X97786393Y-57281931D01*
X97803134Y-57250610D01*
X97825661Y-57223161D01*
X97853110Y-57200634D01*
X97884431Y-57183893D01*
X97918409Y-57173585D01*
X97959890Y-57169500D01*
X98636110Y-57169500D01*
X98677591Y-57173585D01*
X98677591Y-57173585D01*
G37*
G36*
X137905903Y-55566075D02*
G01*
X138104077Y-55648161D01*
X138133571Y-55660378D01*
X138338466Y-55797285D01*
X138512715Y-55971534D01*
X138649622Y-56176429D01*
X138649623Y-56176431D01*
X138743925Y-56404097D01*
X138792000Y-56645786D01*
X138792000Y-56892214D01*
X138743925Y-57133903D01*
X138676268Y-57297243D01*
X138649622Y-57361571D01*
X138512715Y-57566466D01*
X138338466Y-57740715D01*
X138133571Y-57877622D01*
X138133570Y-57877623D01*
X138133569Y-57877623D01*
X137905903Y-57971925D01*
X137664214Y-58020000D01*
X137417786Y-58020000D01*
X137176097Y-57971925D01*
X136948431Y-57877623D01*
X136948430Y-57877623D01*
X136948429Y-57877622D01*
X136743534Y-57740715D01*
X136569285Y-57566466D01*
X136432378Y-57361571D01*
X136405733Y-57297243D01*
X136338075Y-57133903D01*
X136290000Y-56892214D01*
X136290000Y-56645786D01*
X136338075Y-56404097D01*
X136432377Y-56176431D01*
X136432378Y-56176429D01*
X136569285Y-55971534D01*
X136743534Y-55797285D01*
X136948429Y-55660378D01*
X136977924Y-55648161D01*
X137176097Y-55566075D01*
X137417786Y-55518000D01*
X137664214Y-55518000D01*
X137905903Y-55566075D01*
X137905903Y-55566075D01*
G37*
G36*
X148065903Y-55566075D02*
G01*
X148264077Y-55648161D01*
X148293571Y-55660378D01*
X148498466Y-55797285D01*
X148672715Y-55971534D01*
X148809622Y-56176429D01*
X148809623Y-56176431D01*
X148903925Y-56404097D01*
X148952000Y-56645786D01*
X148952000Y-56892214D01*
X148903925Y-57133903D01*
X148836268Y-57297243D01*
X148809622Y-57361571D01*
X148672715Y-57566466D01*
X148498466Y-57740715D01*
X148293571Y-57877622D01*
X148293570Y-57877623D01*
X148293569Y-57877623D01*
X148065903Y-57971925D01*
X147824214Y-58020000D01*
X147577786Y-58020000D01*
X147336097Y-57971925D01*
X147108431Y-57877623D01*
X147108430Y-57877623D01*
X147108429Y-57877622D01*
X146903534Y-57740715D01*
X146729285Y-57566466D01*
X146592378Y-57361571D01*
X146565733Y-57297243D01*
X146498075Y-57133903D01*
X146450000Y-56892214D01*
X146450000Y-56645786D01*
X146498075Y-56404097D01*
X146592377Y-56176431D01*
X146592378Y-56176429D01*
X146729285Y-55971534D01*
X146903534Y-55797285D01*
X147108429Y-55660378D01*
X147137924Y-55648161D01*
X147336097Y-55566075D01*
X147577786Y-55518000D01*
X147824214Y-55518000D01*
X148065903Y-55566075D01*
X148065903Y-55566075D01*
G37*
G36*
X142985903Y-55566075D02*
G01*
X143184077Y-55648161D01*
X143213571Y-55660378D01*
X143418466Y-55797285D01*
X143592715Y-55971534D01*
X143729622Y-56176429D01*
X143729623Y-56176431D01*
X143823925Y-56404097D01*
X143872000Y-56645786D01*
X143872000Y-56892214D01*
X143823925Y-57133903D01*
X143756268Y-57297243D01*
X143729622Y-57361571D01*
X143592715Y-57566466D01*
X143418466Y-57740715D01*
X143213571Y-57877622D01*
X143213570Y-57877623D01*
X143213569Y-57877623D01*
X142985903Y-57971925D01*
X142744214Y-58020000D01*
X142497786Y-58020000D01*
X142256097Y-57971925D01*
X142028431Y-57877623D01*
X142028430Y-57877623D01*
X142028429Y-57877622D01*
X141823534Y-57740715D01*
X141649285Y-57566466D01*
X141512378Y-57361571D01*
X141485733Y-57297243D01*
X141418075Y-57133903D01*
X141370000Y-56892214D01*
X141370000Y-56645786D01*
X141418075Y-56404097D01*
X141512377Y-56176431D01*
X141512378Y-56176429D01*
X141649285Y-55971534D01*
X141823534Y-55797285D01*
X142028429Y-55660378D01*
X142057924Y-55648161D01*
X142256097Y-55566075D01*
X142497786Y-55518000D01*
X142744214Y-55518000D01*
X142985903Y-55566075D01*
X142985903Y-55566075D01*
G37*
G36*
X104462000Y-57880000D02*
G01*
X102760000Y-57880000D01*
X102760000Y-56688000D01*
X104462000Y-56688000D01*
X104462000Y-57880000D01*
X104462000Y-57880000D01*
G37*
G36*
X188594395Y-55894546D02*
G01*
X188767466Y-55966234D01*
X188767467Y-55966235D01*
X188923227Y-56070310D01*
X189055690Y-56202773D01*
X189055691Y-56202775D01*
X189159766Y-56358534D01*
X189231454Y-56531605D01*
X189268000Y-56715333D01*
X189268000Y-56902667D01*
X189231454Y-57086395D01*
X189159766Y-57259466D01*
X189154902Y-57266745D01*
X189055690Y-57415227D01*
X188923227Y-57547690D01*
X188844818Y-57600081D01*
X188767466Y-57651766D01*
X188594395Y-57723454D01*
X188410667Y-57760000D01*
X188223333Y-57760000D01*
X188039605Y-57723454D01*
X187866534Y-57651766D01*
X187789182Y-57600081D01*
X187710773Y-57547690D01*
X187578310Y-57415227D01*
X187479098Y-57266745D01*
X187474234Y-57259466D01*
X187402546Y-57086395D01*
X187366000Y-56902667D01*
X187366000Y-56715333D01*
X187402546Y-56531605D01*
X187474234Y-56358534D01*
X187578309Y-56202775D01*
X187578310Y-56202773D01*
X187710773Y-56070310D01*
X187866533Y-55966235D01*
X187866534Y-55966234D01*
X188039605Y-55894546D01*
X188223333Y-55858000D01*
X188410667Y-55858000D01*
X188594395Y-55894546D01*
X188594395Y-55894546D01*
G37*
G36*
X191094395Y-55894546D02*
G01*
X191267466Y-55966234D01*
X191267467Y-55966235D01*
X191423227Y-56070310D01*
X191555690Y-56202773D01*
X191555691Y-56202775D01*
X191659766Y-56358534D01*
X191731454Y-56531605D01*
X191768000Y-56715333D01*
X191768000Y-56902667D01*
X191731454Y-57086395D01*
X191659766Y-57259466D01*
X191654902Y-57266745D01*
X191555690Y-57415227D01*
X191423227Y-57547690D01*
X191344818Y-57600081D01*
X191267466Y-57651766D01*
X191094395Y-57723454D01*
X190910667Y-57760000D01*
X190723333Y-57760000D01*
X190539605Y-57723454D01*
X190366534Y-57651766D01*
X190289182Y-57600081D01*
X190210773Y-57547690D01*
X190078310Y-57415227D01*
X189979098Y-57266745D01*
X189974234Y-57259466D01*
X189902546Y-57086395D01*
X189866000Y-56902667D01*
X189866000Y-56715333D01*
X189902546Y-56531605D01*
X189974234Y-56358534D01*
X190078309Y-56202775D01*
X190078310Y-56202773D01*
X190210773Y-56070310D01*
X190366533Y-55966235D01*
X190366534Y-55966234D01*
X190539605Y-55894546D01*
X190723333Y-55858000D01*
X190910667Y-55858000D01*
X191094395Y-55894546D01*
X191094395Y-55894546D01*
G37*
G36*
X115482468Y-55641565D02*
G01*
X115521138Y-55653296D01*
X115556777Y-55672346D01*
X115588017Y-55697983D01*
X115613654Y-55729223D01*
X115632704Y-55764862D01*
X115644435Y-55803532D01*
X115649000Y-55849888D01*
X115649000Y-56926112D01*
X115644435Y-56972468D01*
X115632704Y-57011138D01*
X115613654Y-57046777D01*
X115588017Y-57078017D01*
X115556777Y-57103654D01*
X115521138Y-57122704D01*
X115482468Y-57134435D01*
X115436112Y-57139000D01*
X114784888Y-57139000D01*
X114738532Y-57134435D01*
X114699862Y-57122704D01*
X114664223Y-57103654D01*
X114632983Y-57078017D01*
X114607346Y-57046777D01*
X114588296Y-57011138D01*
X114576565Y-56972468D01*
X114572000Y-56926112D01*
X114572000Y-55849888D01*
X114576565Y-55803532D01*
X114588296Y-55764862D01*
X114607346Y-55729223D01*
X114632983Y-55697983D01*
X114664223Y-55672346D01*
X114699862Y-55653296D01*
X114738532Y-55641565D01*
X114784888Y-55637000D01*
X115436112Y-55637000D01*
X115482468Y-55641565D01*
X115482468Y-55641565D01*
G37*
G36*
X113607468Y-55641565D02*
G01*
X113646138Y-55653296D01*
X113681777Y-55672346D01*
X113713017Y-55697983D01*
X113738654Y-55729223D01*
X113757704Y-55764862D01*
X113769435Y-55803532D01*
X113774000Y-55849888D01*
X113774000Y-56926112D01*
X113769435Y-56972468D01*
X113757704Y-57011138D01*
X113738654Y-57046777D01*
X113713017Y-57078017D01*
X113681777Y-57103654D01*
X113646138Y-57122704D01*
X113607468Y-57134435D01*
X113561112Y-57139000D01*
X112909888Y-57139000D01*
X112863532Y-57134435D01*
X112824862Y-57122704D01*
X112789223Y-57103654D01*
X112757983Y-57078017D01*
X112732346Y-57046777D01*
X112713296Y-57011138D01*
X112701565Y-56972468D01*
X112697000Y-56926112D01*
X112697000Y-55849888D01*
X112701565Y-55803532D01*
X112713296Y-55764862D01*
X112732346Y-55729223D01*
X112757983Y-55697983D01*
X112789223Y-55672346D01*
X112824862Y-55653296D01*
X112863532Y-55641565D01*
X112909888Y-55637000D01*
X113561112Y-55637000D01*
X113607468Y-55641565D01*
X113607468Y-55641565D01*
G37*
G36*
X101562000Y-56985000D02*
G01*
X99860000Y-56985000D01*
X99860000Y-55283000D01*
X101562000Y-55283000D01*
X101562000Y-56985000D01*
X101562000Y-56985000D01*
G37*
G36*
X98677591Y-55598585D02*
G01*
X98711569Y-55608893D01*
X98742890Y-55625634D01*
X98770339Y-55648161D01*
X98792866Y-55675610D01*
X98809607Y-55706931D01*
X98819915Y-55740909D01*
X98824000Y-55782390D01*
X98824000Y-56383610D01*
X98819915Y-56425091D01*
X98809607Y-56459069D01*
X98792866Y-56490390D01*
X98770339Y-56517839D01*
X98742890Y-56540366D01*
X98711569Y-56557107D01*
X98677591Y-56567415D01*
X98636110Y-56571500D01*
X97959890Y-56571500D01*
X97918409Y-56567415D01*
X97884431Y-56557107D01*
X97853110Y-56540366D01*
X97825661Y-56517839D01*
X97803134Y-56490390D01*
X97786393Y-56459069D01*
X97776085Y-56425091D01*
X97772000Y-56383610D01*
X97772000Y-55782390D01*
X97776085Y-55740909D01*
X97786393Y-55706931D01*
X97803134Y-55675610D01*
X97825661Y-55648161D01*
X97853110Y-55625634D01*
X97884431Y-55608893D01*
X97918409Y-55598585D01*
X97959890Y-55594500D01*
X98636110Y-55594500D01*
X98677591Y-55598585D01*
X98677591Y-55598585D01*
G37*
G36*
X179019468Y-55219065D02*
G01*
X179058138Y-55230796D01*
X179093777Y-55249846D01*
X179125017Y-55275483D01*
X179150654Y-55306723D01*
X179169704Y-55342362D01*
X179181435Y-55381032D01*
X179186000Y-55427388D01*
X179186000Y-56078612D01*
X179181435Y-56124968D01*
X179169704Y-56163638D01*
X179150654Y-56199277D01*
X179125017Y-56230517D01*
X179093777Y-56256154D01*
X179058138Y-56275204D01*
X179019468Y-56286935D01*
X178973112Y-56291500D01*
X177896888Y-56291500D01*
X177850532Y-56286935D01*
X177811862Y-56275204D01*
X177776223Y-56256154D01*
X177744983Y-56230517D01*
X177719346Y-56199277D01*
X177700296Y-56163638D01*
X177688565Y-56124968D01*
X177684000Y-56078612D01*
X177684000Y-55427388D01*
X177688565Y-55381032D01*
X177700296Y-55342362D01*
X177719346Y-55306723D01*
X177744983Y-55275483D01*
X177776223Y-55249846D01*
X177811862Y-55230796D01*
X177850532Y-55219065D01*
X177896888Y-55214500D01*
X178973112Y-55214500D01*
X179019468Y-55219065D01*
X179019468Y-55219065D01*
G37*
G36*
X200114331Y-52679211D02*
G01*
X200442092Y-52814974D01*
X200737070Y-53012072D01*
X200987928Y-53262930D01*
X201185026Y-53557908D01*
X201320789Y-53885669D01*
X201390000Y-54233616D01*
X201390000Y-54588384D01*
X201320789Y-54936331D01*
X201185026Y-55264092D01*
X200987928Y-55559070D01*
X200737070Y-55809928D01*
X200442092Y-56007026D01*
X200114331Y-56142789D01*
X199766384Y-56212000D01*
X199411616Y-56212000D01*
X199063669Y-56142789D01*
X198735908Y-56007026D01*
X198440930Y-55809928D01*
X198190072Y-55559070D01*
X197992974Y-55264092D01*
X197857211Y-54936331D01*
X197788000Y-54588384D01*
X197788000Y-54233616D01*
X197857211Y-53885669D01*
X197992974Y-53557908D01*
X198190072Y-53262930D01*
X198440930Y-53012072D01*
X198735908Y-52814974D01*
X199063669Y-52679211D01*
X199411616Y-52610000D01*
X199766384Y-52610000D01*
X200114331Y-52679211D01*
X200114331Y-52679211D01*
G37*
G36*
X51114331Y-52679211D02*
G01*
X51442092Y-52814974D01*
X51737070Y-53012072D01*
X51987928Y-53262930D01*
X52185026Y-53557908D01*
X52320789Y-53885669D01*
X52390000Y-54233616D01*
X52390000Y-54588384D01*
X52320789Y-54936331D01*
X52185026Y-55264092D01*
X51987928Y-55559070D01*
X51737070Y-55809928D01*
X51442092Y-56007026D01*
X51114331Y-56142789D01*
X50766384Y-56212000D01*
X50411616Y-56212000D01*
X50063669Y-56142789D01*
X49735908Y-56007026D01*
X49440930Y-55809928D01*
X49190072Y-55559070D01*
X48992974Y-55264092D01*
X48857211Y-54936331D01*
X48788000Y-54588384D01*
X48788000Y-54233616D01*
X48857211Y-53885669D01*
X48992974Y-53557908D01*
X49190072Y-53262930D01*
X49440930Y-53012072D01*
X49735908Y-52814974D01*
X50063669Y-52679211D01*
X50411616Y-52610000D01*
X50766384Y-52610000D01*
X51114331Y-52679211D01*
X51114331Y-52679211D01*
G37*
G36*
X106650000Y-55911000D02*
G01*
X105948000Y-55911000D01*
X105948000Y-54259000D01*
X106650000Y-54259000D01*
X106650000Y-55911000D01*
X106650000Y-55911000D01*
G37*
G36*
X107920000Y-55911000D02*
G01*
X107218000Y-55911000D01*
X107218000Y-54259000D01*
X107920000Y-54259000D01*
X107920000Y-55911000D01*
X107920000Y-55911000D01*
G37*
G36*
X109190000Y-55911000D02*
G01*
X108488000Y-55911000D01*
X108488000Y-54259000D01*
X109190000Y-54259000D01*
X109190000Y-55911000D01*
X109190000Y-55911000D01*
G37*
G36*
X110460000Y-55911000D02*
G01*
X109758000Y-55911000D01*
X109758000Y-54259000D01*
X110460000Y-54259000D01*
X110460000Y-55911000D01*
X110460000Y-55911000D01*
G37*
G36*
X175611000Y-55751000D02*
G01*
X174909000Y-55751000D01*
X174909000Y-54099000D01*
X175611000Y-54099000D01*
X175611000Y-55751000D01*
X175611000Y-55751000D01*
G37*
G36*
X176881000Y-55751000D02*
G01*
X176179000Y-55751000D01*
X176179000Y-54099000D01*
X176881000Y-54099000D01*
X176881000Y-55751000D01*
X176881000Y-55751000D01*
G37*
G36*
X174341000Y-55751000D02*
G01*
X173639000Y-55751000D01*
X173639000Y-54099000D01*
X174341000Y-54099000D01*
X174341000Y-55751000D01*
X174341000Y-55751000D01*
G37*
G36*
X173071000Y-55751000D02*
G01*
X172369000Y-55751000D01*
X172369000Y-54099000D01*
X173071000Y-54099000D01*
X173071000Y-55751000D01*
X173071000Y-55751000D01*
G37*
G36*
X104462000Y-55580000D02*
G01*
X102760000Y-55580000D01*
X102760000Y-54388000D01*
X104462000Y-54388000D01*
X104462000Y-55580000D01*
X104462000Y-55580000D01*
G37*
G36*
X171144591Y-54088085D02*
G01*
X171178569Y-54098393D01*
X171209890Y-54115134D01*
X171237339Y-54137661D01*
X171259866Y-54165110D01*
X171276607Y-54196431D01*
X171286915Y-54230409D01*
X171291000Y-54271890D01*
X171291000Y-54948110D01*
X171286915Y-54989591D01*
X171276607Y-55023569D01*
X171259866Y-55054890D01*
X171237339Y-55082339D01*
X171209890Y-55104866D01*
X171178569Y-55121607D01*
X171144591Y-55131915D01*
X171103110Y-55136000D01*
X170501890Y-55136000D01*
X170460409Y-55131915D01*
X170426431Y-55121607D01*
X170395110Y-55104866D01*
X170367661Y-55082339D01*
X170345134Y-55054890D01*
X170328393Y-55023569D01*
X170318085Y-54989591D01*
X170314000Y-54948110D01*
X170314000Y-54271890D01*
X170318085Y-54230409D01*
X170328393Y-54196431D01*
X170345134Y-54165110D01*
X170367661Y-54137661D01*
X170395110Y-54115134D01*
X170426431Y-54098393D01*
X170460409Y-54088085D01*
X170501890Y-54084000D01*
X171103110Y-54084000D01*
X171144591Y-54088085D01*
X171144591Y-54088085D01*
G37*
G36*
X169569591Y-54088085D02*
G01*
X169603569Y-54098393D01*
X169634890Y-54115134D01*
X169662339Y-54137661D01*
X169684866Y-54165110D01*
X169701607Y-54196431D01*
X169711915Y-54230409D01*
X169716000Y-54271890D01*
X169716000Y-54948110D01*
X169711915Y-54989591D01*
X169701607Y-55023569D01*
X169684866Y-55054890D01*
X169662339Y-55082339D01*
X169634890Y-55104866D01*
X169603569Y-55121607D01*
X169569591Y-55131915D01*
X169528110Y-55136000D01*
X168926890Y-55136000D01*
X168885409Y-55131915D01*
X168851431Y-55121607D01*
X168820110Y-55104866D01*
X168792661Y-55082339D01*
X168770134Y-55054890D01*
X168753393Y-55023569D01*
X168743085Y-54989591D01*
X168739000Y-54948110D01*
X168739000Y-54271890D01*
X168743085Y-54230409D01*
X168753393Y-54196431D01*
X168770134Y-54165110D01*
X168792661Y-54137661D01*
X168820110Y-54115134D01*
X168851431Y-54098393D01*
X168885409Y-54088085D01*
X168926890Y-54084000D01*
X169528110Y-54084000D01*
X169569591Y-54088085D01*
X169569591Y-54088085D01*
G37*
G36*
X112598468Y-53997565D02*
G01*
X112637138Y-54009296D01*
X112672777Y-54028346D01*
X112704017Y-54053983D01*
X112729654Y-54085223D01*
X112748704Y-54120862D01*
X112760435Y-54159532D01*
X112765000Y-54205888D01*
X112765000Y-54857112D01*
X112760435Y-54903468D01*
X112748704Y-54942138D01*
X112729654Y-54977777D01*
X112704017Y-55009017D01*
X112672777Y-55034654D01*
X112637138Y-55053704D01*
X112598468Y-55065435D01*
X112552112Y-55070000D01*
X111475888Y-55070000D01*
X111429532Y-55065435D01*
X111390862Y-55053704D01*
X111355223Y-55034654D01*
X111323983Y-55009017D01*
X111298346Y-54977777D01*
X111279296Y-54942138D01*
X111267565Y-54903468D01*
X111263000Y-54857112D01*
X111263000Y-54205888D01*
X111267565Y-54159532D01*
X111279296Y-54120862D01*
X111298346Y-54085223D01*
X111323983Y-54053983D01*
X111355223Y-54028346D01*
X111390862Y-54009296D01*
X111429532Y-53997565D01*
X111475888Y-53993000D01*
X112552112Y-53993000D01*
X112598468Y-53997565D01*
X112598468Y-53997565D01*
G37*
G36*
X179019468Y-53344065D02*
G01*
X179058138Y-53355796D01*
X179093777Y-53374846D01*
X179125017Y-53400483D01*
X179150654Y-53431723D01*
X179169704Y-53467362D01*
X179181435Y-53506032D01*
X179186000Y-53552388D01*
X179186000Y-54203612D01*
X179181435Y-54249968D01*
X179169704Y-54288638D01*
X179150654Y-54324277D01*
X179125017Y-54355517D01*
X179093777Y-54381154D01*
X179058138Y-54400204D01*
X179019468Y-54411935D01*
X178973112Y-54416500D01*
X177896888Y-54416500D01*
X177850532Y-54411935D01*
X177811862Y-54400204D01*
X177776223Y-54381154D01*
X177744983Y-54355517D01*
X177719346Y-54324277D01*
X177700296Y-54288638D01*
X177688565Y-54249968D01*
X177684000Y-54203612D01*
X177684000Y-53552388D01*
X177688565Y-53506032D01*
X177700296Y-53467362D01*
X177719346Y-53431723D01*
X177744983Y-53400483D01*
X177776223Y-53374846D01*
X177811862Y-53355796D01*
X177850532Y-53344065D01*
X177896888Y-53339500D01*
X178973112Y-53339500D01*
X179019468Y-53344065D01*
X179019468Y-53344065D01*
G37*
G36*
X109804468Y-52600565D02*
G01*
X109843138Y-52612296D01*
X109878777Y-52631346D01*
X109910017Y-52656983D01*
X109935654Y-52688223D01*
X109954704Y-52723862D01*
X109966435Y-52762532D01*
X109971000Y-52808888D01*
X109971000Y-53460112D01*
X109966435Y-53506468D01*
X109954704Y-53545138D01*
X109935654Y-53580777D01*
X109910017Y-53612017D01*
X109878777Y-53637654D01*
X109843138Y-53656704D01*
X109804468Y-53668435D01*
X109758112Y-53673000D01*
X108681888Y-53673000D01*
X108635532Y-53668435D01*
X108596862Y-53656704D01*
X108561223Y-53637654D01*
X108529983Y-53612017D01*
X108504346Y-53580777D01*
X108485296Y-53545138D01*
X108473565Y-53506468D01*
X108469000Y-53460112D01*
X108469000Y-52808888D01*
X108473565Y-52762532D01*
X108485296Y-52723862D01*
X108504346Y-52688223D01*
X108529983Y-52656983D01*
X108561223Y-52631346D01*
X108596862Y-52612296D01*
X108635532Y-52600565D01*
X108681888Y-52596000D01*
X109758112Y-52596000D01*
X109804468Y-52600565D01*
X109804468Y-52600565D01*
G37*
G36*
X123046142Y-52003242D02*
G01*
X123194101Y-52064529D01*
X123327255Y-52153499D01*
X123440501Y-52266745D01*
X123529471Y-52399899D01*
X123590758Y-52547858D01*
X123622000Y-52704925D01*
X123622000Y-52865075D01*
X123590758Y-53022142D01*
X123529471Y-53170101D01*
X123440501Y-53303255D01*
X123327255Y-53416501D01*
X123194101Y-53505471D01*
X123046142Y-53566758D01*
X122889075Y-53598000D01*
X122728925Y-53598000D01*
X122571858Y-53566758D01*
X122423899Y-53505471D01*
X122290745Y-53416501D01*
X122177499Y-53303255D01*
X122088529Y-53170101D01*
X122027242Y-53022142D01*
X121996000Y-52865075D01*
X121996000Y-52704925D01*
X122027242Y-52547858D01*
X122088529Y-52399899D01*
X122177499Y-52266745D01*
X122290745Y-52153499D01*
X122423899Y-52064529D01*
X122571858Y-52003242D01*
X122728925Y-51972000D01*
X122889075Y-51972000D01*
X123046142Y-52003242D01*
X123046142Y-52003242D01*
G37*
G36*
X107428591Y-52437085D02*
G01*
X107462569Y-52447393D01*
X107493890Y-52464134D01*
X107521339Y-52486661D01*
X107543866Y-52514110D01*
X107560607Y-52545431D01*
X107570915Y-52579409D01*
X107575000Y-52620890D01*
X107575000Y-53297110D01*
X107570915Y-53338591D01*
X107560607Y-53372569D01*
X107543866Y-53403890D01*
X107521339Y-53431339D01*
X107493890Y-53453866D01*
X107462569Y-53470607D01*
X107428591Y-53480915D01*
X107387110Y-53485000D01*
X106785890Y-53485000D01*
X106744409Y-53480915D01*
X106710431Y-53470607D01*
X106679110Y-53453866D01*
X106651661Y-53431339D01*
X106629134Y-53403890D01*
X106612393Y-53372569D01*
X106602085Y-53338591D01*
X106598000Y-53297110D01*
X106598000Y-52620890D01*
X106602085Y-52579409D01*
X106612393Y-52545431D01*
X106629134Y-52514110D01*
X106651661Y-52486661D01*
X106679110Y-52464134D01*
X106710431Y-52447393D01*
X106744409Y-52437085D01*
X106785890Y-52433000D01*
X107387110Y-52433000D01*
X107428591Y-52437085D01*
X107428591Y-52437085D01*
G37*
G36*
X105853591Y-52437085D02*
G01*
X105887569Y-52447393D01*
X105918890Y-52464134D01*
X105946339Y-52486661D01*
X105968866Y-52514110D01*
X105985607Y-52545431D01*
X105995915Y-52579409D01*
X106000000Y-52620890D01*
X106000000Y-53297110D01*
X105995915Y-53338591D01*
X105985607Y-53372569D01*
X105968866Y-53403890D01*
X105946339Y-53431339D01*
X105918890Y-53453866D01*
X105887569Y-53470607D01*
X105853591Y-53480915D01*
X105812110Y-53485000D01*
X105210890Y-53485000D01*
X105169409Y-53480915D01*
X105135431Y-53470607D01*
X105104110Y-53453866D01*
X105076661Y-53431339D01*
X105054134Y-53403890D01*
X105037393Y-53372569D01*
X105027085Y-53338591D01*
X105023000Y-53297110D01*
X105023000Y-52620890D01*
X105027085Y-52579409D01*
X105037393Y-52545431D01*
X105054134Y-52514110D01*
X105076661Y-52486661D01*
X105104110Y-52464134D01*
X105135431Y-52447393D01*
X105169409Y-52437085D01*
X105210890Y-52433000D01*
X105812110Y-52433000D01*
X105853591Y-52437085D01*
X105853591Y-52437085D01*
G37*
G36*
X112598468Y-52122565D02*
G01*
X112637138Y-52134296D01*
X112672777Y-52153346D01*
X112704017Y-52178983D01*
X112729654Y-52210223D01*
X112748704Y-52245862D01*
X112760435Y-52284532D01*
X112765000Y-52330888D01*
X112765000Y-52982112D01*
X112760435Y-53028468D01*
X112748704Y-53067138D01*
X112729654Y-53102777D01*
X112704017Y-53134017D01*
X112672777Y-53159654D01*
X112637138Y-53178704D01*
X112598468Y-53190435D01*
X112552112Y-53195000D01*
X111475888Y-53195000D01*
X111429532Y-53190435D01*
X111390862Y-53178704D01*
X111355223Y-53159654D01*
X111323983Y-53134017D01*
X111298346Y-53102777D01*
X111279296Y-53067138D01*
X111267565Y-53028468D01*
X111263000Y-52982112D01*
X111263000Y-52330888D01*
X111267565Y-52284532D01*
X111279296Y-52245862D01*
X111298346Y-52210223D01*
X111323983Y-52178983D01*
X111355223Y-52153346D01*
X111390862Y-52134296D01*
X111429532Y-52122565D01*
X111475888Y-52118000D01*
X112552112Y-52118000D01*
X112598468Y-52122565D01*
X112598468Y-52122565D01*
G37*
G36*
X109804468Y-50725565D02*
G01*
X109843138Y-50737296D01*
X109878777Y-50756346D01*
X109910017Y-50781983D01*
X109935654Y-50813223D01*
X109954704Y-50848862D01*
X109966435Y-50887532D01*
X109971000Y-50933888D01*
X109971000Y-51585112D01*
X109966435Y-51631468D01*
X109954704Y-51670138D01*
X109935654Y-51705777D01*
X109910017Y-51737017D01*
X109878777Y-51762654D01*
X109843138Y-51781704D01*
X109804468Y-51793435D01*
X109758112Y-51798000D01*
X108681888Y-51798000D01*
X108635532Y-51793435D01*
X108596862Y-51781704D01*
X108561223Y-51762654D01*
X108529983Y-51737017D01*
X108504346Y-51705777D01*
X108485296Y-51670138D01*
X108473565Y-51631468D01*
X108469000Y-51585112D01*
X108469000Y-50933888D01*
X108473565Y-50887532D01*
X108485296Y-50848862D01*
X108504346Y-50813223D01*
X108529983Y-50781983D01*
X108561223Y-50756346D01*
X108596862Y-50737296D01*
X108635532Y-50725565D01*
X108681888Y-50721000D01*
X109758112Y-50721000D01*
X109804468Y-50725565D01*
X109804468Y-50725565D01*
G37*
M02*
