G04 #@! TF.GenerationSoftware,KiCad,Pcbnew,(5.1.0)-1*
G04 #@! TF.CreationDate,2019-06-01T21:06:23-04:00*
G04 #@! TF.ProjectId,preample,70726561-6d70-46c6-952e-6b696361645f,rev?*
G04 #@! TF.SameCoordinates,Original*
G04 #@! TF.FileFunction,Soldermask,Bot*
G04 #@! TF.FilePolarity,Negative*
%FSLAX46Y46*%
G04 Gerber Fmt 4.6, Leading zero omitted, Abs format (unit mm)*
G04 Created by KiCad (PCBNEW (5.1.0)-1) date 2019-06-01 21:06:23*
%MOMM*%
%LPD*%
G04 APERTURE LIST*
%ADD10C,0.100000*%
G04 APERTURE END LIST*
D10*
G36*
X123046142Y-82807742D02*
G01*
X123194101Y-82869029D01*
X123327255Y-82957999D01*
X123440501Y-83071245D01*
X123529471Y-83204399D01*
X123590758Y-83352358D01*
X123622000Y-83509425D01*
X123622000Y-83669575D01*
X123590758Y-83826642D01*
X123529471Y-83974601D01*
X123440501Y-84107755D01*
X123327255Y-84221001D01*
X123194101Y-84309971D01*
X123046142Y-84371258D01*
X122889075Y-84402500D01*
X122728925Y-84402500D01*
X122571858Y-84371258D01*
X122423899Y-84309971D01*
X122290745Y-84221001D01*
X122177499Y-84107755D01*
X122088529Y-83974601D01*
X122027242Y-83826642D01*
X121996000Y-83669575D01*
X121996000Y-83509425D01*
X122027242Y-83352358D01*
X122088529Y-83204399D01*
X122177499Y-83071245D01*
X122290745Y-82957999D01*
X122423899Y-82869029D01*
X122571858Y-82807742D01*
X122728925Y-82776500D01*
X122889075Y-82776500D01*
X123046142Y-82807742D01*
X123046142Y-82807742D01*
G37*
G36*
X200114331Y-80679211D02*
G01*
X200442092Y-80814974D01*
X200737070Y-81012072D01*
X200987928Y-81262930D01*
X201185026Y-81557908D01*
X201320789Y-81885669D01*
X201390000Y-82233616D01*
X201390000Y-82588384D01*
X201320789Y-82936331D01*
X201185026Y-83264092D01*
X200987928Y-83559070D01*
X200737070Y-83809928D01*
X200442092Y-84007026D01*
X200114331Y-84142789D01*
X199766384Y-84212000D01*
X199411616Y-84212000D01*
X199063669Y-84142789D01*
X198735908Y-84007026D01*
X198440930Y-83809928D01*
X198190072Y-83559070D01*
X197992974Y-83264092D01*
X197857211Y-82936331D01*
X197788000Y-82588384D01*
X197788000Y-82233616D01*
X197857211Y-81885669D01*
X197992974Y-81557908D01*
X198190072Y-81262930D01*
X198440930Y-81012072D01*
X198735908Y-80814974D01*
X199063669Y-80679211D01*
X199411616Y-80610000D01*
X199766384Y-80610000D01*
X200114331Y-80679211D01*
X200114331Y-80679211D01*
G37*
G36*
X51114331Y-80679211D02*
G01*
X51442092Y-80814974D01*
X51737070Y-81012072D01*
X51987928Y-81262930D01*
X52185026Y-81557908D01*
X52320789Y-81885669D01*
X52390000Y-82233616D01*
X52390000Y-82588384D01*
X52320789Y-82936331D01*
X52185026Y-83264092D01*
X51987928Y-83559070D01*
X51737070Y-83809928D01*
X51442092Y-84007026D01*
X51114331Y-84142789D01*
X50766384Y-84212000D01*
X50411616Y-84212000D01*
X50063669Y-84142789D01*
X49735908Y-84007026D01*
X49440930Y-83809928D01*
X49190072Y-83559070D01*
X48992974Y-83264092D01*
X48857211Y-82936331D01*
X48788000Y-82588384D01*
X48788000Y-82233616D01*
X48857211Y-81885669D01*
X48992974Y-81557908D01*
X49190072Y-81262930D01*
X49440930Y-81012072D01*
X49735908Y-80814974D01*
X50063669Y-80679211D01*
X50411616Y-80610000D01*
X50766384Y-80610000D01*
X51114331Y-80679211D01*
X51114331Y-80679211D01*
G37*
G36*
X187104118Y-81633420D02*
G01*
X187184900Y-81657925D01*
X187226836Y-81670646D01*
X187339925Y-81731094D01*
X187439054Y-81812446D01*
X187520406Y-81911575D01*
X187580854Y-82024664D01*
X187580855Y-82024668D01*
X187618080Y-82147382D01*
X187627500Y-82243027D01*
X187627500Y-82856973D01*
X187618080Y-82952618D01*
X187616447Y-82958001D01*
X187580854Y-83075336D01*
X187520406Y-83188425D01*
X187439054Y-83287553D01*
X187339924Y-83368906D01*
X187226835Y-83429354D01*
X187194903Y-83439040D01*
X187104117Y-83466580D01*
X186976500Y-83479149D01*
X186848882Y-83466580D01*
X186758096Y-83439040D01*
X186726164Y-83429354D01*
X186613075Y-83368906D01*
X186513947Y-83287554D01*
X186432594Y-83188424D01*
X186372146Y-83075335D01*
X186362460Y-83043403D01*
X186334920Y-82952617D01*
X186325500Y-82856972D01*
X186325500Y-82243027D01*
X186334920Y-82147382D01*
X186372145Y-82024668D01*
X186372145Y-82024667D01*
X186404457Y-81964217D01*
X186432595Y-81911574D01*
X186453856Y-81885668D01*
X186513947Y-81812446D01*
X186613076Y-81731094D01*
X186726165Y-81670646D01*
X186768101Y-81657925D01*
X186848883Y-81633420D01*
X186976500Y-81620851D01*
X187104118Y-81633420D01*
X187104118Y-81633420D01*
G37*
G36*
X183104118Y-81633420D02*
G01*
X183184900Y-81657925D01*
X183226836Y-81670646D01*
X183339925Y-81731094D01*
X183439054Y-81812446D01*
X183520406Y-81911575D01*
X183580854Y-82024664D01*
X183580855Y-82024668D01*
X183618080Y-82147382D01*
X183627500Y-82243027D01*
X183627500Y-82856973D01*
X183618080Y-82952618D01*
X183616447Y-82958001D01*
X183580854Y-83075336D01*
X183520406Y-83188425D01*
X183439054Y-83287553D01*
X183339924Y-83368906D01*
X183226835Y-83429354D01*
X183194903Y-83439040D01*
X183104117Y-83466580D01*
X182976500Y-83479149D01*
X182848882Y-83466580D01*
X182758096Y-83439040D01*
X182726164Y-83429354D01*
X182613075Y-83368906D01*
X182513947Y-83287554D01*
X182432594Y-83188424D01*
X182372146Y-83075335D01*
X182362460Y-83043403D01*
X182334920Y-82952617D01*
X182325500Y-82856972D01*
X182325500Y-82243027D01*
X182334920Y-82147382D01*
X182372145Y-82024668D01*
X182372145Y-82024667D01*
X182404457Y-81964217D01*
X182432595Y-81911574D01*
X182453856Y-81885668D01*
X182513947Y-81812446D01*
X182613076Y-81731094D01*
X182726165Y-81670646D01*
X182768101Y-81657925D01*
X182848883Y-81633420D01*
X182976500Y-81620851D01*
X183104118Y-81633420D01*
X183104118Y-81633420D01*
G37*
G36*
X185104118Y-81633420D02*
G01*
X185184900Y-81657925D01*
X185226836Y-81670646D01*
X185339925Y-81731094D01*
X185439054Y-81812446D01*
X185520406Y-81911575D01*
X185580854Y-82024664D01*
X185580855Y-82024668D01*
X185618080Y-82147382D01*
X185627500Y-82243027D01*
X185627500Y-82856973D01*
X185618080Y-82952618D01*
X185616447Y-82958001D01*
X185580854Y-83075336D01*
X185520406Y-83188425D01*
X185439054Y-83287553D01*
X185339924Y-83368906D01*
X185226835Y-83429354D01*
X185194903Y-83439040D01*
X185104117Y-83466580D01*
X184976500Y-83479149D01*
X184848882Y-83466580D01*
X184758096Y-83439040D01*
X184726164Y-83429354D01*
X184613075Y-83368906D01*
X184513947Y-83287554D01*
X184432594Y-83188424D01*
X184372146Y-83075335D01*
X184362460Y-83043403D01*
X184334920Y-82952617D01*
X184325500Y-82856972D01*
X184325500Y-82243027D01*
X184334920Y-82147382D01*
X184372145Y-82024668D01*
X184372145Y-82024667D01*
X184404457Y-81964217D01*
X184432595Y-81911574D01*
X184453856Y-81885668D01*
X184513947Y-81812446D01*
X184613076Y-81731094D01*
X184726165Y-81670646D01*
X184768101Y-81657925D01*
X184848883Y-81633420D01*
X184976500Y-81620851D01*
X185104118Y-81633420D01*
X185104118Y-81633420D01*
G37*
G36*
X95409618Y-81633420D02*
G01*
X95490400Y-81657925D01*
X95532336Y-81670646D01*
X95645425Y-81731094D01*
X95744554Y-81812446D01*
X95825906Y-81911575D01*
X95886354Y-82024664D01*
X95886355Y-82024668D01*
X95923580Y-82147382D01*
X95933000Y-82243027D01*
X95933000Y-82856973D01*
X95923580Y-82952618D01*
X95921947Y-82958001D01*
X95886354Y-83075336D01*
X95825906Y-83188425D01*
X95744554Y-83287553D01*
X95645424Y-83368906D01*
X95532335Y-83429354D01*
X95500403Y-83439040D01*
X95409617Y-83466580D01*
X95282000Y-83479149D01*
X95154382Y-83466580D01*
X95063596Y-83439040D01*
X95031664Y-83429354D01*
X94918575Y-83368906D01*
X94819447Y-83287554D01*
X94738094Y-83188424D01*
X94677646Y-83075335D01*
X94667960Y-83043403D01*
X94640420Y-82952617D01*
X94631000Y-82856972D01*
X94631000Y-82243027D01*
X94640420Y-82147382D01*
X94677645Y-82024668D01*
X94677645Y-82024667D01*
X94709957Y-81964217D01*
X94738095Y-81911574D01*
X94759356Y-81885668D01*
X94819447Y-81812446D01*
X94918576Y-81731094D01*
X95031665Y-81670646D01*
X95073601Y-81657925D01*
X95154383Y-81633420D01*
X95282000Y-81620851D01*
X95409618Y-81633420D01*
X95409618Y-81633420D01*
G37*
G36*
X93409618Y-81633420D02*
G01*
X93490400Y-81657925D01*
X93532336Y-81670646D01*
X93645425Y-81731094D01*
X93744554Y-81812446D01*
X93825906Y-81911575D01*
X93886354Y-82024664D01*
X93886355Y-82024668D01*
X93923580Y-82147382D01*
X93933000Y-82243027D01*
X93933000Y-82856973D01*
X93923580Y-82952618D01*
X93921947Y-82958001D01*
X93886354Y-83075336D01*
X93825906Y-83188425D01*
X93744554Y-83287553D01*
X93645424Y-83368906D01*
X93532335Y-83429354D01*
X93500403Y-83439040D01*
X93409617Y-83466580D01*
X93282000Y-83479149D01*
X93154382Y-83466580D01*
X93063596Y-83439040D01*
X93031664Y-83429354D01*
X92918575Y-83368906D01*
X92819447Y-83287554D01*
X92738094Y-83188424D01*
X92677646Y-83075335D01*
X92667960Y-83043403D01*
X92640420Y-82952617D01*
X92631000Y-82856972D01*
X92631000Y-82243027D01*
X92640420Y-82147382D01*
X92677645Y-82024668D01*
X92677645Y-82024667D01*
X92709957Y-81964217D01*
X92738095Y-81911574D01*
X92759356Y-81885668D01*
X92819447Y-81812446D01*
X92918576Y-81731094D01*
X93031665Y-81670646D01*
X93073601Y-81657925D01*
X93154383Y-81633420D01*
X93282000Y-81620851D01*
X93409618Y-81633420D01*
X93409618Y-81633420D01*
G37*
G36*
X91409618Y-81633420D02*
G01*
X91490400Y-81657925D01*
X91532336Y-81670646D01*
X91645425Y-81731094D01*
X91744554Y-81812446D01*
X91825906Y-81911575D01*
X91886354Y-82024664D01*
X91886355Y-82024668D01*
X91923580Y-82147382D01*
X91933000Y-82243027D01*
X91933000Y-82856973D01*
X91923580Y-82952618D01*
X91921947Y-82958001D01*
X91886354Y-83075336D01*
X91825906Y-83188425D01*
X91744554Y-83287553D01*
X91645424Y-83368906D01*
X91532335Y-83429354D01*
X91500403Y-83439040D01*
X91409617Y-83466580D01*
X91282000Y-83479149D01*
X91154382Y-83466580D01*
X91063596Y-83439040D01*
X91031664Y-83429354D01*
X90918575Y-83368906D01*
X90819447Y-83287554D01*
X90738094Y-83188424D01*
X90677646Y-83075335D01*
X90667960Y-83043403D01*
X90640420Y-82952617D01*
X90631000Y-82856972D01*
X90631000Y-82243027D01*
X90640420Y-82147382D01*
X90677645Y-82024668D01*
X90677645Y-82024667D01*
X90709957Y-81964217D01*
X90738095Y-81911574D01*
X90759356Y-81885668D01*
X90819447Y-81812446D01*
X90918576Y-81731094D01*
X91031665Y-81670646D01*
X91073601Y-81657925D01*
X91154383Y-81633420D01*
X91282000Y-81620851D01*
X91409618Y-81633420D01*
X91409618Y-81633420D01*
G37*
G36*
X89409618Y-81633420D02*
G01*
X89490400Y-81657925D01*
X89532336Y-81670646D01*
X89645425Y-81731094D01*
X89744554Y-81812446D01*
X89825906Y-81911575D01*
X89886354Y-82024664D01*
X89886355Y-82024668D01*
X89923580Y-82147382D01*
X89933000Y-82243027D01*
X89933000Y-82856973D01*
X89923580Y-82952618D01*
X89921947Y-82958001D01*
X89886354Y-83075336D01*
X89825906Y-83188425D01*
X89744554Y-83287553D01*
X89645424Y-83368906D01*
X89532335Y-83429354D01*
X89500403Y-83439040D01*
X89409617Y-83466580D01*
X89282000Y-83479149D01*
X89154382Y-83466580D01*
X89063596Y-83439040D01*
X89031664Y-83429354D01*
X88918575Y-83368906D01*
X88819447Y-83287554D01*
X88738094Y-83188424D01*
X88677646Y-83075335D01*
X88667960Y-83043403D01*
X88640420Y-82952617D01*
X88631000Y-82856972D01*
X88631000Y-82243027D01*
X88640420Y-82147382D01*
X88677645Y-82024668D01*
X88677645Y-82024667D01*
X88709957Y-81964217D01*
X88738095Y-81911574D01*
X88759356Y-81885668D01*
X88819447Y-81812446D01*
X88918576Y-81731094D01*
X89031665Y-81670646D01*
X89073601Y-81657925D01*
X89154383Y-81633420D01*
X89282000Y-81620851D01*
X89409618Y-81633420D01*
X89409618Y-81633420D01*
G37*
G36*
X87409618Y-81633420D02*
G01*
X87490400Y-81657925D01*
X87532336Y-81670646D01*
X87645425Y-81731094D01*
X87744554Y-81812446D01*
X87825906Y-81911575D01*
X87886354Y-82024664D01*
X87886355Y-82024668D01*
X87923580Y-82147382D01*
X87933000Y-82243027D01*
X87933000Y-82856973D01*
X87923580Y-82952618D01*
X87921947Y-82958001D01*
X87886354Y-83075336D01*
X87825906Y-83188425D01*
X87744554Y-83287553D01*
X87645424Y-83368906D01*
X87532335Y-83429354D01*
X87500403Y-83439040D01*
X87409617Y-83466580D01*
X87282000Y-83479149D01*
X87154382Y-83466580D01*
X87063596Y-83439040D01*
X87031664Y-83429354D01*
X86918575Y-83368906D01*
X86819447Y-83287554D01*
X86738094Y-83188424D01*
X86677646Y-83075335D01*
X86667960Y-83043403D01*
X86640420Y-82952617D01*
X86631000Y-82856972D01*
X86631000Y-82243027D01*
X86640420Y-82147382D01*
X86677645Y-82024668D01*
X86677645Y-82024667D01*
X86709957Y-81964217D01*
X86738095Y-81911574D01*
X86759356Y-81885668D01*
X86819447Y-81812446D01*
X86918576Y-81731094D01*
X87031665Y-81670646D01*
X87073601Y-81657925D01*
X87154383Y-81633420D01*
X87282000Y-81620851D01*
X87409618Y-81633420D01*
X87409618Y-81633420D01*
G37*
G36*
X85409618Y-81633420D02*
G01*
X85490400Y-81657925D01*
X85532336Y-81670646D01*
X85645425Y-81731094D01*
X85744554Y-81812446D01*
X85825906Y-81911575D01*
X85886354Y-82024664D01*
X85886355Y-82024668D01*
X85923580Y-82147382D01*
X85933000Y-82243027D01*
X85933000Y-82856973D01*
X85923580Y-82952618D01*
X85921947Y-82958001D01*
X85886354Y-83075336D01*
X85825906Y-83188425D01*
X85744554Y-83287553D01*
X85645424Y-83368906D01*
X85532335Y-83429354D01*
X85500403Y-83439040D01*
X85409617Y-83466580D01*
X85282000Y-83479149D01*
X85154382Y-83466580D01*
X85063596Y-83439040D01*
X85031664Y-83429354D01*
X84918575Y-83368906D01*
X84819447Y-83287554D01*
X84738094Y-83188424D01*
X84677646Y-83075335D01*
X84667960Y-83043403D01*
X84640420Y-82952617D01*
X84631000Y-82856972D01*
X84631000Y-82243027D01*
X84640420Y-82147382D01*
X84677645Y-82024668D01*
X84677645Y-82024667D01*
X84709957Y-81964217D01*
X84738095Y-81911574D01*
X84759356Y-81885668D01*
X84819447Y-81812446D01*
X84918576Y-81731094D01*
X85031665Y-81670646D01*
X85073601Y-81657925D01*
X85154383Y-81633420D01*
X85282000Y-81620851D01*
X85409618Y-81633420D01*
X85409618Y-81633420D01*
G37*
G36*
X191104118Y-81633420D02*
G01*
X191184900Y-81657925D01*
X191226836Y-81670646D01*
X191339925Y-81731094D01*
X191439054Y-81812446D01*
X191520406Y-81911575D01*
X191580854Y-82024664D01*
X191580855Y-82024668D01*
X191618080Y-82147382D01*
X191627500Y-82243027D01*
X191627500Y-82856973D01*
X191618080Y-82952618D01*
X191616447Y-82958001D01*
X191580854Y-83075336D01*
X191520406Y-83188425D01*
X191439054Y-83287553D01*
X191339924Y-83368906D01*
X191226835Y-83429354D01*
X191194903Y-83439040D01*
X191104117Y-83466580D01*
X190976500Y-83479149D01*
X190848882Y-83466580D01*
X190758096Y-83439040D01*
X190726164Y-83429354D01*
X190613075Y-83368906D01*
X190513947Y-83287554D01*
X190432594Y-83188424D01*
X190372146Y-83075335D01*
X190362460Y-83043403D01*
X190334920Y-82952617D01*
X190325500Y-82856972D01*
X190325500Y-82243027D01*
X190334920Y-82147382D01*
X190372145Y-82024668D01*
X190372145Y-82024667D01*
X190404457Y-81964217D01*
X190432595Y-81911574D01*
X190453856Y-81885668D01*
X190513947Y-81812446D01*
X190613076Y-81731094D01*
X190726165Y-81670646D01*
X190768101Y-81657925D01*
X190848883Y-81633420D01*
X190976500Y-81620851D01*
X191104118Y-81633420D01*
X191104118Y-81633420D01*
G37*
G36*
X189104118Y-81633420D02*
G01*
X189184900Y-81657925D01*
X189226836Y-81670646D01*
X189339925Y-81731094D01*
X189439054Y-81812446D01*
X189520406Y-81911575D01*
X189580854Y-82024664D01*
X189580855Y-82024668D01*
X189618080Y-82147382D01*
X189627500Y-82243027D01*
X189627500Y-82856973D01*
X189618080Y-82952618D01*
X189616447Y-82958001D01*
X189580854Y-83075336D01*
X189520406Y-83188425D01*
X189439054Y-83287553D01*
X189339924Y-83368906D01*
X189226835Y-83429354D01*
X189194903Y-83439040D01*
X189104117Y-83466580D01*
X188976500Y-83479149D01*
X188848882Y-83466580D01*
X188758096Y-83439040D01*
X188726164Y-83429354D01*
X188613075Y-83368906D01*
X188513947Y-83287554D01*
X188432594Y-83188424D01*
X188372146Y-83075335D01*
X188362460Y-83043403D01*
X188334920Y-82952617D01*
X188325500Y-82856972D01*
X188325500Y-82243027D01*
X188334920Y-82147382D01*
X188372145Y-82024668D01*
X188372145Y-82024667D01*
X188404457Y-81964217D01*
X188432595Y-81911574D01*
X188453856Y-81885668D01*
X188513947Y-81812446D01*
X188613076Y-81731094D01*
X188726165Y-81670646D01*
X188768101Y-81657925D01*
X188848883Y-81633420D01*
X188976500Y-81620851D01*
X189104118Y-81633420D01*
X189104118Y-81633420D01*
G37*
G36*
X193467742Y-81628404D02*
G01*
X193504837Y-81639657D01*
X193539015Y-81657925D01*
X193568981Y-81682519D01*
X193593575Y-81712485D01*
X193611843Y-81746663D01*
X193623096Y-81783758D01*
X193627500Y-81828474D01*
X193627500Y-83271526D01*
X193623096Y-83316242D01*
X193611843Y-83353337D01*
X193593575Y-83387515D01*
X193568981Y-83417481D01*
X193539015Y-83442075D01*
X193504837Y-83460343D01*
X193467742Y-83471596D01*
X193423026Y-83476000D01*
X192529974Y-83476000D01*
X192485258Y-83471596D01*
X192448163Y-83460343D01*
X192413985Y-83442075D01*
X192384019Y-83417481D01*
X192359425Y-83387515D01*
X192341157Y-83353337D01*
X192329904Y-83316242D01*
X192325500Y-83271526D01*
X192325500Y-81828474D01*
X192329904Y-81783758D01*
X192341157Y-81746663D01*
X192359425Y-81712485D01*
X192384019Y-81682519D01*
X192413985Y-81657925D01*
X192448163Y-81639657D01*
X192485258Y-81628404D01*
X192529974Y-81624000D01*
X193423026Y-81624000D01*
X193467742Y-81628404D01*
X193467742Y-81628404D01*
G37*
G36*
X97773242Y-81628404D02*
G01*
X97810337Y-81639657D01*
X97844515Y-81657925D01*
X97874481Y-81682519D01*
X97899075Y-81712485D01*
X97917343Y-81746663D01*
X97928596Y-81783758D01*
X97933000Y-81828474D01*
X97933000Y-83271526D01*
X97928596Y-83316242D01*
X97917343Y-83353337D01*
X97899075Y-83387515D01*
X97874481Y-83417481D01*
X97844515Y-83442075D01*
X97810337Y-83460343D01*
X97773242Y-83471596D01*
X97728526Y-83476000D01*
X96835474Y-83476000D01*
X96790758Y-83471596D01*
X96753663Y-83460343D01*
X96719485Y-83442075D01*
X96689519Y-83417481D01*
X96664925Y-83387515D01*
X96646657Y-83353337D01*
X96635404Y-83316242D01*
X96631000Y-83271526D01*
X96631000Y-81828474D01*
X96635404Y-81783758D01*
X96646657Y-81746663D01*
X96664925Y-81712485D01*
X96689519Y-81682519D01*
X96719485Y-81657925D01*
X96753663Y-81639657D01*
X96790758Y-81628404D01*
X96835474Y-81624000D01*
X97728526Y-81624000D01*
X97773242Y-81628404D01*
X97773242Y-81628404D01*
G37*
G36*
X162797142Y-78045242D02*
G01*
X162945101Y-78106529D01*
X163078255Y-78195499D01*
X163191501Y-78308745D01*
X163280471Y-78441899D01*
X163341758Y-78589858D01*
X163373000Y-78746925D01*
X163373000Y-78907075D01*
X163341758Y-79064142D01*
X163280471Y-79212101D01*
X163191501Y-79345255D01*
X163078255Y-79458501D01*
X162945101Y-79547471D01*
X162797142Y-79608758D01*
X162640075Y-79640000D01*
X162479925Y-79640000D01*
X162322858Y-79608758D01*
X162174899Y-79547471D01*
X162041745Y-79458501D01*
X161928499Y-79345255D01*
X161839529Y-79212101D01*
X161778242Y-79064142D01*
X161747000Y-78907075D01*
X161747000Y-78746925D01*
X161778242Y-78589858D01*
X161839529Y-78441899D01*
X161928499Y-78308745D01*
X162041745Y-78195499D01*
X162174899Y-78106529D01*
X162322858Y-78045242D01*
X162479925Y-78014000D01*
X162640075Y-78014000D01*
X162797142Y-78045242D01*
X162797142Y-78045242D01*
G37*
G36*
X123046142Y-77807742D02*
G01*
X123194101Y-77869029D01*
X123327255Y-77957999D01*
X123440501Y-78071245D01*
X123529471Y-78204399D01*
X123590758Y-78352358D01*
X123622000Y-78509425D01*
X123622000Y-78669575D01*
X123590758Y-78826642D01*
X123529471Y-78974601D01*
X123440501Y-79107755D01*
X123327255Y-79221001D01*
X123194101Y-79309971D01*
X123046142Y-79371258D01*
X122889075Y-79402500D01*
X122728925Y-79402500D01*
X122571858Y-79371258D01*
X122423899Y-79309971D01*
X122290745Y-79221001D01*
X122177499Y-79107755D01*
X122088529Y-78974601D01*
X122027242Y-78826642D01*
X121996000Y-78669575D01*
X121996000Y-78509425D01*
X122027242Y-78352358D01*
X122088529Y-78204399D01*
X122177499Y-78071245D01*
X122290745Y-77957999D01*
X122423899Y-77869029D01*
X122571858Y-77807742D01*
X122728925Y-77776500D01*
X122889075Y-77776500D01*
X123046142Y-77807742D01*
X123046142Y-77807742D01*
G37*
G36*
X123046142Y-74933742D02*
G01*
X123194101Y-74995029D01*
X123327255Y-75083999D01*
X123440501Y-75197245D01*
X123529471Y-75330399D01*
X123590758Y-75478358D01*
X123622000Y-75635425D01*
X123622000Y-75795575D01*
X123590758Y-75952642D01*
X123529471Y-76100601D01*
X123440501Y-76233755D01*
X123327255Y-76347001D01*
X123194101Y-76435971D01*
X123046142Y-76497258D01*
X122889075Y-76528500D01*
X122728925Y-76528500D01*
X122571858Y-76497258D01*
X122423899Y-76435971D01*
X122290745Y-76347001D01*
X122177499Y-76233755D01*
X122088529Y-76100601D01*
X122027242Y-75952642D01*
X121996000Y-75795575D01*
X121996000Y-75635425D01*
X122027242Y-75478358D01*
X122088529Y-75330399D01*
X122177499Y-75197245D01*
X122290745Y-75083999D01*
X122423899Y-74995029D01*
X122571858Y-74933742D01*
X122728925Y-74902500D01*
X122889075Y-74902500D01*
X123046142Y-74933742D01*
X123046142Y-74933742D01*
G37*
G36*
X162797142Y-73045242D02*
G01*
X162945101Y-73106529D01*
X163078255Y-73195499D01*
X163191501Y-73308745D01*
X163280471Y-73441899D01*
X163341758Y-73589858D01*
X163373000Y-73746925D01*
X163373000Y-73907075D01*
X163341758Y-74064142D01*
X163280471Y-74212101D01*
X163191501Y-74345255D01*
X163078255Y-74458501D01*
X162945101Y-74547471D01*
X162797142Y-74608758D01*
X162640075Y-74640000D01*
X162479925Y-74640000D01*
X162322858Y-74608758D01*
X162174899Y-74547471D01*
X162041745Y-74458501D01*
X161928499Y-74345255D01*
X161839529Y-74212101D01*
X161778242Y-74064142D01*
X161747000Y-73907075D01*
X161747000Y-73746925D01*
X161778242Y-73589858D01*
X161839529Y-73441899D01*
X161928499Y-73308745D01*
X162041745Y-73195499D01*
X162174899Y-73106529D01*
X162322858Y-73045242D01*
X162479925Y-73014000D01*
X162640075Y-73014000D01*
X162797142Y-73045242D01*
X162797142Y-73045242D01*
G37*
G36*
X123046142Y-69933742D02*
G01*
X123194101Y-69995029D01*
X123327255Y-70083999D01*
X123440501Y-70197245D01*
X123529471Y-70330399D01*
X123590758Y-70478358D01*
X123622000Y-70635425D01*
X123622000Y-70795575D01*
X123590758Y-70952642D01*
X123529471Y-71100601D01*
X123440501Y-71233755D01*
X123327255Y-71347001D01*
X123194101Y-71435971D01*
X123046142Y-71497258D01*
X122889075Y-71528500D01*
X122728925Y-71528500D01*
X122571858Y-71497258D01*
X122423899Y-71435971D01*
X122290745Y-71347001D01*
X122177499Y-71233755D01*
X122088529Y-71100601D01*
X122027242Y-70952642D01*
X121996000Y-70795575D01*
X121996000Y-70635425D01*
X122027242Y-70478358D01*
X122088529Y-70330399D01*
X122177499Y-70197245D01*
X122290745Y-70083999D01*
X122423899Y-69995029D01*
X122571858Y-69933742D01*
X122728925Y-69902500D01*
X122889075Y-69902500D01*
X123046142Y-69933742D01*
X123046142Y-69933742D01*
G37*
G36*
X50423242Y-69901404D02*
G01*
X50460337Y-69912657D01*
X50494515Y-69930925D01*
X50524481Y-69955519D01*
X50549075Y-69985485D01*
X50567343Y-70019663D01*
X50578596Y-70056758D01*
X50583000Y-70101474D01*
X50583000Y-70994526D01*
X50578596Y-71039242D01*
X50567343Y-71076337D01*
X50549075Y-71110515D01*
X50524481Y-71140481D01*
X50494515Y-71165075D01*
X50460337Y-71183343D01*
X50423242Y-71194596D01*
X50378526Y-71199000D01*
X48935474Y-71199000D01*
X48890758Y-71194596D01*
X48853663Y-71183343D01*
X48819485Y-71165075D01*
X48789519Y-71140481D01*
X48764925Y-71110515D01*
X48746657Y-71076337D01*
X48735404Y-71039242D01*
X48731000Y-70994526D01*
X48731000Y-70101474D01*
X48735404Y-70056758D01*
X48746657Y-70019663D01*
X48764925Y-69985485D01*
X48789519Y-69955519D01*
X48819485Y-69930925D01*
X48853663Y-69912657D01*
X48890758Y-69901404D01*
X48935474Y-69897000D01*
X50378526Y-69897000D01*
X50423242Y-69901404D01*
X50423242Y-69901404D01*
G37*
G36*
X77962337Y-69233763D02*
G01*
X77994367Y-69247030D01*
X78023194Y-69266292D01*
X78047708Y-69290806D01*
X78066970Y-69319633D01*
X78080237Y-69351663D01*
X78087000Y-69385665D01*
X78087000Y-69420335D01*
X78080237Y-69454337D01*
X78066970Y-69486367D01*
X78047708Y-69515194D01*
X78023194Y-69539708D01*
X77994367Y-69558970D01*
X77962337Y-69572237D01*
X77928335Y-69579000D01*
X77893665Y-69579000D01*
X77859663Y-69572237D01*
X77827633Y-69558970D01*
X77798806Y-69539708D01*
X77774292Y-69515194D01*
X77755030Y-69486367D01*
X77741763Y-69454337D01*
X77735000Y-69420335D01*
X77735000Y-69385665D01*
X77741763Y-69351663D01*
X77755030Y-69319633D01*
X77774292Y-69290806D01*
X77798806Y-69266292D01*
X77827633Y-69247030D01*
X77859663Y-69233763D01*
X77893665Y-69227000D01*
X77928335Y-69227000D01*
X77962337Y-69233763D01*
X77962337Y-69233763D01*
G37*
G36*
X49995855Y-67900140D02*
G01*
X50059618Y-67906420D01*
X50150404Y-67933960D01*
X50182336Y-67943646D01*
X50295425Y-68004094D01*
X50394554Y-68085446D01*
X50475906Y-68184575D01*
X50536354Y-68297664D01*
X50536355Y-68297668D01*
X50573580Y-68420382D01*
X50586149Y-68548000D01*
X50573580Y-68675618D01*
X50546040Y-68766404D01*
X50536354Y-68798336D01*
X50475906Y-68911425D01*
X50394554Y-69010554D01*
X50295425Y-69091906D01*
X50182336Y-69152354D01*
X50150404Y-69162040D01*
X50059618Y-69189580D01*
X49995855Y-69195860D01*
X49963974Y-69199000D01*
X49350026Y-69199000D01*
X49318145Y-69195860D01*
X49254382Y-69189580D01*
X49163596Y-69162040D01*
X49131664Y-69152354D01*
X49018575Y-69091906D01*
X48919446Y-69010554D01*
X48838094Y-68911425D01*
X48777646Y-68798336D01*
X48767960Y-68766404D01*
X48740420Y-68675618D01*
X48727851Y-68548000D01*
X48740420Y-68420382D01*
X48777645Y-68297668D01*
X48777646Y-68297664D01*
X48838094Y-68184575D01*
X48919446Y-68085446D01*
X49018575Y-68004094D01*
X49131664Y-67943646D01*
X49163596Y-67933960D01*
X49254382Y-67906420D01*
X49318145Y-67900140D01*
X49350026Y-67897000D01*
X49963974Y-67897000D01*
X49995855Y-67900140D01*
X49995855Y-67900140D01*
G37*
G36*
X78537337Y-68283763D02*
G01*
X78569367Y-68297030D01*
X78598194Y-68316292D01*
X78622708Y-68340806D01*
X78641970Y-68369633D01*
X78655237Y-68401663D01*
X78662000Y-68435665D01*
X78662000Y-68470335D01*
X78655237Y-68504337D01*
X78641970Y-68536367D01*
X78622708Y-68565194D01*
X78598194Y-68589708D01*
X78569367Y-68608970D01*
X78537337Y-68622237D01*
X78503335Y-68629000D01*
X78468665Y-68629000D01*
X78434663Y-68622237D01*
X78402633Y-68608970D01*
X78373806Y-68589708D01*
X78349292Y-68565194D01*
X78330030Y-68536367D01*
X78316763Y-68504337D01*
X78310000Y-68470335D01*
X78310000Y-68435665D01*
X78316763Y-68401663D01*
X78330030Y-68369633D01*
X78349292Y-68340806D01*
X78373806Y-68316292D01*
X78402633Y-68297030D01*
X78434663Y-68283763D01*
X78468665Y-68277000D01*
X78503335Y-68277000D01*
X78537337Y-68283763D01*
X78537337Y-68283763D01*
G37*
G36*
X77387337Y-68283763D02*
G01*
X77419367Y-68297030D01*
X77448194Y-68316292D01*
X77472708Y-68340806D01*
X77491970Y-68369633D01*
X77505237Y-68401663D01*
X77512000Y-68435665D01*
X77512000Y-68470335D01*
X77505237Y-68504337D01*
X77491970Y-68536367D01*
X77472708Y-68565194D01*
X77448194Y-68589708D01*
X77419367Y-68608970D01*
X77387337Y-68622237D01*
X77353335Y-68629000D01*
X77318665Y-68629000D01*
X77284663Y-68622237D01*
X77252633Y-68608970D01*
X77223806Y-68589708D01*
X77199292Y-68565194D01*
X77180030Y-68536367D01*
X77166763Y-68504337D01*
X77160000Y-68470335D01*
X77160000Y-68435665D01*
X77166763Y-68401663D01*
X77180030Y-68369633D01*
X77199292Y-68340806D01*
X77223806Y-68316292D01*
X77252633Y-68297030D01*
X77284663Y-68283763D01*
X77318665Y-68277000D01*
X77353335Y-68277000D01*
X77387337Y-68283763D01*
X77387337Y-68283763D01*
G37*
G36*
X148065903Y-65726075D02*
G01*
X148293571Y-65820378D01*
X148498466Y-65957285D01*
X148672715Y-66131534D01*
X148809622Y-66336429D01*
X148809623Y-66336431D01*
X148903925Y-66564097D01*
X148952000Y-66805786D01*
X148952000Y-67052214D01*
X148903925Y-67293903D01*
X148851847Y-67419632D01*
X148809622Y-67521571D01*
X148672715Y-67726466D01*
X148498466Y-67900715D01*
X148293571Y-68037622D01*
X148293570Y-68037623D01*
X148293569Y-68037623D01*
X148065903Y-68131925D01*
X147824214Y-68180000D01*
X147577786Y-68180000D01*
X147336097Y-68131925D01*
X147108431Y-68037623D01*
X147108430Y-68037623D01*
X147108429Y-68037622D01*
X146903534Y-67900715D01*
X146729285Y-67726466D01*
X146592378Y-67521571D01*
X146550154Y-67419632D01*
X146498075Y-67293903D01*
X146450000Y-67052214D01*
X146450000Y-66805786D01*
X146498075Y-66564097D01*
X146592377Y-66336431D01*
X146592378Y-66336429D01*
X146729285Y-66131534D01*
X146903534Y-65957285D01*
X147108429Y-65820378D01*
X147336097Y-65726075D01*
X147577786Y-65678000D01*
X147824214Y-65678000D01*
X148065903Y-65726075D01*
X148065903Y-65726075D01*
G37*
G36*
X142985903Y-65726075D02*
G01*
X143213571Y-65820378D01*
X143418466Y-65957285D01*
X143592715Y-66131534D01*
X143729622Y-66336429D01*
X143729623Y-66336431D01*
X143823925Y-66564097D01*
X143872000Y-66805786D01*
X143872000Y-67052214D01*
X143823925Y-67293903D01*
X143771847Y-67419632D01*
X143729622Y-67521571D01*
X143592715Y-67726466D01*
X143418466Y-67900715D01*
X143213571Y-68037622D01*
X143213570Y-68037623D01*
X143213569Y-68037623D01*
X142985903Y-68131925D01*
X142744214Y-68180000D01*
X142497786Y-68180000D01*
X142256097Y-68131925D01*
X142028431Y-68037623D01*
X142028430Y-68037623D01*
X142028429Y-68037622D01*
X141823534Y-67900715D01*
X141649285Y-67726466D01*
X141512378Y-67521571D01*
X141470154Y-67419632D01*
X141418075Y-67293903D01*
X141370000Y-67052214D01*
X141370000Y-66805786D01*
X141418075Y-66564097D01*
X141512377Y-66336431D01*
X141512378Y-66336429D01*
X141649285Y-66131534D01*
X141823534Y-65957285D01*
X142028429Y-65820378D01*
X142256097Y-65726075D01*
X142497786Y-65678000D01*
X142744214Y-65678000D01*
X142985903Y-65726075D01*
X142985903Y-65726075D01*
G37*
G36*
X137905903Y-65726075D02*
G01*
X138133571Y-65820378D01*
X138338466Y-65957285D01*
X138512715Y-66131534D01*
X138649622Y-66336429D01*
X138649623Y-66336431D01*
X138743925Y-66564097D01*
X138792000Y-66805786D01*
X138792000Y-67052214D01*
X138743925Y-67293903D01*
X138691847Y-67419632D01*
X138649622Y-67521571D01*
X138512715Y-67726466D01*
X138338466Y-67900715D01*
X138133571Y-68037622D01*
X138133570Y-68037623D01*
X138133569Y-68037623D01*
X137905903Y-68131925D01*
X137664214Y-68180000D01*
X137417786Y-68180000D01*
X137176097Y-68131925D01*
X136948431Y-68037623D01*
X136948430Y-68037623D01*
X136948429Y-68037622D01*
X136743534Y-67900715D01*
X136569285Y-67726466D01*
X136432378Y-67521571D01*
X136390154Y-67419632D01*
X136338075Y-67293903D01*
X136290000Y-67052214D01*
X136290000Y-66805786D01*
X136338075Y-66564097D01*
X136432377Y-66336431D01*
X136432378Y-66336429D01*
X136569285Y-66131534D01*
X136743534Y-65957285D01*
X136948429Y-65820378D01*
X137176097Y-65726075D01*
X137417786Y-65678000D01*
X137664214Y-65678000D01*
X137905903Y-65726075D01*
X137905903Y-65726075D01*
G37*
G36*
X77962337Y-67333763D02*
G01*
X77994367Y-67347030D01*
X78023194Y-67366292D01*
X78047708Y-67390806D01*
X78066970Y-67419633D01*
X78080237Y-67451663D01*
X78087000Y-67485665D01*
X78087000Y-67520335D01*
X78080237Y-67554337D01*
X78066970Y-67586367D01*
X78047708Y-67615194D01*
X78023194Y-67639708D01*
X77994367Y-67658970D01*
X77962337Y-67672237D01*
X77928335Y-67679000D01*
X77893665Y-67679000D01*
X77859663Y-67672237D01*
X77827633Y-67658970D01*
X77798806Y-67639708D01*
X77774292Y-67615194D01*
X77755030Y-67586367D01*
X77741763Y-67554337D01*
X77735000Y-67520335D01*
X77735000Y-67485665D01*
X77741763Y-67451663D01*
X77755030Y-67419633D01*
X77774292Y-67390806D01*
X77798806Y-67366292D01*
X77827633Y-67347030D01*
X77859663Y-67333763D01*
X77893665Y-67327000D01*
X77928335Y-67327000D01*
X77962337Y-67333763D01*
X77962337Y-67333763D01*
G37*
G36*
X49995855Y-65900140D02*
G01*
X50059618Y-65906420D01*
X50150404Y-65933960D01*
X50182336Y-65943646D01*
X50295425Y-66004094D01*
X50394554Y-66085446D01*
X50475906Y-66184575D01*
X50536354Y-66297664D01*
X50536355Y-66297668D01*
X50573580Y-66420382D01*
X50586149Y-66548000D01*
X50573580Y-66675618D01*
X50546040Y-66766404D01*
X50536354Y-66798336D01*
X50475906Y-66911425D01*
X50394554Y-67010554D01*
X50295425Y-67091906D01*
X50182336Y-67152354D01*
X50150404Y-67162040D01*
X50059618Y-67189580D01*
X49995855Y-67195860D01*
X49963974Y-67199000D01*
X49350026Y-67199000D01*
X49318145Y-67195860D01*
X49254382Y-67189580D01*
X49163596Y-67162040D01*
X49131664Y-67152354D01*
X49018575Y-67091906D01*
X48919446Y-67010554D01*
X48838094Y-66911425D01*
X48777646Y-66798336D01*
X48767960Y-66766404D01*
X48740420Y-66675618D01*
X48727851Y-66548000D01*
X48740420Y-66420382D01*
X48777645Y-66297668D01*
X48777646Y-66297664D01*
X48838094Y-66184575D01*
X48919446Y-66085446D01*
X49018575Y-66004094D01*
X49131664Y-65943646D01*
X49163596Y-65933960D01*
X49254382Y-65906420D01*
X49318145Y-65900140D01*
X49350026Y-65897000D01*
X49963974Y-65897000D01*
X49995855Y-65900140D01*
X49995855Y-65900140D01*
G37*
G36*
X123046142Y-64837242D02*
G01*
X123194101Y-64898529D01*
X123327255Y-64987499D01*
X123440501Y-65100745D01*
X123529471Y-65233899D01*
X123590758Y-65381858D01*
X123622000Y-65538925D01*
X123622000Y-65699075D01*
X123590758Y-65856142D01*
X123529471Y-66004101D01*
X123440501Y-66137255D01*
X123327255Y-66250501D01*
X123194101Y-66339471D01*
X123046142Y-66400758D01*
X122889075Y-66432000D01*
X122728925Y-66432000D01*
X122571858Y-66400758D01*
X122423899Y-66339471D01*
X122290745Y-66250501D01*
X122177499Y-66137255D01*
X122088529Y-66004101D01*
X122027242Y-65856142D01*
X121996000Y-65699075D01*
X121996000Y-65538925D01*
X122027242Y-65381858D01*
X122088529Y-65233899D01*
X122177499Y-65100745D01*
X122290745Y-64987499D01*
X122423899Y-64898529D01*
X122571858Y-64837242D01*
X122728925Y-64806000D01*
X122889075Y-64806000D01*
X123046142Y-64837242D01*
X123046142Y-64837242D01*
G37*
G36*
X100118731Y-62682611D02*
G01*
X100446492Y-62818374D01*
X100741470Y-63015472D01*
X100992328Y-63266330D01*
X101189426Y-63561308D01*
X101325189Y-63889069D01*
X101394400Y-64237016D01*
X101394400Y-64591784D01*
X101325189Y-64939731D01*
X101189426Y-65267492D01*
X100992328Y-65562470D01*
X100741470Y-65813328D01*
X100446492Y-66010426D01*
X100118731Y-66146189D01*
X99770784Y-66215400D01*
X99416016Y-66215400D01*
X99068069Y-66146189D01*
X98740308Y-66010426D01*
X98445330Y-65813328D01*
X98194472Y-65562470D01*
X97997374Y-65267492D01*
X97861611Y-64939731D01*
X97792400Y-64591784D01*
X97792400Y-64237016D01*
X97861611Y-63889069D01*
X97997374Y-63561308D01*
X98194472Y-63266330D01*
X98445330Y-63015472D01*
X98740308Y-62818374D01*
X99068069Y-62682611D01*
X99416016Y-62613400D01*
X99770784Y-62613400D01*
X100118731Y-62682611D01*
X100118731Y-62682611D01*
G37*
G36*
X162797142Y-62297242D02*
G01*
X162945101Y-62358529D01*
X163078255Y-62447499D01*
X163191501Y-62560745D01*
X163280471Y-62693899D01*
X163341758Y-62841858D01*
X163373000Y-62998925D01*
X163373000Y-63159075D01*
X163341758Y-63316142D01*
X163280471Y-63464101D01*
X163191501Y-63597255D01*
X163078255Y-63710501D01*
X162945101Y-63799471D01*
X162797142Y-63860758D01*
X162640075Y-63892000D01*
X162479925Y-63892000D01*
X162322858Y-63860758D01*
X162174899Y-63799471D01*
X162041745Y-63710501D01*
X161928499Y-63597255D01*
X161839529Y-63464101D01*
X161778242Y-63316142D01*
X161747000Y-63159075D01*
X161747000Y-62998925D01*
X161778242Y-62841858D01*
X161839529Y-62693899D01*
X161928499Y-62560745D01*
X162041745Y-62447499D01*
X162174899Y-62358529D01*
X162322858Y-62297242D01*
X162479925Y-62266000D01*
X162640075Y-62266000D01*
X162797142Y-62297242D01*
X162797142Y-62297242D01*
G37*
G36*
X188594395Y-60894546D02*
G01*
X188767466Y-60966234D01*
X188767467Y-60966235D01*
X188923227Y-61070310D01*
X189055690Y-61202773D01*
X189055691Y-61202775D01*
X189159766Y-61358534D01*
X189231454Y-61531605D01*
X189268000Y-61715333D01*
X189268000Y-61902667D01*
X189231454Y-62086395D01*
X189159766Y-62259466D01*
X189159765Y-62259467D01*
X189055690Y-62415227D01*
X188923227Y-62547690D01*
X188844818Y-62600081D01*
X188767466Y-62651766D01*
X188594395Y-62723454D01*
X188410667Y-62760000D01*
X188223333Y-62760000D01*
X188039605Y-62723454D01*
X187866534Y-62651766D01*
X187789182Y-62600081D01*
X187710773Y-62547690D01*
X187578310Y-62415227D01*
X187474235Y-62259467D01*
X187474234Y-62259466D01*
X187402546Y-62086395D01*
X187366000Y-61902667D01*
X187366000Y-61715333D01*
X187402546Y-61531605D01*
X187474234Y-61358534D01*
X187578309Y-61202775D01*
X187578310Y-61202773D01*
X187710773Y-61070310D01*
X187866533Y-60966235D01*
X187866534Y-60966234D01*
X188039605Y-60894546D01*
X188223333Y-60858000D01*
X188410667Y-60858000D01*
X188594395Y-60894546D01*
X188594395Y-60894546D01*
G37*
G36*
X191094395Y-60894546D02*
G01*
X191267466Y-60966234D01*
X191267467Y-60966235D01*
X191423227Y-61070310D01*
X191555690Y-61202773D01*
X191555691Y-61202775D01*
X191659766Y-61358534D01*
X191731454Y-61531605D01*
X191768000Y-61715333D01*
X191768000Y-61902667D01*
X191731454Y-62086395D01*
X191659766Y-62259466D01*
X191659765Y-62259467D01*
X191555690Y-62415227D01*
X191423227Y-62547690D01*
X191344818Y-62600081D01*
X191267466Y-62651766D01*
X191094395Y-62723454D01*
X190910667Y-62760000D01*
X190723333Y-62760000D01*
X190539605Y-62723454D01*
X190366534Y-62651766D01*
X190289182Y-62600081D01*
X190210773Y-62547690D01*
X190078310Y-62415227D01*
X189974235Y-62259467D01*
X189974234Y-62259466D01*
X189902546Y-62086395D01*
X189866000Y-61902667D01*
X189866000Y-61715333D01*
X189902546Y-61531605D01*
X189974234Y-61358534D01*
X190078309Y-61202775D01*
X190078310Y-61202773D01*
X190210773Y-61070310D01*
X190366533Y-60966235D01*
X190366534Y-60966234D01*
X190539605Y-60894546D01*
X190723333Y-60858000D01*
X190910667Y-60858000D01*
X191094395Y-60894546D01*
X191094395Y-60894546D01*
G37*
G36*
X123046142Y-59837242D02*
G01*
X123194101Y-59898529D01*
X123327255Y-59987499D01*
X123440501Y-60100745D01*
X123529471Y-60233899D01*
X123590758Y-60381858D01*
X123622000Y-60538925D01*
X123622000Y-60699075D01*
X123590758Y-60856142D01*
X123529471Y-61004101D01*
X123440501Y-61137255D01*
X123327255Y-61250501D01*
X123194101Y-61339471D01*
X123046142Y-61400758D01*
X122889075Y-61432000D01*
X122728925Y-61432000D01*
X122571858Y-61400758D01*
X122423899Y-61339471D01*
X122290745Y-61250501D01*
X122177499Y-61137255D01*
X122088529Y-61004101D01*
X122027242Y-60856142D01*
X121996000Y-60699075D01*
X121996000Y-60538925D01*
X122027242Y-60381858D01*
X122088529Y-60233899D01*
X122177499Y-60100745D01*
X122290745Y-59987499D01*
X122423899Y-59898529D01*
X122571858Y-59837242D01*
X122728925Y-59806000D01*
X122889075Y-59806000D01*
X123046142Y-59837242D01*
X123046142Y-59837242D01*
G37*
G36*
X191094395Y-58394546D02*
G01*
X191267466Y-58466234D01*
X191267467Y-58466235D01*
X191423227Y-58570310D01*
X191555690Y-58702773D01*
X191608081Y-58781182D01*
X191659766Y-58858534D01*
X191731454Y-59031605D01*
X191768000Y-59215333D01*
X191768000Y-59402667D01*
X191731454Y-59586395D01*
X191659766Y-59759466D01*
X191659765Y-59759467D01*
X191555690Y-59915227D01*
X191423227Y-60047690D01*
X191344818Y-60100081D01*
X191267466Y-60151766D01*
X191094395Y-60223454D01*
X190910667Y-60260000D01*
X190723333Y-60260000D01*
X190539605Y-60223454D01*
X190366534Y-60151766D01*
X190289182Y-60100081D01*
X190210773Y-60047690D01*
X190078310Y-59915227D01*
X189974235Y-59759467D01*
X189974234Y-59759466D01*
X189902546Y-59586395D01*
X189866000Y-59402667D01*
X189866000Y-59215333D01*
X189902546Y-59031605D01*
X189974234Y-58858534D01*
X190025919Y-58781182D01*
X190078310Y-58702773D01*
X190210773Y-58570310D01*
X190366533Y-58466235D01*
X190366534Y-58466234D01*
X190539605Y-58394546D01*
X190723333Y-58358000D01*
X190910667Y-58358000D01*
X191094395Y-58394546D01*
X191094395Y-58394546D01*
G37*
G36*
X188594395Y-58394546D02*
G01*
X188767466Y-58466234D01*
X188767467Y-58466235D01*
X188923227Y-58570310D01*
X189055690Y-58702773D01*
X189108081Y-58781182D01*
X189159766Y-58858534D01*
X189231454Y-59031605D01*
X189268000Y-59215333D01*
X189268000Y-59402667D01*
X189231454Y-59586395D01*
X189159766Y-59759466D01*
X189159765Y-59759467D01*
X189055690Y-59915227D01*
X188923227Y-60047690D01*
X188844818Y-60100081D01*
X188767466Y-60151766D01*
X188594395Y-60223454D01*
X188410667Y-60260000D01*
X188223333Y-60260000D01*
X188039605Y-60223454D01*
X187866534Y-60151766D01*
X187789182Y-60100081D01*
X187710773Y-60047690D01*
X187578310Y-59915227D01*
X187474235Y-59759467D01*
X187474234Y-59759466D01*
X187402546Y-59586395D01*
X187366000Y-59402667D01*
X187366000Y-59215333D01*
X187402546Y-59031605D01*
X187474234Y-58858534D01*
X187525919Y-58781182D01*
X187578310Y-58702773D01*
X187710773Y-58570310D01*
X187866533Y-58466235D01*
X187866534Y-58466234D01*
X188039605Y-58394546D01*
X188223333Y-58358000D01*
X188410667Y-58358000D01*
X188594395Y-58394546D01*
X188594395Y-58394546D01*
G37*
G36*
X162797142Y-57297242D02*
G01*
X162945101Y-57358529D01*
X163078255Y-57447499D01*
X163191501Y-57560745D01*
X163280471Y-57693899D01*
X163341758Y-57841858D01*
X163373000Y-57998925D01*
X163373000Y-58159075D01*
X163341758Y-58316142D01*
X163280471Y-58464101D01*
X163191501Y-58597255D01*
X163078255Y-58710501D01*
X162945101Y-58799471D01*
X162797142Y-58860758D01*
X162640075Y-58892000D01*
X162479925Y-58892000D01*
X162322858Y-58860758D01*
X162174899Y-58799471D01*
X162041745Y-58710501D01*
X161928499Y-58597255D01*
X161839529Y-58464101D01*
X161778242Y-58316142D01*
X161747000Y-58159075D01*
X161747000Y-57998925D01*
X161778242Y-57841858D01*
X161839529Y-57693899D01*
X161928499Y-57560745D01*
X162041745Y-57447499D01*
X162174899Y-57358529D01*
X162322858Y-57297242D01*
X162479925Y-57266000D01*
X162640075Y-57266000D01*
X162797142Y-57297242D01*
X162797142Y-57297242D01*
G37*
G36*
X123046142Y-57003242D02*
G01*
X123194101Y-57064529D01*
X123327255Y-57153499D01*
X123440501Y-57266745D01*
X123529471Y-57399899D01*
X123590758Y-57547858D01*
X123622000Y-57704925D01*
X123622000Y-57865075D01*
X123590758Y-58022142D01*
X123529471Y-58170101D01*
X123440501Y-58303255D01*
X123327255Y-58416501D01*
X123194101Y-58505471D01*
X123046142Y-58566758D01*
X122889075Y-58598000D01*
X122728925Y-58598000D01*
X122571858Y-58566758D01*
X122423899Y-58505471D01*
X122290745Y-58416501D01*
X122177499Y-58303255D01*
X122088529Y-58170101D01*
X122027242Y-58022142D01*
X121996000Y-57865075D01*
X121996000Y-57704925D01*
X122027242Y-57547858D01*
X122088529Y-57399899D01*
X122177499Y-57266745D01*
X122290745Y-57153499D01*
X122423899Y-57064529D01*
X122571858Y-57003242D01*
X122728925Y-56972000D01*
X122889075Y-56972000D01*
X123046142Y-57003242D01*
X123046142Y-57003242D01*
G37*
G36*
X148065903Y-55566075D02*
G01*
X148293571Y-55660378D01*
X148498466Y-55797285D01*
X148672715Y-55971534D01*
X148787144Y-56142789D01*
X148809623Y-56176431D01*
X148903925Y-56404097D01*
X148952000Y-56645786D01*
X148952000Y-56892214D01*
X148903925Y-57133903D01*
X148836268Y-57297243D01*
X148809622Y-57361571D01*
X148672715Y-57566466D01*
X148498466Y-57740715D01*
X148293571Y-57877622D01*
X148293570Y-57877623D01*
X148293569Y-57877623D01*
X148065903Y-57971925D01*
X147824214Y-58020000D01*
X147577786Y-58020000D01*
X147336097Y-57971925D01*
X147108431Y-57877623D01*
X147108430Y-57877623D01*
X147108429Y-57877622D01*
X146903534Y-57740715D01*
X146729285Y-57566466D01*
X146592378Y-57361571D01*
X146565733Y-57297243D01*
X146498075Y-57133903D01*
X146450000Y-56892214D01*
X146450000Y-56645786D01*
X146498075Y-56404097D01*
X146592377Y-56176431D01*
X146614856Y-56142789D01*
X146729285Y-55971534D01*
X146903534Y-55797285D01*
X147108429Y-55660378D01*
X147336097Y-55566075D01*
X147577786Y-55518000D01*
X147824214Y-55518000D01*
X148065903Y-55566075D01*
X148065903Y-55566075D01*
G37*
G36*
X137905903Y-55566075D02*
G01*
X138133571Y-55660378D01*
X138338466Y-55797285D01*
X138512715Y-55971534D01*
X138627144Y-56142789D01*
X138649623Y-56176431D01*
X138743925Y-56404097D01*
X138792000Y-56645786D01*
X138792000Y-56892214D01*
X138743925Y-57133903D01*
X138676268Y-57297243D01*
X138649622Y-57361571D01*
X138512715Y-57566466D01*
X138338466Y-57740715D01*
X138133571Y-57877622D01*
X138133570Y-57877623D01*
X138133569Y-57877623D01*
X137905903Y-57971925D01*
X137664214Y-58020000D01*
X137417786Y-58020000D01*
X137176097Y-57971925D01*
X136948431Y-57877623D01*
X136948430Y-57877623D01*
X136948429Y-57877622D01*
X136743534Y-57740715D01*
X136569285Y-57566466D01*
X136432378Y-57361571D01*
X136405733Y-57297243D01*
X136338075Y-57133903D01*
X136290000Y-56892214D01*
X136290000Y-56645786D01*
X136338075Y-56404097D01*
X136432377Y-56176431D01*
X136454856Y-56142789D01*
X136569285Y-55971534D01*
X136743534Y-55797285D01*
X136948429Y-55660378D01*
X137176097Y-55566075D01*
X137417786Y-55518000D01*
X137664214Y-55518000D01*
X137905903Y-55566075D01*
X137905903Y-55566075D01*
G37*
G36*
X142985903Y-55566075D02*
G01*
X143213571Y-55660378D01*
X143418466Y-55797285D01*
X143592715Y-55971534D01*
X143707144Y-56142789D01*
X143729623Y-56176431D01*
X143823925Y-56404097D01*
X143872000Y-56645786D01*
X143872000Y-56892214D01*
X143823925Y-57133903D01*
X143756268Y-57297243D01*
X143729622Y-57361571D01*
X143592715Y-57566466D01*
X143418466Y-57740715D01*
X143213571Y-57877622D01*
X143213570Y-57877623D01*
X143213569Y-57877623D01*
X142985903Y-57971925D01*
X142744214Y-58020000D01*
X142497786Y-58020000D01*
X142256097Y-57971925D01*
X142028431Y-57877623D01*
X142028430Y-57877623D01*
X142028429Y-57877622D01*
X141823534Y-57740715D01*
X141649285Y-57566466D01*
X141512378Y-57361571D01*
X141485733Y-57297243D01*
X141418075Y-57133903D01*
X141370000Y-56892214D01*
X141370000Y-56645786D01*
X141418075Y-56404097D01*
X141512377Y-56176431D01*
X141534856Y-56142789D01*
X141649285Y-55971534D01*
X141823534Y-55797285D01*
X142028429Y-55660378D01*
X142256097Y-55566075D01*
X142497786Y-55518000D01*
X142744214Y-55518000D01*
X142985903Y-55566075D01*
X142985903Y-55566075D01*
G37*
G36*
X188594395Y-55894546D02*
G01*
X188767466Y-55966234D01*
X188767467Y-55966235D01*
X188923227Y-56070310D01*
X189055690Y-56202773D01*
X189055691Y-56202775D01*
X189159766Y-56358534D01*
X189231454Y-56531605D01*
X189268000Y-56715333D01*
X189268000Y-56902667D01*
X189231454Y-57086395D01*
X189159766Y-57259466D01*
X189154902Y-57266745D01*
X189055690Y-57415227D01*
X188923227Y-57547690D01*
X188844818Y-57600081D01*
X188767466Y-57651766D01*
X188594395Y-57723454D01*
X188410667Y-57760000D01*
X188223333Y-57760000D01*
X188039605Y-57723454D01*
X187866534Y-57651766D01*
X187789182Y-57600081D01*
X187710773Y-57547690D01*
X187578310Y-57415227D01*
X187479098Y-57266745D01*
X187474234Y-57259466D01*
X187402546Y-57086395D01*
X187366000Y-56902667D01*
X187366000Y-56715333D01*
X187402546Y-56531605D01*
X187474234Y-56358534D01*
X187578309Y-56202775D01*
X187578310Y-56202773D01*
X187710773Y-56070310D01*
X187866533Y-55966235D01*
X187866534Y-55966234D01*
X188039605Y-55894546D01*
X188223333Y-55858000D01*
X188410667Y-55858000D01*
X188594395Y-55894546D01*
X188594395Y-55894546D01*
G37*
G36*
X191094395Y-55894546D02*
G01*
X191267466Y-55966234D01*
X191267467Y-55966235D01*
X191423227Y-56070310D01*
X191555690Y-56202773D01*
X191555691Y-56202775D01*
X191659766Y-56358534D01*
X191731454Y-56531605D01*
X191768000Y-56715333D01*
X191768000Y-56902667D01*
X191731454Y-57086395D01*
X191659766Y-57259466D01*
X191654902Y-57266745D01*
X191555690Y-57415227D01*
X191423227Y-57547690D01*
X191344818Y-57600081D01*
X191267466Y-57651766D01*
X191094395Y-57723454D01*
X190910667Y-57760000D01*
X190723333Y-57760000D01*
X190539605Y-57723454D01*
X190366534Y-57651766D01*
X190289182Y-57600081D01*
X190210773Y-57547690D01*
X190078310Y-57415227D01*
X189979098Y-57266745D01*
X189974234Y-57259466D01*
X189902546Y-57086395D01*
X189866000Y-56902667D01*
X189866000Y-56715333D01*
X189902546Y-56531605D01*
X189974234Y-56358534D01*
X190078309Y-56202775D01*
X190078310Y-56202773D01*
X190210773Y-56070310D01*
X190366533Y-55966235D01*
X190366534Y-55966234D01*
X190539605Y-55894546D01*
X190723333Y-55858000D01*
X190910667Y-55858000D01*
X191094395Y-55894546D01*
X191094395Y-55894546D01*
G37*
G36*
X51114331Y-52679211D02*
G01*
X51442092Y-52814974D01*
X51737070Y-53012072D01*
X51987928Y-53262930D01*
X52185026Y-53557908D01*
X52320789Y-53885669D01*
X52390000Y-54233616D01*
X52390000Y-54588384D01*
X52320789Y-54936331D01*
X52185026Y-55264092D01*
X51987928Y-55559070D01*
X51737070Y-55809928D01*
X51442092Y-56007026D01*
X51114331Y-56142789D01*
X50766384Y-56212000D01*
X50411616Y-56212000D01*
X50063669Y-56142789D01*
X49735908Y-56007026D01*
X49440930Y-55809928D01*
X49190072Y-55559070D01*
X48992974Y-55264092D01*
X48857211Y-54936331D01*
X48788000Y-54588384D01*
X48788000Y-54233616D01*
X48857211Y-53885669D01*
X48992974Y-53557908D01*
X49190072Y-53262930D01*
X49440930Y-53012072D01*
X49735908Y-52814974D01*
X50063669Y-52679211D01*
X50411616Y-52610000D01*
X50766384Y-52610000D01*
X51114331Y-52679211D01*
X51114331Y-52679211D01*
G37*
G36*
X200114331Y-52679211D02*
G01*
X200442092Y-52814974D01*
X200737070Y-53012072D01*
X200987928Y-53262930D01*
X201185026Y-53557908D01*
X201320789Y-53885669D01*
X201390000Y-54233616D01*
X201390000Y-54588384D01*
X201320789Y-54936331D01*
X201185026Y-55264092D01*
X200987928Y-55559070D01*
X200737070Y-55809928D01*
X200442092Y-56007026D01*
X200114331Y-56142789D01*
X199766384Y-56212000D01*
X199411616Y-56212000D01*
X199063669Y-56142789D01*
X198735908Y-56007026D01*
X198440930Y-55809928D01*
X198190072Y-55559070D01*
X197992974Y-55264092D01*
X197857211Y-54936331D01*
X197788000Y-54588384D01*
X197788000Y-54233616D01*
X197857211Y-53885669D01*
X197992974Y-53557908D01*
X198190072Y-53262930D01*
X198440930Y-53012072D01*
X198735908Y-52814974D01*
X199063669Y-52679211D01*
X199411616Y-52610000D01*
X199766384Y-52610000D01*
X200114331Y-52679211D01*
X200114331Y-52679211D01*
G37*
G36*
X123046142Y-52003242D02*
G01*
X123194101Y-52064529D01*
X123327255Y-52153499D01*
X123440501Y-52266745D01*
X123529471Y-52399899D01*
X123590758Y-52547858D01*
X123622000Y-52704925D01*
X123622000Y-52865075D01*
X123590758Y-53022142D01*
X123529471Y-53170101D01*
X123440501Y-53303255D01*
X123327255Y-53416501D01*
X123194101Y-53505471D01*
X123046142Y-53566758D01*
X122889075Y-53598000D01*
X122728925Y-53598000D01*
X122571858Y-53566758D01*
X122423899Y-53505471D01*
X122290745Y-53416501D01*
X122177499Y-53303255D01*
X122088529Y-53170101D01*
X122027242Y-53022142D01*
X121996000Y-52865075D01*
X121996000Y-52704925D01*
X122027242Y-52547858D01*
X122088529Y-52399899D01*
X122177499Y-52266745D01*
X122290745Y-52153499D01*
X122423899Y-52064529D01*
X122571858Y-52003242D01*
X122728925Y-51972000D01*
X122889075Y-51972000D01*
X123046142Y-52003242D01*
X123046142Y-52003242D01*
G37*
M02*
