G04 #@! TF.GenerationSoftware,KiCad,Pcbnew,(5.1.0)-1*
G04 #@! TF.CreationDate,2019-06-01T21:51:24-04:00*
G04 #@! TF.ProjectId,input,696e7075-742e-46b6-9963-61645f706362,rev?*
G04 #@! TF.SameCoordinates,Original*
G04 #@! TF.FileFunction,Copper,L1,Top*
G04 #@! TF.FilePolarity,Positive*
%FSLAX46Y46*%
G04 Gerber Fmt 4.6, Leading zero omitted, Abs format (unit mm)*
G04 Created by KiCad (PCBNEW (5.1.0)-1) date 2019-06-01 21:51:24*
%MOMM*%
%LPD*%
G04 APERTURE LIST*
%ADD10C,2.400000*%
%ADD11C,2.600000*%
%ADD12C,0.100000*%
%ADD13C,1.200000*%
%ADD14O,1.200000X1.750000*%
%ADD15C,1.000000*%
%ADD16C,2.000000*%
G04 APERTURE END LIST*
D10*
X149938000Y-106737000D03*
D11*
X157438000Y-113987000D03*
D10*
X157438000Y-106737000D03*
D11*
X143438000Y-113987000D03*
D10*
X143438000Y-106737000D03*
X135938000Y-106737000D03*
D12*
G36*
X142074505Y-99826204D02*
G01*
X142098773Y-99829804D01*
X142122572Y-99835765D01*
X142145671Y-99844030D01*
X142167850Y-99854520D01*
X142188893Y-99867132D01*
X142208599Y-99881747D01*
X142226777Y-99898223D01*
X142243253Y-99916401D01*
X142257868Y-99936107D01*
X142270480Y-99957150D01*
X142280970Y-99979329D01*
X142289235Y-100002428D01*
X142295196Y-100026227D01*
X142298796Y-100050495D01*
X142300000Y-100074999D01*
X142300000Y-101325001D01*
X142298796Y-101349505D01*
X142295196Y-101373773D01*
X142289235Y-101397572D01*
X142280970Y-101420671D01*
X142270480Y-101442850D01*
X142257868Y-101463893D01*
X142243253Y-101483599D01*
X142226777Y-101501777D01*
X142208599Y-101518253D01*
X142188893Y-101532868D01*
X142167850Y-101545480D01*
X142145671Y-101555970D01*
X142122572Y-101564235D01*
X142098773Y-101570196D01*
X142074505Y-101573796D01*
X142050001Y-101575000D01*
X141349999Y-101575000D01*
X141325495Y-101573796D01*
X141301227Y-101570196D01*
X141277428Y-101564235D01*
X141254329Y-101555970D01*
X141232150Y-101545480D01*
X141211107Y-101532868D01*
X141191401Y-101518253D01*
X141173223Y-101501777D01*
X141156747Y-101483599D01*
X141142132Y-101463893D01*
X141129520Y-101442850D01*
X141119030Y-101420671D01*
X141110765Y-101397572D01*
X141104804Y-101373773D01*
X141101204Y-101349505D01*
X141100000Y-101325001D01*
X141100000Y-100074999D01*
X141101204Y-100050495D01*
X141104804Y-100026227D01*
X141110765Y-100002428D01*
X141119030Y-99979329D01*
X141129520Y-99957150D01*
X141142132Y-99936107D01*
X141156747Y-99916401D01*
X141173223Y-99898223D01*
X141191401Y-99881747D01*
X141211107Y-99867132D01*
X141232150Y-99854520D01*
X141254329Y-99844030D01*
X141277428Y-99835765D01*
X141301227Y-99829804D01*
X141325495Y-99826204D01*
X141349999Y-99825000D01*
X142050001Y-99825000D01*
X142074505Y-99826204D01*
X142074505Y-99826204D01*
G37*
D13*
X141700000Y-100700000D03*
D14*
X143700000Y-100700000D03*
X145700000Y-100700000D03*
X147700000Y-100700000D03*
X149700000Y-100700000D03*
X151700000Y-100700000D03*
D15*
X139000000Y-103675000D02*
X135938000Y-106737000D01*
X139000000Y-99404843D02*
X139000000Y-103675000D01*
X140154843Y-98250000D02*
X139000000Y-99404843D01*
X143125000Y-98250000D02*
X140154843Y-98250000D01*
X143700000Y-100700000D02*
X143700000Y-98825000D01*
X143700000Y-98825000D02*
X143125000Y-98250000D01*
X141700000Y-104999000D02*
X143438000Y-106737000D01*
X141700000Y-100700000D02*
X141700000Y-104999000D01*
D16*
X155599523Y-113987000D02*
X155586523Y-114000000D01*
X157438000Y-113987000D02*
X155599523Y-113987000D01*
X155586523Y-114000000D02*
X150250000Y-114000000D01*
X150250000Y-114000000D02*
X146750000Y-110500000D01*
X146750000Y-110500000D02*
X146750000Y-101500000D01*
D15*
X146500000Y-101500000D02*
X145700000Y-100700000D01*
X146750000Y-101500000D02*
X146500000Y-101500000D01*
X146900000Y-101500000D02*
X147700000Y-100700000D01*
X146750000Y-101500000D02*
X146900000Y-101500000D01*
X147700000Y-100700000D02*
X145700000Y-100700000D01*
D16*
X146750000Y-110675000D02*
X143438000Y-113987000D01*
X146750000Y-110500000D02*
X146750000Y-110675000D01*
D15*
X154250000Y-103549000D02*
X157438000Y-106737000D01*
X154250000Y-99173748D02*
X154250000Y-103549000D01*
X153326252Y-98250000D02*
X154250000Y-99173748D01*
X150275000Y-98250000D02*
X153326252Y-98250000D01*
X149700000Y-100700000D02*
X149700000Y-98825000D01*
X149700000Y-98825000D02*
X150275000Y-98250000D01*
X151700000Y-104975000D02*
X149938000Y-106737000D01*
X151700000Y-100700000D02*
X151700000Y-104975000D01*
M02*
