G04 #@! TF.GenerationSoftware,KiCad,Pcbnew,(5.1.0)-1*
G04 #@! TF.CreationDate,2019-06-01T21:51:24-04:00*
G04 #@! TF.ProjectId,input,696e7075-742e-46b6-9963-61645f706362,rev?*
G04 #@! TF.SameCoordinates,Original*
G04 #@! TF.FileFunction,Legend,Top*
G04 #@! TF.FilePolarity,Positive*
%FSLAX46Y46*%
G04 Gerber Fmt 4.6, Leading zero omitted, Abs format (unit mm)*
G04 Created by KiCad (PCBNEW (5.1.0)-1) date 2019-06-01 21:51:24*
%MOMM*%
%LPD*%
G04 APERTURE LIST*
%ADD10C,0.500000*%
%ADD11C,0.120000*%
%ADD12C,0.150000*%
G04 APERTURE END LIST*
D10*
X161392857Y-113892857D02*
X161535714Y-113750000D01*
X161821428Y-113607142D01*
X162535714Y-113607142D01*
X162821428Y-113750000D01*
X162964285Y-113892857D01*
X163107142Y-114178571D01*
X163107142Y-114464285D01*
X162964285Y-114892857D01*
X161250000Y-116607142D01*
X163107142Y-116607142D01*
X131857142Y-116607142D02*
X130142857Y-116607142D01*
X131000000Y-116607142D02*
X131000000Y-113607142D01*
X130714285Y-114035714D01*
X130428571Y-114321428D01*
X130142857Y-114464285D01*
D11*
X137750000Y-98750000D02*
X137750000Y-97000000D01*
X145750000Y-98750000D02*
X137750000Y-98750000D01*
X145750000Y-97000000D02*
X145750000Y-98750000D01*
X147750000Y-98750000D02*
X147750000Y-97000000D01*
X155500000Y-98750000D02*
X147750000Y-98750000D01*
X155500000Y-97000000D02*
X155500000Y-98750000D01*
D12*
X154214285Y-97547619D02*
X154261904Y-97500000D01*
X154357142Y-97452380D01*
X154595238Y-97452380D01*
X154690476Y-97500000D01*
X154738095Y-97547619D01*
X154785714Y-97642857D01*
X154785714Y-97738095D01*
X154738095Y-97880952D01*
X154166666Y-98452380D01*
X154785714Y-98452380D01*
X139035714Y-98452380D02*
X138464285Y-98452380D01*
X138750000Y-98452380D02*
X138750000Y-97452380D01*
X138654761Y-97595238D01*
X138559523Y-97690476D01*
X138464285Y-97738095D01*
X147011904Y-97500000D02*
X146916666Y-97452380D01*
X146773809Y-97452380D01*
X146630952Y-97500000D01*
X146535714Y-97595238D01*
X146488095Y-97690476D01*
X146440476Y-97880952D01*
X146440476Y-98023809D01*
X146488095Y-98214285D01*
X146535714Y-98309523D01*
X146630952Y-98404761D01*
X146773809Y-98452380D01*
X146869047Y-98452380D01*
X147011904Y-98404761D01*
X147059523Y-98357142D01*
X147059523Y-98023809D01*
X146869047Y-98023809D01*
X144059523Y-98452380D02*
X143726190Y-97976190D01*
X143488095Y-98452380D02*
X143488095Y-97452380D01*
X143869047Y-97452380D01*
X143964285Y-97500000D01*
X144011904Y-97547619D01*
X144059523Y-97642857D01*
X144059523Y-97785714D01*
X144011904Y-97880952D01*
X143964285Y-97928571D01*
X143869047Y-97976190D01*
X143488095Y-97976190D01*
X152059523Y-98452380D02*
X151726190Y-97976190D01*
X151488095Y-98452380D02*
X151488095Y-97452380D01*
X151869047Y-97452380D01*
X151964285Y-97500000D01*
X152011904Y-97547619D01*
X152059523Y-97642857D01*
X152059523Y-97785714D01*
X152011904Y-97880952D01*
X151964285Y-97928571D01*
X151869047Y-97976190D01*
X151488095Y-97976190D01*
X150059523Y-98452380D02*
X149583333Y-98452380D01*
X149583333Y-97452380D01*
X141809523Y-98452380D02*
X141333333Y-98452380D01*
X141333333Y-97452380D01*
D11*
X158938000Y-106737000D02*
X160188000Y-106737000D01*
X151438000Y-106737000D02*
X155938000Y-106737000D01*
X144938000Y-106737000D02*
X148438000Y-106737000D01*
X137438000Y-106737000D02*
X141938000Y-106737000D01*
X134438000Y-106737000D02*
X133188000Y-106737000D01*
X133188000Y-107987000D02*
X133188000Y-106737000D01*
X160188000Y-107987000D02*
X160188000Y-106737000D01*
X148438000Y-118987000D02*
X144938000Y-118987000D01*
X133188000Y-118987000D02*
X134438000Y-118987000D01*
X133188000Y-112987000D02*
X133188000Y-118987000D01*
X160188000Y-118987000D02*
X158938000Y-118987000D01*
X160188000Y-112987000D02*
X160188000Y-118987000D01*
X148438000Y-120487000D02*
X158938000Y-120487000D01*
X144938000Y-120487000D02*
X134438000Y-120487000D01*
X157838000Y-127237000D02*
X157838000Y-120487000D01*
X149538000Y-127237000D02*
X157838000Y-127237000D01*
X149538000Y-120487000D02*
X149538000Y-127237000D01*
X143838000Y-127237000D02*
X135538000Y-127237000D01*
X143838000Y-120487000D02*
X143838000Y-127237000D01*
X135538000Y-120487000D02*
X135538000Y-127237000D01*
X143838000Y-118987000D02*
X135538000Y-118987000D01*
X139688000Y-118987000D02*
X143838000Y-118987000D01*
X134438000Y-118987000D02*
X134438000Y-120487000D01*
X144938000Y-118987000D02*
X134438000Y-118987000D01*
X144938000Y-118987000D02*
X144938000Y-120487000D01*
X139688000Y-118987000D02*
X144938000Y-118987000D01*
X158938000Y-118987000D02*
X158938000Y-120487000D01*
X148438000Y-118987000D02*
X148438000Y-120487000D01*
X158938000Y-118987000D02*
X148438000Y-118987000D01*
X153688000Y-118987000D02*
X158938000Y-118987000D01*
X139640000Y-98890000D02*
X139640000Y-103610000D01*
X139640000Y-103610000D02*
X153760000Y-103610000D01*
X153760000Y-103610000D02*
X153760000Y-98890000D01*
X153760000Y-98890000D02*
X139640000Y-98890000D01*
X141400000Y-98890000D02*
X141400000Y-98690000D01*
X141400000Y-98690000D02*
X141100000Y-98690000D01*
X141100000Y-98690000D02*
X141100000Y-98890000D01*
X141400000Y-98790000D02*
X141100000Y-98790000D01*
X142200000Y-98890000D02*
X142200000Y-99500000D01*
X142200000Y-99500000D02*
X140250000Y-99500000D01*
X140250000Y-99500000D02*
X140250000Y-103000000D01*
X140250000Y-103000000D02*
X153150000Y-103000000D01*
X153150000Y-103000000D02*
X153150000Y-99500000D01*
X153150000Y-99500000D02*
X151200000Y-99500000D01*
X151200000Y-99500000D02*
X151200000Y-98890000D01*
X139640000Y-100200000D02*
X140250000Y-100200000D01*
X139640000Y-101500000D02*
X140250000Y-101500000D01*
X153760000Y-100200000D02*
X153150000Y-100200000D01*
X153760000Y-101500000D02*
X153150000Y-101500000D01*
X142600000Y-103000000D02*
X142600000Y-102500000D01*
X142600000Y-102500000D02*
X142800000Y-102500000D01*
X142800000Y-102500000D02*
X142800000Y-103000000D01*
X142700000Y-103000000D02*
X142700000Y-102500000D01*
X144600000Y-103000000D02*
X144600000Y-102500000D01*
X144600000Y-102500000D02*
X144800000Y-102500000D01*
X144800000Y-102500000D02*
X144800000Y-103000000D01*
X144700000Y-103000000D02*
X144700000Y-102500000D01*
X146600000Y-103000000D02*
X146600000Y-102500000D01*
X146600000Y-102500000D02*
X146800000Y-102500000D01*
X146800000Y-102500000D02*
X146800000Y-103000000D01*
X146700000Y-103000000D02*
X146700000Y-102500000D01*
X148600000Y-103000000D02*
X148600000Y-102500000D01*
X148600000Y-102500000D02*
X148800000Y-102500000D01*
X148800000Y-102500000D02*
X148800000Y-103000000D01*
X148700000Y-103000000D02*
X148700000Y-102500000D01*
X150600000Y-103000000D02*
X150600000Y-102500000D01*
X150600000Y-102500000D02*
X150800000Y-102500000D01*
X150800000Y-102500000D02*
X150800000Y-103000000D01*
X150700000Y-103000000D02*
X150700000Y-102500000D01*
X140590000Y-98590000D02*
X139340000Y-98590000D01*
X139340000Y-98590000D02*
X139340000Y-99840000D01*
D12*
X130916666Y-106452380D02*
X130916666Y-107166666D01*
X130869047Y-107309523D01*
X130773809Y-107404761D01*
X130630952Y-107452380D01*
X130535714Y-107452380D01*
X131916666Y-107452380D02*
X131345238Y-107452380D01*
X131630952Y-107452380D02*
X131630952Y-106452380D01*
X131535714Y-106595238D01*
X131440476Y-106690476D01*
X131345238Y-106738095D01*
X157699904Y-115987000D02*
X157604666Y-115939380D01*
X157461809Y-115939380D01*
X157318952Y-115987000D01*
X157223714Y-116082238D01*
X157176095Y-116177476D01*
X157128476Y-116367952D01*
X157128476Y-116510809D01*
X157176095Y-116701285D01*
X157223714Y-116796523D01*
X157318952Y-116891761D01*
X157461809Y-116939380D01*
X157557047Y-116939380D01*
X157699904Y-116891761D01*
X157747523Y-116844142D01*
X157747523Y-116510809D01*
X157557047Y-116510809D01*
X143699904Y-115987000D02*
X143604666Y-115939380D01*
X143461809Y-115939380D01*
X143318952Y-115987000D01*
X143223714Y-116082238D01*
X143176095Y-116177476D01*
X143128476Y-116367952D01*
X143128476Y-116510809D01*
X143176095Y-116701285D01*
X143223714Y-116796523D01*
X143318952Y-116891761D01*
X143461809Y-116939380D01*
X143557047Y-116939380D01*
X143699904Y-116891761D01*
X143747523Y-116844142D01*
X143747523Y-116510809D01*
X143557047Y-116510809D01*
X150247523Y-109689380D02*
X149914190Y-109213190D01*
X149676095Y-109689380D02*
X149676095Y-108689380D01*
X150057047Y-108689380D01*
X150152285Y-108737000D01*
X150199904Y-108784619D01*
X150247523Y-108879857D01*
X150247523Y-109022714D01*
X150199904Y-109117952D01*
X150152285Y-109165571D01*
X150057047Y-109213190D01*
X149676095Y-109213190D01*
X157747523Y-109689380D02*
X157271333Y-109689380D01*
X157271333Y-108689380D01*
X143747523Y-109689380D02*
X143271333Y-109689380D01*
X143271333Y-108689380D01*
X136247523Y-109689380D02*
X135914190Y-109213190D01*
X135676095Y-109689380D02*
X135676095Y-108689380D01*
X136057047Y-108689380D01*
X136152285Y-108737000D01*
X136199904Y-108784619D01*
X136247523Y-108879857D01*
X136247523Y-109022714D01*
X136199904Y-109117952D01*
X136152285Y-109165571D01*
X136057047Y-109213190D01*
X135676095Y-109213190D01*
X146416666Y-104452380D02*
X146416666Y-105166666D01*
X146369047Y-105309523D01*
X146273809Y-105404761D01*
X146130952Y-105452380D01*
X146035714Y-105452380D01*
X146845238Y-104547619D02*
X146892857Y-104500000D01*
X146988095Y-104452380D01*
X147226190Y-104452380D01*
X147321428Y-104500000D01*
X147369047Y-104547619D01*
X147416666Y-104642857D01*
X147416666Y-104738095D01*
X147369047Y-104880952D01*
X146797619Y-105452380D01*
X147416666Y-105452380D01*
M02*
